%TF.GenerationSoftware,KiCad,Pcbnew,(6.0.6)*%
%TF.CreationDate,2022-06-27T18:40:53+02:00*%
%TF.ProjectId,rp2040-mini,72703230-3430-42d6-9d69-6e692e6b6963,rev?*%
%TF.SameCoordinates,Original*%
%TF.FileFunction,Copper,L2,Inr*%
%TF.FilePolarity,Positive*%
%FSLAX46Y46*%
G04 Gerber Fmt 4.6, Leading zero omitted, Abs format (unit mm)*
G04 Created by KiCad (PCBNEW (6.0.6)) date 2022-06-27 18:40:53*
%MOMM*%
%LPD*%
G01*
G04 APERTURE LIST*
%TA.AperFunction,ComponentPad*%
%ADD10R,0.900000X1.700000*%
%TD*%
%TA.AperFunction,ComponentPad*%
%ADD11C,0.550000*%
%TD*%
%TA.AperFunction,ComponentPad*%
%ADD12R,1.700000X1.700000*%
%TD*%
%TA.AperFunction,ComponentPad*%
%ADD13O,1.700000X1.700000*%
%TD*%
%TA.AperFunction,ViaPad*%
%ADD14C,0.400000*%
%TD*%
%TA.AperFunction,ViaPad*%
%ADD15C,0.600000*%
%TD*%
G04 APERTURE END LIST*
D10*
%TO.N,GND*%
%TO.C,J3*%
X75675000Y-34550000D03*
D11*
X76500000Y-36700000D03*
X80500000Y-36700000D03*
D10*
X81325000Y-34550000D03*
%TD*%
D12*
%TO.N,/GPIO14*%
%TO.C,J1*%
X68775000Y-78275000D03*
D13*
%TO.N,/GPIO13*%
X68775000Y-75735000D03*
%TO.N,/GPIO12*%
X68775000Y-73195000D03*
%TO.N,/GPIO11*%
X68775000Y-70655000D03*
%TO.N,/GPIO10*%
X68775000Y-68115000D03*
%TO.N,/GPIO9*%
X68775000Y-65575000D03*
%TO.N,/GPIO8*%
X68775000Y-63035000D03*
%TO.N,/GPIO7*%
X68775000Y-60495000D03*
%TO.N,/GPIO6*%
X68775000Y-57955000D03*
%TO.N,/GPIO5*%
X68775000Y-55415000D03*
%TO.N,/GPIO4*%
X68775000Y-52875000D03*
%TO.N,/GPIO3*%
X68775000Y-50335000D03*
%TO.N,/GPIO2*%
X68775000Y-47795000D03*
%TO.N,/GPIO1*%
X68775000Y-45255000D03*
%TO.N,/GPIO0*%
X68775000Y-42715000D03*
%TO.N,GND*%
X68775000Y-40175000D03*
%TO.N,+3V3*%
X68775000Y-37635000D03*
%TO.N,VBUS*%
X68775000Y-35095000D03*
%TD*%
D12*
%TO.N,/GPIO15*%
%TO.C,J2*%
X88500000Y-78275000D03*
D13*
%TO.N,/GPIO16*%
X88500000Y-75735000D03*
%TO.N,/GPIO17*%
X88500000Y-73195000D03*
%TO.N,/GPIO18*%
X88500000Y-70655000D03*
%TO.N,/GPIO19*%
X88500000Y-68115000D03*
%TO.N,/GPIO20*%
X88500000Y-65575000D03*
%TO.N,/GPIO21*%
X88500000Y-63035000D03*
%TO.N,/GPIO22*%
X88500000Y-60495000D03*
%TO.N,/GPIO23*%
X88500000Y-57955000D03*
%TO.N,/GPIO24*%
X88500000Y-55415000D03*
%TO.N,/GPIO25*%
X88500000Y-52875000D03*
%TO.N,/ADC0*%
X88500000Y-50335000D03*
%TO.N,/ADC1*%
X88500000Y-47795000D03*
%TO.N,/ADC2*%
X88500000Y-45255000D03*
%TO.N,/ADC3*%
X88500000Y-42715000D03*
%TO.N,GND*%
X88500000Y-40175000D03*
%TO.N,+3V3*%
X88500000Y-37635000D03*
%TO.N,VBUS*%
X88500000Y-35095000D03*
%TD*%
D12*
%TO.N,/RP2040/SWD*%
%TO.C,DEBUG*%
X81025000Y-77000000D03*
D13*
%TO.N,GND*%
X78485000Y-77000000D03*
%TO.N,/RP2040/SWCLK*%
X75945000Y-77000000D03*
%TD*%
D14*
%TO.N,GND*%
X81000000Y-47500000D03*
X70500000Y-38500000D03*
X85067500Y-54932500D03*
X85000000Y-56800000D03*
X81000000Y-45500000D03*
X84000000Y-34500000D03*
X74000000Y-76500000D03*
X81000000Y-46000000D03*
X83000000Y-45000000D03*
X83000000Y-47500000D03*
X77000000Y-71500000D03*
X70500000Y-40000000D03*
X73218553Y-55781448D03*
X76250000Y-59000000D03*
X80750000Y-57750000D03*
X72500000Y-67500000D03*
X81800000Y-69600000D03*
X76250000Y-59500000D03*
X76700000Y-61800000D03*
X76250000Y-58500000D03*
X79000000Y-47500000D03*
X81000000Y-46500000D03*
X81000000Y-45000000D03*
X79091250Y-52591250D03*
X80750000Y-59250000D03*
X83000000Y-46500000D03*
X85000000Y-39000000D03*
X80750000Y-58750000D03*
X80750000Y-58250000D03*
X72500000Y-55000000D03*
X81000000Y-47000000D03*
X76500000Y-45500000D03*
X70500000Y-42000000D03*
X76250000Y-60000000D03*
X81500000Y-51500000D03*
X78350000Y-70350000D03*
X82000000Y-73000000D03*
X75500000Y-73000000D03*
X85067500Y-52432500D03*
X83000000Y-44500000D03*
X82000000Y-79000000D03*
X82900000Y-53200000D03*
X83000000Y-46000000D03*
X77600000Y-62300000D03*
X74500000Y-65500000D03*
X72000000Y-71500000D03*
X85000000Y-50000000D03*
X76500000Y-47500000D03*
X71000000Y-61200000D03*
X81000000Y-44500000D03*
X79000000Y-67500000D03*
X77150000Y-62050000D03*
X80500000Y-67500000D03*
X85896800Y-60896800D03*
X85000000Y-47500000D03*
X83000000Y-76500000D03*
X75500000Y-79000000D03*
X73000000Y-38500000D03*
X83000000Y-45500000D03*
X83000000Y-47000000D03*
%TO.N,+3V3*%
X76060421Y-57931262D03*
X78700000Y-40747000D03*
X81817500Y-56000000D03*
X79000000Y-57250000D03*
X80900000Y-42800000D03*
X75750000Y-61000000D03*
X78700000Y-61999502D03*
X79112381Y-53708486D03*
X78481984Y-52281984D03*
%TO.N,+1V1*%
X79697147Y-57749500D03*
X79199500Y-62499500D03*
D15*
%TO.N,VBUS*%
X78500000Y-41600000D03*
X76629502Y-39700000D03*
D14*
%TO.N,/RP2040/USB_D-*%
X80700000Y-52016930D03*
X74325003Y-39600000D03*
%TO.N,/RP2040/USB_D+*%
X73725500Y-39600000D03*
X79600000Y-52016930D03*
%TO.N,/RP2040/QSPI_SS*%
X75793747Y-42846233D03*
X75000000Y-56600000D03*
X81411202Y-68295198D03*
%TO.N,/GPIO15*%
X76055945Y-61883936D03*
%TO.N,/RP2040/SWCLK*%
X79900000Y-64500000D03*
%TO.N,/RP2040/SWD*%
X80485113Y-62621287D03*
%TO.N,/GPIO22*%
X80694999Y-60985389D03*
%TO.N,/GPIO24*%
X80592260Y-60328379D03*
%TO.N,/RP2040/QSPI_SD3*%
X77739297Y-55760703D03*
X75150000Y-49750000D03*
%TO.N,/RP2040/QSPI_SCLK*%
X77832288Y-57431762D03*
X73900000Y-47300000D03*
%TO.N,/RP2040/QSPI_SD0*%
X76800000Y-57431762D03*
X72599500Y-47600000D03*
%TO.N,/RP2040/QSPI_SD2*%
X73900000Y-45000000D03*
X76157906Y-55192094D03*
%TO.N,/RP2040/QSPI_SD1*%
X75068592Y-55681408D03*
X74564500Y-44500000D03*
%TD*%
%TA.AperFunction,Conductor*%
%TO.N,GND*%
G36*
X68572883Y-33528502D02*
G01*
X68619376Y-33582158D01*
X68629480Y-33652432D01*
X68599986Y-33717012D01*
X68540260Y-33755396D01*
X68523821Y-33759050D01*
X68459091Y-33768955D01*
X68246756Y-33838357D01*
X68048607Y-33941507D01*
X68044474Y-33944610D01*
X68044471Y-33944612D01*
X68020247Y-33962800D01*
X67869965Y-34075635D01*
X67715629Y-34237138D01*
X67589743Y-34421680D01*
X67495688Y-34624305D01*
X67435989Y-34839570D01*
X67412251Y-35061695D01*
X67412548Y-35066848D01*
X67412548Y-35066851D01*
X67418011Y-35161590D01*
X67425110Y-35284715D01*
X67426247Y-35289761D01*
X67426248Y-35289767D01*
X67446119Y-35377939D01*
X67474222Y-35502639D01*
X67558266Y-35709616D01*
X67674987Y-35900088D01*
X67821250Y-36068938D01*
X67993126Y-36211632D01*
X68063595Y-36252811D01*
X68066445Y-36254476D01*
X68115169Y-36306114D01*
X68128240Y-36375897D01*
X68101509Y-36441669D01*
X68061055Y-36475027D01*
X68048607Y-36481507D01*
X68044474Y-36484610D01*
X68044471Y-36484612D01*
X67874100Y-36612530D01*
X67869965Y-36615635D01*
X67715629Y-36777138D01*
X67589743Y-36961680D01*
X67495688Y-37164305D01*
X67435989Y-37379570D01*
X67412251Y-37601695D01*
X67412548Y-37606848D01*
X67412548Y-37606851D01*
X67418011Y-37701590D01*
X67425110Y-37824715D01*
X67426247Y-37829761D01*
X67426248Y-37829767D01*
X67446119Y-37917939D01*
X67474222Y-38042639D01*
X67558266Y-38249616D01*
X67674987Y-38440088D01*
X67821250Y-38608938D01*
X67993126Y-38751632D01*
X68066955Y-38794774D01*
X68115679Y-38846412D01*
X68128750Y-38916195D01*
X68102019Y-38981967D01*
X68061562Y-39015327D01*
X68053457Y-39019546D01*
X68044738Y-39025036D01*
X67874433Y-39152905D01*
X67866726Y-39159748D01*
X67719590Y-39313717D01*
X67713104Y-39321727D01*
X67593098Y-39497649D01*
X67588000Y-39506623D01*
X67498338Y-39699783D01*
X67494775Y-39709470D01*
X67439389Y-39909183D01*
X67440912Y-39917607D01*
X67453292Y-39921000D01*
X70093344Y-39921000D01*
X70106875Y-39917027D01*
X70108180Y-39907947D01*
X70066214Y-39740875D01*
X70062894Y-39731124D01*
X70002631Y-39592526D01*
X73011835Y-39592526D01*
X73021244Y-39677751D01*
X73027137Y-39731124D01*
X73030653Y-39762975D01*
X73033262Y-39770106D01*
X73033263Y-39770108D01*
X73041188Y-39791764D01*
X73089585Y-39924015D01*
X73185230Y-40066349D01*
X73248647Y-40124054D01*
X73294741Y-40165996D01*
X73312065Y-40181760D01*
X73462768Y-40263585D01*
X73628639Y-40307101D01*
X73716086Y-40308474D01*
X73792503Y-40309675D01*
X73792506Y-40309675D01*
X73800102Y-40309794D01*
X73807506Y-40308098D01*
X73807508Y-40308098D01*
X73883680Y-40290652D01*
X73967259Y-40271510D01*
X73974045Y-40268097D01*
X73981195Y-40265523D01*
X73982218Y-40268366D01*
X74038414Y-40258127D01*
X74062170Y-40263969D01*
X74062271Y-40263585D01*
X74228142Y-40307101D01*
X74315589Y-40308474D01*
X74392006Y-40309675D01*
X74392009Y-40309675D01*
X74399605Y-40309794D01*
X74407009Y-40308098D01*
X74407011Y-40308098D01*
X74469849Y-40293706D01*
X74566762Y-40271510D01*
X74719961Y-40194459D01*
X74725732Y-40189530D01*
X74725735Y-40189528D01*
X74844581Y-40088023D01*
X74850358Y-40083089D01*
X74950427Y-39943830D01*
X75014388Y-39784720D01*
X75025098Y-39709470D01*
X75028062Y-39688640D01*
X75815965Y-39688640D01*
X75833665Y-39869160D01*
X75890920Y-40041273D01*
X75894567Y-40047295D01*
X75894568Y-40047297D01*
X75980706Y-40189528D01*
X75984882Y-40196424D01*
X76110884Y-40326902D01*
X76116780Y-40330760D01*
X76248292Y-40416819D01*
X76262661Y-40426222D01*
X76269265Y-40428678D01*
X76269267Y-40428679D01*
X76426060Y-40486990D01*
X76426062Y-40486990D01*
X76432670Y-40489448D01*
X76516497Y-40500633D01*
X76605482Y-40512507D01*
X76605486Y-40512507D01*
X76612463Y-40513438D01*
X76619474Y-40512800D01*
X76619478Y-40512800D01*
X76761961Y-40499832D01*
X76793102Y-40496998D01*
X76799804Y-40494820D01*
X76799806Y-40494820D01*
X76958911Y-40443124D01*
X76958914Y-40443123D01*
X76965610Y-40440947D01*
X77121414Y-40348069D01*
X77252768Y-40222982D01*
X77353145Y-40071902D01*
X77394925Y-39961917D01*
X77415057Y-39908920D01*
X77415058Y-39908918D01*
X77417557Y-39902338D01*
X77418537Y-39895366D01*
X77442250Y-39726639D01*
X77442250Y-39726636D01*
X77442801Y-39722717D01*
X77443118Y-39700000D01*
X77422899Y-39519745D01*
X77420582Y-39513091D01*
X77365566Y-39355106D01*
X77365564Y-39355103D01*
X77363247Y-39348448D01*
X77267128Y-39194624D01*
X77232495Y-39159748D01*
X77144280Y-39070915D01*
X77144276Y-39070912D01*
X77139317Y-39065918D01*
X77128199Y-39058862D01*
X77066246Y-39019546D01*
X76986168Y-38968727D01*
X76904575Y-38939673D01*
X76821927Y-38910243D01*
X76821922Y-38910242D01*
X76815292Y-38907881D01*
X76808304Y-38907048D01*
X76808301Y-38907047D01*
X76673943Y-38891026D01*
X76635182Y-38886404D01*
X76628179Y-38887140D01*
X76628178Y-38887140D01*
X76461790Y-38904628D01*
X76461788Y-38904629D01*
X76454790Y-38905364D01*
X76283081Y-38963818D01*
X76242852Y-38988567D01*
X76134597Y-39055166D01*
X76134594Y-39055168D01*
X76128590Y-39058862D01*
X76123555Y-39063793D01*
X76123552Y-39063795D01*
X76009774Y-39175215D01*
X75998995Y-39185771D01*
X75900737Y-39338238D01*
X75898328Y-39344858D01*
X75898326Y-39344861D01*
X75842716Y-39497649D01*
X75838699Y-39508685D01*
X75815965Y-39688640D01*
X75028062Y-39688640D01*
X75037969Y-39619031D01*
X75037969Y-39619027D01*
X75038550Y-39614947D01*
X75038707Y-39600000D01*
X75034261Y-39563262D01*
X75019018Y-39437299D01*
X75019017Y-39437296D01*
X75018105Y-39429758D01*
X74987184Y-39347926D01*
X74960174Y-39276447D01*
X74957490Y-39269344D01*
X74910242Y-39200598D01*
X74864662Y-39134278D01*
X74864661Y-39134276D01*
X74860360Y-39128019D01*
X74854689Y-39122966D01*
X74737996Y-39018996D01*
X74737993Y-39018994D01*
X74732324Y-39013943D01*
X74724328Y-39009709D01*
X74643073Y-38966687D01*
X74580772Y-38933700D01*
X74563191Y-38929284D01*
X74421825Y-38893775D01*
X74421821Y-38893775D01*
X74414454Y-38891924D01*
X74406855Y-38891884D01*
X74406853Y-38891884D01*
X74335397Y-38891510D01*
X74242972Y-38891026D01*
X74235592Y-38892798D01*
X74235590Y-38892798D01*
X74138135Y-38916195D01*
X74076226Y-38931058D01*
X74069470Y-38934545D01*
X74069123Y-38934674D01*
X73998302Y-38939673D01*
X73985069Y-38935712D01*
X73981269Y-38933700D01*
X73973899Y-38931849D01*
X73973897Y-38931848D01*
X73822322Y-38893775D01*
X73822318Y-38893775D01*
X73814951Y-38891924D01*
X73807352Y-38891884D01*
X73807350Y-38891884D01*
X73735894Y-38891510D01*
X73643469Y-38891026D01*
X73636089Y-38892798D01*
X73636087Y-38892798D01*
X73484102Y-38929286D01*
X73484098Y-38929287D01*
X73476723Y-38931058D01*
X73324339Y-39009709D01*
X73195115Y-39122439D01*
X73096510Y-39262739D01*
X73034218Y-39422509D01*
X73033226Y-39430042D01*
X73033226Y-39430043D01*
X73021417Y-39519745D01*
X73011835Y-39592526D01*
X70002631Y-39592526D01*
X69977972Y-39535814D01*
X69973105Y-39526739D01*
X69857426Y-39347926D01*
X69851136Y-39339757D01*
X69707806Y-39182240D01*
X69700273Y-39175215D01*
X69533139Y-39043222D01*
X69524556Y-39037520D01*
X69487602Y-39017120D01*
X69437631Y-38966687D01*
X69422859Y-38897245D01*
X69447975Y-38830839D01*
X69475327Y-38804232D01*
X69498797Y-38787491D01*
X69654860Y-38676173D01*
X69813096Y-38518489D01*
X69872594Y-38435689D01*
X69940435Y-38341277D01*
X69943453Y-38337077D01*
X70042430Y-38136811D01*
X70107370Y-37923069D01*
X70136529Y-37701590D01*
X70138156Y-37635000D01*
X70119852Y-37412361D01*
X70118232Y-37405911D01*
X76158919Y-37405911D01*
X76161702Y-37409629D01*
X76302775Y-37462093D01*
X76316360Y-37465480D01*
X76476517Y-37486850D01*
X76490513Y-37487143D01*
X76651419Y-37472499D01*
X76665144Y-37469682D01*
X76818807Y-37419754D01*
X76830766Y-37414329D01*
X76838571Y-37405911D01*
X80158919Y-37405911D01*
X80161702Y-37409629D01*
X80302775Y-37462093D01*
X80316360Y-37465480D01*
X80476517Y-37486850D01*
X80490513Y-37487143D01*
X80651419Y-37472499D01*
X80665144Y-37469682D01*
X80818807Y-37419754D01*
X80830766Y-37414329D01*
X80840121Y-37404239D01*
X80836616Y-37395826D01*
X80512812Y-37072022D01*
X80498868Y-37064408D01*
X80497035Y-37064539D01*
X80490420Y-37068790D01*
X80165679Y-37393531D01*
X80158919Y-37405911D01*
X76838571Y-37405911D01*
X76840121Y-37404239D01*
X76836616Y-37395826D01*
X76512812Y-37072022D01*
X76498868Y-37064408D01*
X76497035Y-37064539D01*
X76490420Y-37068790D01*
X76165679Y-37393531D01*
X76158919Y-37405911D01*
X70118232Y-37405911D01*
X70065431Y-37195702D01*
X69976354Y-36990840D01*
X69855014Y-36803277D01*
X69757407Y-36696008D01*
X75712810Y-36696008D01*
X75728578Y-36856816D01*
X75731489Y-36870510D01*
X75782489Y-37023823D01*
X75786364Y-37032211D01*
X75795380Y-37040454D01*
X75803997Y-37036793D01*
X76127978Y-36712812D01*
X76134356Y-36701132D01*
X76864408Y-36701132D01*
X76864539Y-36702965D01*
X76868790Y-36709580D01*
X77193117Y-37033907D01*
X77205497Y-37040667D01*
X77209313Y-37037810D01*
X77260699Y-36902538D01*
X77264179Y-36888984D01*
X77287096Y-36725923D01*
X77287702Y-36718041D01*
X77287899Y-36703962D01*
X77287512Y-36696062D01*
X77287506Y-36696008D01*
X79712810Y-36696008D01*
X79728578Y-36856816D01*
X79731489Y-36870510D01*
X79782489Y-37023823D01*
X79786364Y-37032211D01*
X79795380Y-37040454D01*
X79803997Y-37036793D01*
X80127978Y-36712812D01*
X80134356Y-36701132D01*
X80864408Y-36701132D01*
X80864539Y-36702965D01*
X80868790Y-36709580D01*
X81193117Y-37033907D01*
X81205497Y-37040667D01*
X81209313Y-37037810D01*
X81260699Y-36902538D01*
X81264179Y-36888984D01*
X81287096Y-36725923D01*
X81287702Y-36718041D01*
X81287899Y-36703962D01*
X81287512Y-36696062D01*
X81269158Y-36532427D01*
X81266058Y-36518782D01*
X81212918Y-36366184D01*
X81212292Y-36364877D01*
X81205460Y-36358804D01*
X81196411Y-36362799D01*
X80872022Y-36687188D01*
X80864408Y-36701132D01*
X80134356Y-36701132D01*
X80135592Y-36698868D01*
X80135461Y-36697035D01*
X80131210Y-36690420D01*
X79806023Y-36365233D01*
X79793643Y-36358473D01*
X79790021Y-36361184D01*
X79736547Y-36508102D01*
X79733257Y-36521702D01*
X79713006Y-36682011D01*
X79712810Y-36696008D01*
X77287506Y-36696008D01*
X77269158Y-36532427D01*
X77266058Y-36518782D01*
X77212918Y-36366184D01*
X77212292Y-36364877D01*
X77205460Y-36358804D01*
X77196411Y-36362799D01*
X76872022Y-36687188D01*
X76864408Y-36701132D01*
X76134356Y-36701132D01*
X76135592Y-36698868D01*
X76135461Y-36697035D01*
X76131210Y-36690420D01*
X75806023Y-36365233D01*
X75793643Y-36358473D01*
X75790021Y-36361184D01*
X75736547Y-36508102D01*
X75733257Y-36521702D01*
X75713006Y-36682011D01*
X75712810Y-36696008D01*
X69757407Y-36696008D01*
X69704670Y-36638051D01*
X69700619Y-36634852D01*
X69700615Y-36634848D01*
X69533414Y-36502800D01*
X69533410Y-36502798D01*
X69529359Y-36499598D01*
X69488053Y-36476796D01*
X69438084Y-36426364D01*
X69423312Y-36356921D01*
X69448428Y-36290516D01*
X69475780Y-36263909D01*
X69519603Y-36232650D01*
X69654860Y-36136173D01*
X69813096Y-35978489D01*
X69816601Y-35973612D01*
X69940435Y-35801277D01*
X69943453Y-35797077D01*
X69980020Y-35723090D01*
X70040136Y-35601453D01*
X70040137Y-35601451D01*
X70042430Y-35596811D01*
X70088654Y-35444669D01*
X74717001Y-35444669D01*
X74717371Y-35451490D01*
X74722895Y-35502352D01*
X74726521Y-35517604D01*
X74771676Y-35638054D01*
X74780214Y-35653649D01*
X74856715Y-35755724D01*
X74869276Y-35768285D01*
X74971351Y-35844786D01*
X74986946Y-35853324D01*
X75107394Y-35898478D01*
X75122649Y-35902105D01*
X75173514Y-35907631D01*
X75180328Y-35908000D01*
X75402885Y-35908000D01*
X75418124Y-35903525D01*
X75419329Y-35902135D01*
X75421000Y-35894452D01*
X75421000Y-35889884D01*
X75929000Y-35889884D01*
X75933475Y-35905123D01*
X75934865Y-35906328D01*
X75942548Y-35907999D01*
X76038782Y-35907999D01*
X76106903Y-35928001D01*
X76154405Y-35983925D01*
X76163014Y-36003804D01*
X76487188Y-36327978D01*
X76501132Y-36335592D01*
X76502965Y-36335461D01*
X76509580Y-36331210D01*
X76834795Y-36005995D01*
X76840813Y-35994973D01*
X80159190Y-35994973D01*
X80163014Y-36003804D01*
X80487188Y-36327978D01*
X80501132Y-36335592D01*
X80502965Y-36335461D01*
X80509580Y-36331210D01*
X80834797Y-36005993D01*
X80852479Y-35973612D01*
X80902682Y-35923411D01*
X80963065Y-35908000D01*
X81052885Y-35908000D01*
X81068124Y-35903525D01*
X81069329Y-35902135D01*
X81071000Y-35894452D01*
X81071000Y-35889884D01*
X81579000Y-35889884D01*
X81583475Y-35905123D01*
X81584865Y-35906328D01*
X81592548Y-35907999D01*
X81819669Y-35907999D01*
X81826490Y-35907629D01*
X81877352Y-35902105D01*
X81892604Y-35898479D01*
X82013054Y-35853324D01*
X82028649Y-35844786D01*
X82130724Y-35768285D01*
X82143285Y-35755724D01*
X82219786Y-35653649D01*
X82228324Y-35638054D01*
X82273478Y-35517606D01*
X82277105Y-35502351D01*
X82282631Y-35451486D01*
X82283000Y-35444672D01*
X82283000Y-34822115D01*
X82278525Y-34806876D01*
X82277135Y-34805671D01*
X82269452Y-34804000D01*
X81597115Y-34804000D01*
X81581876Y-34808475D01*
X81580671Y-34809865D01*
X81579000Y-34817548D01*
X81579000Y-35889884D01*
X81071000Y-35889884D01*
X81071000Y-34822115D01*
X81066525Y-34806876D01*
X81065135Y-34805671D01*
X81057452Y-34804000D01*
X80385116Y-34804000D01*
X80369877Y-34808475D01*
X80368672Y-34809865D01*
X80367001Y-34817548D01*
X80367001Y-35444669D01*
X80367371Y-35451490D01*
X80372895Y-35502352D01*
X80376521Y-35517604D01*
X80421676Y-35638054D01*
X80430214Y-35653649D01*
X80482088Y-35722864D01*
X80506936Y-35789371D01*
X80491883Y-35858753D01*
X80441709Y-35908983D01*
X80394432Y-35923739D01*
X80337805Y-35929690D01*
X80324129Y-35932697D01*
X80171169Y-35984770D01*
X80166340Y-35987042D01*
X80159190Y-35994973D01*
X76840813Y-35994973D01*
X76841555Y-35993615D01*
X76838291Y-35989255D01*
X76686564Y-35935227D01*
X76672939Y-35932031D01*
X76603650Y-35923769D01*
X76538377Y-35895841D01*
X76498564Y-35837058D01*
X76496852Y-35766082D01*
X76517742Y-35723090D01*
X76569789Y-35653644D01*
X76578324Y-35638054D01*
X76623478Y-35517606D01*
X76627105Y-35502351D01*
X76632631Y-35451486D01*
X76633000Y-35444672D01*
X76633000Y-34822115D01*
X76628525Y-34806876D01*
X76627135Y-34805671D01*
X76619452Y-34804000D01*
X75947115Y-34804000D01*
X75931876Y-34808475D01*
X75930671Y-34809865D01*
X75929000Y-34817548D01*
X75929000Y-35889884D01*
X75421000Y-35889884D01*
X75421000Y-34822115D01*
X75416525Y-34806876D01*
X75415135Y-34805671D01*
X75407452Y-34804000D01*
X74735116Y-34804000D01*
X74719877Y-34808475D01*
X74718672Y-34809865D01*
X74717001Y-34817548D01*
X74717001Y-35444669D01*
X70088654Y-35444669D01*
X70107370Y-35383069D01*
X70136529Y-35161590D01*
X70138156Y-35095000D01*
X70119852Y-34872361D01*
X70065431Y-34655702D01*
X69976354Y-34450840D01*
X69936906Y-34389862D01*
X69857822Y-34267617D01*
X69857820Y-34267614D01*
X69855014Y-34263277D01*
X69704670Y-34098051D01*
X69700619Y-34094852D01*
X69700615Y-34094848D01*
X69533414Y-33962800D01*
X69533410Y-33962798D01*
X69529359Y-33959598D01*
X69333789Y-33851638D01*
X69328920Y-33849914D01*
X69328916Y-33849912D01*
X69128087Y-33778795D01*
X69128083Y-33778794D01*
X69123212Y-33777069D01*
X69118119Y-33776162D01*
X69118116Y-33776161D01*
X69019230Y-33758547D01*
X68955672Y-33726909D01*
X68919309Y-33665932D01*
X68921686Y-33594975D01*
X68962047Y-33536567D01*
X69027579Y-33509252D01*
X69041326Y-33508500D01*
X74592150Y-33508500D01*
X74660271Y-33528502D01*
X74706764Y-33582158D01*
X74716926Y-33645083D01*
X74717553Y-33645117D01*
X74717397Y-33647998D01*
X74717414Y-33648103D01*
X74717369Y-33648520D01*
X74717000Y-33655328D01*
X74717000Y-34277885D01*
X74721475Y-34293124D01*
X74722865Y-34294329D01*
X74730548Y-34296000D01*
X76614884Y-34296000D01*
X76630123Y-34291525D01*
X76631328Y-34290135D01*
X76632999Y-34282452D01*
X76632999Y-33655331D01*
X76632629Y-33648506D01*
X76632584Y-33648089D01*
X76632601Y-33647992D01*
X76632446Y-33645123D01*
X76633123Y-33645086D01*
X76645122Y-33578209D01*
X76693451Y-33526200D01*
X76757849Y-33508500D01*
X80242150Y-33508500D01*
X80310271Y-33528502D01*
X80356764Y-33582158D01*
X80366926Y-33645083D01*
X80367553Y-33645117D01*
X80367397Y-33647998D01*
X80367414Y-33648103D01*
X80367369Y-33648520D01*
X80367000Y-33655328D01*
X80367000Y-34277885D01*
X80371475Y-34293124D01*
X80372865Y-34294329D01*
X80380548Y-34296000D01*
X82264884Y-34296000D01*
X82280123Y-34291525D01*
X82281328Y-34290135D01*
X82282999Y-34282452D01*
X82282999Y-33655331D01*
X82282629Y-33648506D01*
X82282584Y-33648089D01*
X82282601Y-33647992D01*
X82282446Y-33645123D01*
X82283123Y-33645086D01*
X82295122Y-33578209D01*
X82343451Y-33526200D01*
X82407849Y-33508500D01*
X88229762Y-33508500D01*
X88297883Y-33528502D01*
X88344376Y-33582158D01*
X88354480Y-33652432D01*
X88324986Y-33717012D01*
X88265260Y-33755396D01*
X88248821Y-33759050D01*
X88184091Y-33768955D01*
X87971756Y-33838357D01*
X87773607Y-33941507D01*
X87769474Y-33944610D01*
X87769471Y-33944612D01*
X87745247Y-33962800D01*
X87594965Y-34075635D01*
X87440629Y-34237138D01*
X87314743Y-34421680D01*
X87220688Y-34624305D01*
X87160989Y-34839570D01*
X87137251Y-35061695D01*
X87137548Y-35066848D01*
X87137548Y-35066851D01*
X87143011Y-35161590D01*
X87150110Y-35284715D01*
X87151247Y-35289761D01*
X87151248Y-35289767D01*
X87171119Y-35377939D01*
X87199222Y-35502639D01*
X87283266Y-35709616D01*
X87399987Y-35900088D01*
X87546250Y-36068938D01*
X87718126Y-36211632D01*
X87788595Y-36252811D01*
X87791445Y-36254476D01*
X87840169Y-36306114D01*
X87853240Y-36375897D01*
X87826509Y-36441669D01*
X87786055Y-36475027D01*
X87773607Y-36481507D01*
X87769474Y-36484610D01*
X87769471Y-36484612D01*
X87599100Y-36612530D01*
X87594965Y-36615635D01*
X87440629Y-36777138D01*
X87314743Y-36961680D01*
X87220688Y-37164305D01*
X87160989Y-37379570D01*
X87137251Y-37601695D01*
X87137548Y-37606848D01*
X87137548Y-37606851D01*
X87143011Y-37701590D01*
X87150110Y-37824715D01*
X87151247Y-37829761D01*
X87151248Y-37829767D01*
X87171119Y-37917939D01*
X87199222Y-38042639D01*
X87283266Y-38249616D01*
X87399987Y-38440088D01*
X87546250Y-38608938D01*
X87718126Y-38751632D01*
X87791955Y-38794774D01*
X87840679Y-38846412D01*
X87853750Y-38916195D01*
X87827019Y-38981967D01*
X87786562Y-39015327D01*
X87778457Y-39019546D01*
X87769738Y-39025036D01*
X87599433Y-39152905D01*
X87591726Y-39159748D01*
X87444590Y-39313717D01*
X87438104Y-39321727D01*
X87318098Y-39497649D01*
X87313000Y-39506623D01*
X87223338Y-39699783D01*
X87219775Y-39709470D01*
X87164389Y-39909183D01*
X87165912Y-39917607D01*
X87178292Y-39921000D01*
X89818344Y-39921000D01*
X89831875Y-39917027D01*
X89833180Y-39907947D01*
X89791214Y-39740875D01*
X89787894Y-39731124D01*
X89702972Y-39535814D01*
X89698105Y-39526739D01*
X89582426Y-39347926D01*
X89576136Y-39339757D01*
X89432806Y-39182240D01*
X89425273Y-39175215D01*
X89258139Y-39043222D01*
X89249556Y-39037520D01*
X89212602Y-39017120D01*
X89162631Y-38966687D01*
X89147859Y-38897245D01*
X89172975Y-38830839D01*
X89200327Y-38804232D01*
X89223797Y-38787491D01*
X89379860Y-38676173D01*
X89538096Y-38518489D01*
X89597594Y-38435689D01*
X89665435Y-38341277D01*
X89668453Y-38337077D01*
X89767430Y-38136811D01*
X89832370Y-37923069D01*
X89861529Y-37701590D01*
X89863156Y-37635000D01*
X89844852Y-37412361D01*
X89790431Y-37195702D01*
X89701354Y-36990840D01*
X89580014Y-36803277D01*
X89429670Y-36638051D01*
X89425619Y-36634852D01*
X89425615Y-36634848D01*
X89258414Y-36502800D01*
X89258410Y-36502798D01*
X89254359Y-36499598D01*
X89213053Y-36476796D01*
X89163084Y-36426364D01*
X89148312Y-36356921D01*
X89173428Y-36290516D01*
X89200780Y-36263909D01*
X89244603Y-36232650D01*
X89379860Y-36136173D01*
X89538096Y-35978489D01*
X89541601Y-35973612D01*
X89665435Y-35801277D01*
X89668453Y-35797077D01*
X89705020Y-35723090D01*
X89765136Y-35601453D01*
X89765137Y-35601451D01*
X89767430Y-35596811D01*
X89832370Y-35383069D01*
X89861529Y-35161590D01*
X89863156Y-35095000D01*
X89844852Y-34872361D01*
X89790431Y-34655702D01*
X89701354Y-34450840D01*
X89661906Y-34389862D01*
X89582822Y-34267617D01*
X89582820Y-34267614D01*
X89580014Y-34263277D01*
X89429670Y-34098051D01*
X89425619Y-34094852D01*
X89425615Y-34094848D01*
X89258414Y-33962800D01*
X89258410Y-33962798D01*
X89254359Y-33959598D01*
X89058789Y-33851638D01*
X89053920Y-33849914D01*
X89053916Y-33849912D01*
X88853087Y-33778795D01*
X88853083Y-33778794D01*
X88848212Y-33777069D01*
X88843119Y-33776162D01*
X88843116Y-33776161D01*
X88744230Y-33758547D01*
X88680672Y-33726909D01*
X88644309Y-33665932D01*
X88646686Y-33594975D01*
X88687047Y-33536567D01*
X88752579Y-33509252D01*
X88766326Y-33508500D01*
X89990500Y-33508500D01*
X90058621Y-33528502D01*
X90105114Y-33582158D01*
X90116500Y-33634500D01*
X90116500Y-80365500D01*
X90096498Y-80433621D01*
X90042842Y-80480114D01*
X89990500Y-80491500D01*
X67259500Y-80491500D01*
X67191379Y-80471498D01*
X67144886Y-80417842D01*
X67133500Y-80365500D01*
X67133500Y-75701695D01*
X67412251Y-75701695D01*
X67412548Y-75706848D01*
X67412548Y-75706851D01*
X67418011Y-75801590D01*
X67425110Y-75924715D01*
X67426247Y-75929761D01*
X67426248Y-75929767D01*
X67438639Y-75984748D01*
X67474222Y-76142639D01*
X67512461Y-76236811D01*
X67547050Y-76321993D01*
X67558266Y-76349616D01*
X67674987Y-76540088D01*
X67821250Y-76708938D01*
X67825230Y-76712242D01*
X67829981Y-76716187D01*
X67869616Y-76775090D01*
X67871113Y-76846071D01*
X67833997Y-76906593D01*
X67793724Y-76931112D01*
X67678295Y-76974385D01*
X67561739Y-77061739D01*
X67474385Y-77178295D01*
X67423255Y-77314684D01*
X67416500Y-77376866D01*
X67416500Y-79173134D01*
X67423255Y-79235316D01*
X67474385Y-79371705D01*
X67561739Y-79488261D01*
X67678295Y-79575615D01*
X67814684Y-79626745D01*
X67876866Y-79633500D01*
X69673134Y-79633500D01*
X69735316Y-79626745D01*
X69871705Y-79575615D01*
X69988261Y-79488261D01*
X70075615Y-79371705D01*
X70126745Y-79235316D01*
X70133500Y-79173134D01*
X70133500Y-77376866D01*
X70126745Y-77314684D01*
X70075615Y-77178295D01*
X69988261Y-77061739D01*
X69871705Y-76974385D01*
X69851192Y-76966695D01*
X74582251Y-76966695D01*
X74595110Y-77189715D01*
X74596247Y-77194761D01*
X74596248Y-77194767D01*
X74617275Y-77288069D01*
X74644222Y-77407639D01*
X74728266Y-77614616D01*
X74844987Y-77805088D01*
X74991250Y-77973938D01*
X75163126Y-78116632D01*
X75356000Y-78229338D01*
X75564692Y-78309030D01*
X75569760Y-78310061D01*
X75569763Y-78310062D01*
X75664862Y-78329410D01*
X75783597Y-78353567D01*
X75788772Y-78353757D01*
X75788774Y-78353757D01*
X76001673Y-78361564D01*
X76001677Y-78361564D01*
X76006837Y-78361753D01*
X76011957Y-78361097D01*
X76011959Y-78361097D01*
X76223288Y-78334025D01*
X76223289Y-78334025D01*
X76228416Y-78333368D01*
X76233366Y-78331883D01*
X76437429Y-78270661D01*
X76437434Y-78270659D01*
X76442384Y-78269174D01*
X76642994Y-78170896D01*
X76824860Y-78041173D01*
X76983096Y-77883489D01*
X77042594Y-77800689D01*
X77113453Y-77702077D01*
X77114640Y-77702930D01*
X77161960Y-77659362D01*
X77231897Y-77647145D01*
X77297338Y-77674678D01*
X77325166Y-77706511D01*
X77382694Y-77800388D01*
X77388777Y-77808699D01*
X77528213Y-77969667D01*
X77535580Y-77976883D01*
X77699434Y-78112916D01*
X77707881Y-78118831D01*
X77891756Y-78226279D01*
X77901042Y-78230729D01*
X78100001Y-78306703D01*
X78109899Y-78309579D01*
X78213250Y-78330606D01*
X78227299Y-78329410D01*
X78231000Y-78319065D01*
X78231000Y-78318517D01*
X78739000Y-78318517D01*
X78743064Y-78332359D01*
X78756478Y-78334393D01*
X78763184Y-78333534D01*
X78773262Y-78331392D01*
X78977255Y-78270191D01*
X78986842Y-78266433D01*
X79178095Y-78172739D01*
X79186945Y-78167464D01*
X79360328Y-78043792D01*
X79368193Y-78037145D01*
X79472897Y-77932805D01*
X79535268Y-77898889D01*
X79606075Y-77904077D01*
X79662837Y-77946723D01*
X79679819Y-77977826D01*
X79724385Y-78096705D01*
X79811739Y-78213261D01*
X79928295Y-78300615D01*
X80064684Y-78351745D01*
X80126866Y-78358500D01*
X81923134Y-78358500D01*
X81985316Y-78351745D01*
X82121705Y-78300615D01*
X82238261Y-78213261D01*
X82325615Y-78096705D01*
X82376745Y-77960316D01*
X82383500Y-77898134D01*
X82383500Y-76101866D01*
X82376745Y-76039684D01*
X82325615Y-75903295D01*
X82238261Y-75786739D01*
X82124787Y-75701695D01*
X87137251Y-75701695D01*
X87137548Y-75706848D01*
X87137548Y-75706851D01*
X87143011Y-75801590D01*
X87150110Y-75924715D01*
X87151247Y-75929761D01*
X87151248Y-75929767D01*
X87163639Y-75984748D01*
X87199222Y-76142639D01*
X87237461Y-76236811D01*
X87272050Y-76321993D01*
X87283266Y-76349616D01*
X87399987Y-76540088D01*
X87546250Y-76708938D01*
X87550230Y-76712242D01*
X87554981Y-76716187D01*
X87594616Y-76775090D01*
X87596113Y-76846071D01*
X87558997Y-76906593D01*
X87518724Y-76931112D01*
X87403295Y-76974385D01*
X87286739Y-77061739D01*
X87199385Y-77178295D01*
X87148255Y-77314684D01*
X87141500Y-77376866D01*
X87141500Y-79173134D01*
X87148255Y-79235316D01*
X87199385Y-79371705D01*
X87286739Y-79488261D01*
X87403295Y-79575615D01*
X87539684Y-79626745D01*
X87601866Y-79633500D01*
X89398134Y-79633500D01*
X89460316Y-79626745D01*
X89596705Y-79575615D01*
X89713261Y-79488261D01*
X89800615Y-79371705D01*
X89851745Y-79235316D01*
X89858500Y-79173134D01*
X89858500Y-77376866D01*
X89851745Y-77314684D01*
X89800615Y-77178295D01*
X89713261Y-77061739D01*
X89596705Y-76974385D01*
X89562500Y-76961562D01*
X89478203Y-76929960D01*
X89421439Y-76887318D01*
X89396739Y-76820756D01*
X89411947Y-76751408D01*
X89433493Y-76722727D01*
X89534435Y-76622137D01*
X89538096Y-76618489D01*
X89597594Y-76535689D01*
X89665435Y-76441277D01*
X89668453Y-76437077D01*
X89713923Y-76345076D01*
X89765136Y-76241453D01*
X89765137Y-76241451D01*
X89767430Y-76236811D01*
X89809462Y-76098469D01*
X89830865Y-76028023D01*
X89830865Y-76028021D01*
X89832370Y-76023069D01*
X89861529Y-75801590D01*
X89861611Y-75798240D01*
X89863074Y-75738365D01*
X89863074Y-75738361D01*
X89863156Y-75735000D01*
X89844852Y-75512361D01*
X89790431Y-75295702D01*
X89701354Y-75090840D01*
X89580014Y-74903277D01*
X89429670Y-74738051D01*
X89425619Y-74734852D01*
X89425615Y-74734848D01*
X89258414Y-74602800D01*
X89258410Y-74602798D01*
X89254359Y-74599598D01*
X89213053Y-74576796D01*
X89163084Y-74526364D01*
X89148312Y-74456921D01*
X89173428Y-74390516D01*
X89200780Y-74363909D01*
X89244603Y-74332650D01*
X89379860Y-74236173D01*
X89538096Y-74078489D01*
X89597594Y-73995689D01*
X89665435Y-73901277D01*
X89668453Y-73897077D01*
X89767430Y-73696811D01*
X89832370Y-73483069D01*
X89861529Y-73261590D01*
X89863156Y-73195000D01*
X89844852Y-72972361D01*
X89790431Y-72755702D01*
X89701354Y-72550840D01*
X89580014Y-72363277D01*
X89429670Y-72198051D01*
X89425619Y-72194852D01*
X89425615Y-72194848D01*
X89258414Y-72062800D01*
X89258410Y-72062798D01*
X89254359Y-72059598D01*
X89213053Y-72036796D01*
X89163084Y-71986364D01*
X89148312Y-71916921D01*
X89173428Y-71850516D01*
X89200780Y-71823909D01*
X89244603Y-71792650D01*
X89379860Y-71696173D01*
X89538096Y-71538489D01*
X89597594Y-71455689D01*
X89665435Y-71361277D01*
X89668453Y-71357077D01*
X89767430Y-71156811D01*
X89832370Y-70943069D01*
X89861529Y-70721590D01*
X89863156Y-70655000D01*
X89844852Y-70432361D01*
X89790431Y-70215702D01*
X89701354Y-70010840D01*
X89580014Y-69823277D01*
X89429670Y-69658051D01*
X89425619Y-69654852D01*
X89425615Y-69654848D01*
X89258414Y-69522800D01*
X89258410Y-69522798D01*
X89254359Y-69519598D01*
X89213053Y-69496796D01*
X89163084Y-69446364D01*
X89148312Y-69376921D01*
X89173428Y-69310516D01*
X89200780Y-69283909D01*
X89244603Y-69252650D01*
X89379860Y-69156173D01*
X89538096Y-68998489D01*
X89566628Y-68958783D01*
X89665435Y-68821277D01*
X89668453Y-68817077D01*
X89690674Y-68772117D01*
X89765136Y-68621453D01*
X89765137Y-68621451D01*
X89767430Y-68616811D01*
X89832370Y-68403069D01*
X89861529Y-68181590D01*
X89861611Y-68178240D01*
X89863074Y-68118365D01*
X89863074Y-68118361D01*
X89863156Y-68115000D01*
X89844852Y-67892361D01*
X89790431Y-67675702D01*
X89701354Y-67470840D01*
X89580014Y-67283277D01*
X89429670Y-67118051D01*
X89425619Y-67114852D01*
X89425615Y-67114848D01*
X89258414Y-66982800D01*
X89258410Y-66982798D01*
X89254359Y-66979598D01*
X89213053Y-66956796D01*
X89163084Y-66906364D01*
X89148312Y-66836921D01*
X89173428Y-66770516D01*
X89200780Y-66743909D01*
X89244603Y-66712650D01*
X89379860Y-66616173D01*
X89538096Y-66458489D01*
X89597594Y-66375689D01*
X89665435Y-66281277D01*
X89668453Y-66277077D01*
X89767430Y-66076811D01*
X89832370Y-65863069D01*
X89861529Y-65641590D01*
X89863156Y-65575000D01*
X89844852Y-65352361D01*
X89790431Y-65135702D01*
X89701354Y-64930840D01*
X89580014Y-64743277D01*
X89429670Y-64578051D01*
X89425619Y-64574852D01*
X89425615Y-64574848D01*
X89258414Y-64442800D01*
X89258410Y-64442798D01*
X89254359Y-64439598D01*
X89213053Y-64416796D01*
X89163084Y-64366364D01*
X89148312Y-64296921D01*
X89173428Y-64230516D01*
X89200780Y-64203909D01*
X89267213Y-64156523D01*
X89379860Y-64076173D01*
X89538096Y-63918489D01*
X89546907Y-63906228D01*
X89665435Y-63741277D01*
X89668453Y-63737077D01*
X89767430Y-63536811D01*
X89832370Y-63323069D01*
X89861529Y-63101590D01*
X89861632Y-63097371D01*
X89863074Y-63038365D01*
X89863074Y-63038361D01*
X89863156Y-63035000D01*
X89844852Y-62812361D01*
X89790431Y-62595702D01*
X89701354Y-62390840D01*
X89636526Y-62290631D01*
X89582822Y-62207617D01*
X89582820Y-62207614D01*
X89580014Y-62203277D01*
X89429670Y-62038051D01*
X89425619Y-62034852D01*
X89425615Y-62034848D01*
X89258414Y-61902800D01*
X89258410Y-61902798D01*
X89254359Y-61899598D01*
X89213053Y-61876796D01*
X89163084Y-61826364D01*
X89148312Y-61756921D01*
X89173428Y-61690516D01*
X89200780Y-61663909D01*
X89267758Y-61616134D01*
X89379860Y-61536173D01*
X89388543Y-61527521D01*
X89502260Y-61414200D01*
X89538096Y-61378489D01*
X89597594Y-61295689D01*
X89665435Y-61201277D01*
X89668453Y-61197077D01*
X89675314Y-61183196D01*
X89765136Y-61001453D01*
X89765137Y-61001451D01*
X89767430Y-60996811D01*
X89832370Y-60783069D01*
X89861529Y-60561590D01*
X89862714Y-60513099D01*
X89863074Y-60498365D01*
X89863074Y-60498361D01*
X89863156Y-60495000D01*
X89844852Y-60272361D01*
X89790431Y-60055702D01*
X89701354Y-59850840D01*
X89661906Y-59789862D01*
X89582822Y-59667617D01*
X89582820Y-59667614D01*
X89580014Y-59663277D01*
X89429670Y-59498051D01*
X89425619Y-59494852D01*
X89425615Y-59494848D01*
X89258414Y-59362800D01*
X89258410Y-59362798D01*
X89254359Y-59359598D01*
X89213053Y-59336796D01*
X89163084Y-59286364D01*
X89148312Y-59216921D01*
X89173428Y-59150516D01*
X89200780Y-59123909D01*
X89244603Y-59092650D01*
X89379860Y-58996173D01*
X89538096Y-58838489D01*
X89597594Y-58755689D01*
X89665435Y-58661277D01*
X89668453Y-58657077D01*
X89677210Y-58639360D01*
X89765136Y-58461453D01*
X89765137Y-58461451D01*
X89767430Y-58456811D01*
X89832370Y-58243069D01*
X89861529Y-58021590D01*
X89862150Y-57996194D01*
X89863074Y-57958365D01*
X89863074Y-57958361D01*
X89863156Y-57955000D01*
X89844852Y-57732361D01*
X89790431Y-57515702D01*
X89701354Y-57310840D01*
X89661906Y-57249862D01*
X89582822Y-57127617D01*
X89582820Y-57127614D01*
X89580014Y-57123277D01*
X89429670Y-56958051D01*
X89425619Y-56954852D01*
X89425615Y-56954848D01*
X89258414Y-56822800D01*
X89258410Y-56822798D01*
X89254359Y-56819598D01*
X89213053Y-56796796D01*
X89163084Y-56746364D01*
X89148312Y-56676921D01*
X89173428Y-56610516D01*
X89200780Y-56583909D01*
X89257046Y-56543775D01*
X89379860Y-56456173D01*
X89406082Y-56430043D01*
X89499666Y-56336785D01*
X89538096Y-56298489D01*
X89558698Y-56269819D01*
X89665435Y-56121277D01*
X89668453Y-56117077D01*
X89678135Y-56097488D01*
X89765136Y-55921453D01*
X89765137Y-55921451D01*
X89767430Y-55916811D01*
X89832370Y-55703069D01*
X89861529Y-55481590D01*
X89862777Y-55430522D01*
X89863074Y-55418365D01*
X89863074Y-55418361D01*
X89863156Y-55415000D01*
X89844852Y-55192361D01*
X89790431Y-54975702D01*
X89701354Y-54770840D01*
X89594738Y-54606037D01*
X89582822Y-54587617D01*
X89582820Y-54587614D01*
X89580014Y-54583277D01*
X89429670Y-54418051D01*
X89425619Y-54414852D01*
X89425615Y-54414848D01*
X89258414Y-54282800D01*
X89258410Y-54282798D01*
X89254359Y-54279598D01*
X89213053Y-54256796D01*
X89163084Y-54206364D01*
X89148312Y-54136921D01*
X89173428Y-54070516D01*
X89200780Y-54043909D01*
X89244603Y-54012650D01*
X89379860Y-53916173D01*
X89402908Y-53893206D01*
X89534435Y-53762137D01*
X89538096Y-53758489D01*
X89597594Y-53675689D01*
X89665435Y-53581277D01*
X89668453Y-53577077D01*
X89683919Y-53545785D01*
X89765136Y-53381453D01*
X89765137Y-53381451D01*
X89767430Y-53376811D01*
X89813272Y-53225929D01*
X89830865Y-53168023D01*
X89830865Y-53168021D01*
X89832370Y-53163069D01*
X89861529Y-52941590D01*
X89863156Y-52875000D01*
X89844852Y-52652361D01*
X89790431Y-52435702D01*
X89701354Y-52230840D01*
X89661906Y-52169862D01*
X89582822Y-52047617D01*
X89582820Y-52047614D01*
X89580014Y-52043277D01*
X89429670Y-51878051D01*
X89425619Y-51874852D01*
X89425615Y-51874848D01*
X89258414Y-51742800D01*
X89258410Y-51742798D01*
X89254359Y-51739598D01*
X89213053Y-51716796D01*
X89163084Y-51666364D01*
X89148312Y-51596921D01*
X89173428Y-51530516D01*
X89200780Y-51503909D01*
X89244603Y-51472650D01*
X89379860Y-51376173D01*
X89404651Y-51351469D01*
X89534435Y-51222137D01*
X89538096Y-51218489D01*
X89597594Y-51135689D01*
X89665435Y-51041277D01*
X89668453Y-51037077D01*
X89767430Y-50836811D01*
X89832370Y-50623069D01*
X89861529Y-50401590D01*
X89862925Y-50344459D01*
X89863074Y-50338365D01*
X89863074Y-50338361D01*
X89863156Y-50335000D01*
X89844852Y-50112361D01*
X89790431Y-49895702D01*
X89701354Y-49690840D01*
X89580014Y-49503277D01*
X89429670Y-49338051D01*
X89425619Y-49334852D01*
X89425615Y-49334848D01*
X89258414Y-49202800D01*
X89258410Y-49202798D01*
X89254359Y-49199598D01*
X89213053Y-49176796D01*
X89163084Y-49126364D01*
X89148312Y-49056921D01*
X89173428Y-48990516D01*
X89200780Y-48963909D01*
X89244603Y-48932650D01*
X89379860Y-48836173D01*
X89538096Y-48678489D01*
X89597594Y-48595689D01*
X89665435Y-48501277D01*
X89668453Y-48497077D01*
X89761014Y-48309794D01*
X89765136Y-48301453D01*
X89765137Y-48301451D01*
X89767430Y-48296811D01*
X89832370Y-48083069D01*
X89861529Y-47861590D01*
X89863156Y-47795000D01*
X89844852Y-47572361D01*
X89790431Y-47355702D01*
X89701354Y-47150840D01*
X89644356Y-47062735D01*
X89582822Y-46967617D01*
X89582820Y-46967614D01*
X89580014Y-46963277D01*
X89429670Y-46798051D01*
X89425619Y-46794852D01*
X89425615Y-46794848D01*
X89258414Y-46662800D01*
X89258410Y-46662798D01*
X89254359Y-46659598D01*
X89213053Y-46636796D01*
X89163084Y-46586364D01*
X89148312Y-46516921D01*
X89173428Y-46450516D01*
X89200780Y-46423909D01*
X89244603Y-46392650D01*
X89379860Y-46296173D01*
X89538096Y-46138489D01*
X89597594Y-46055689D01*
X89665435Y-45961277D01*
X89668453Y-45957077D01*
X89767430Y-45756811D01*
X89815720Y-45597871D01*
X89830865Y-45548023D01*
X89830865Y-45548021D01*
X89832370Y-45543069D01*
X89861529Y-45321590D01*
X89863156Y-45255000D01*
X89844852Y-45032361D01*
X89790431Y-44815702D01*
X89701354Y-44610840D01*
X89639318Y-44514947D01*
X89582822Y-44427617D01*
X89582820Y-44427614D01*
X89580014Y-44423277D01*
X89429670Y-44258051D01*
X89425619Y-44254852D01*
X89425615Y-44254848D01*
X89258414Y-44122800D01*
X89258410Y-44122798D01*
X89254359Y-44119598D01*
X89213053Y-44096796D01*
X89163084Y-44046364D01*
X89148312Y-43976921D01*
X89173428Y-43910516D01*
X89200780Y-43883909D01*
X89269994Y-43834539D01*
X89379860Y-43756173D01*
X89538096Y-43598489D01*
X89568694Y-43555908D01*
X89665435Y-43421277D01*
X89668453Y-43417077D01*
X89679632Y-43394459D01*
X89765136Y-43221453D01*
X89765137Y-43221451D01*
X89767430Y-43216811D01*
X89832370Y-43003069D01*
X89861529Y-42781590D01*
X89863156Y-42715000D01*
X89844852Y-42492361D01*
X89790431Y-42275702D01*
X89701354Y-42070840D01*
X89633086Y-41965314D01*
X89582822Y-41887617D01*
X89582820Y-41887614D01*
X89580014Y-41883277D01*
X89429670Y-41718051D01*
X89425619Y-41714852D01*
X89425615Y-41714848D01*
X89258414Y-41582800D01*
X89258410Y-41582798D01*
X89254359Y-41579598D01*
X89212569Y-41556529D01*
X89162598Y-41506097D01*
X89147826Y-41436654D01*
X89172942Y-41370248D01*
X89200294Y-41343641D01*
X89375328Y-41218792D01*
X89383200Y-41212139D01*
X89534052Y-41061812D01*
X89540730Y-41053965D01*
X89665003Y-40881020D01*
X89670313Y-40872183D01*
X89764670Y-40681267D01*
X89768469Y-40671672D01*
X89830377Y-40467910D01*
X89832555Y-40457837D01*
X89833986Y-40446962D01*
X89831775Y-40432778D01*
X89818617Y-40429000D01*
X87183225Y-40429000D01*
X87169694Y-40432973D01*
X87168257Y-40442966D01*
X87198565Y-40577446D01*
X87201645Y-40587275D01*
X87281770Y-40784603D01*
X87286413Y-40793794D01*
X87397694Y-40975388D01*
X87403777Y-40983699D01*
X87543213Y-41144667D01*
X87550580Y-41151883D01*
X87714434Y-41287916D01*
X87722881Y-41293831D01*
X87791969Y-41334203D01*
X87840693Y-41385842D01*
X87853764Y-41455625D01*
X87827033Y-41521396D01*
X87786584Y-41554752D01*
X87773607Y-41561507D01*
X87769474Y-41564610D01*
X87769471Y-41564612D01*
X87686859Y-41626639D01*
X87594965Y-41695635D01*
X87440629Y-41857138D01*
X87314743Y-42041680D01*
X87289332Y-42096424D01*
X87231119Y-42221834D01*
X87220688Y-42244305D01*
X87160989Y-42459570D01*
X87137251Y-42681695D01*
X87137548Y-42686848D01*
X87137548Y-42686851D01*
X87145873Y-42831228D01*
X87150110Y-42904715D01*
X87151247Y-42909761D01*
X87151248Y-42909767D01*
X87171119Y-42997939D01*
X87199222Y-43122639D01*
X87283266Y-43329616D01*
X87312088Y-43376650D01*
X87393694Y-43509818D01*
X87399987Y-43520088D01*
X87546250Y-43688938D01*
X87718126Y-43831632D01*
X87723101Y-43834539D01*
X87791445Y-43874476D01*
X87840169Y-43926114D01*
X87853240Y-43995897D01*
X87826509Y-44061669D01*
X87786055Y-44095027D01*
X87773607Y-44101507D01*
X87769474Y-44104610D01*
X87769471Y-44104612D01*
X87599100Y-44232530D01*
X87594965Y-44235635D01*
X87591393Y-44239373D01*
X87497813Y-44337299D01*
X87440629Y-44397138D01*
X87437715Y-44401410D01*
X87437714Y-44401411D01*
X87428650Y-44414698D01*
X87314743Y-44581680D01*
X87220688Y-44784305D01*
X87160989Y-44999570D01*
X87137251Y-45221695D01*
X87137548Y-45226848D01*
X87137548Y-45226851D01*
X87143202Y-45324908D01*
X87150110Y-45444715D01*
X87151247Y-45449761D01*
X87151248Y-45449767D01*
X87158758Y-45483089D01*
X87199222Y-45662639D01*
X87283266Y-45869616D01*
X87399987Y-46060088D01*
X87546250Y-46228938D01*
X87718126Y-46371632D01*
X87788595Y-46412811D01*
X87791445Y-46414476D01*
X87840169Y-46466114D01*
X87853240Y-46535897D01*
X87826509Y-46601669D01*
X87786055Y-46635027D01*
X87773607Y-46641507D01*
X87769474Y-46644610D01*
X87769471Y-46644612D01*
X87670401Y-46718996D01*
X87594965Y-46775635D01*
X87550238Y-46822439D01*
X87448133Y-46929286D01*
X87440629Y-46937138D01*
X87437715Y-46941410D01*
X87437714Y-46941411D01*
X87413814Y-46976447D01*
X87314743Y-47121680D01*
X87299003Y-47155590D01*
X87225032Y-47314947D01*
X87220688Y-47324305D01*
X87160989Y-47539570D01*
X87137251Y-47761695D01*
X87137548Y-47766848D01*
X87137548Y-47766851D01*
X87143011Y-47861590D01*
X87150110Y-47984715D01*
X87151247Y-47989761D01*
X87151248Y-47989767D01*
X87167086Y-48060043D01*
X87199222Y-48202639D01*
X87283266Y-48409616D01*
X87399987Y-48600088D01*
X87546250Y-48768938D01*
X87718126Y-48911632D01*
X87788595Y-48952811D01*
X87791445Y-48954476D01*
X87840169Y-49006114D01*
X87853240Y-49075897D01*
X87826509Y-49141669D01*
X87786055Y-49175027D01*
X87773607Y-49181507D01*
X87769474Y-49184610D01*
X87769471Y-49184612D01*
X87599100Y-49312530D01*
X87594965Y-49315635D01*
X87440629Y-49477138D01*
X87314743Y-49661680D01*
X87220688Y-49864305D01*
X87160989Y-50079570D01*
X87137251Y-50301695D01*
X87137548Y-50306848D01*
X87137548Y-50306851D01*
X87144159Y-50421510D01*
X87150110Y-50524715D01*
X87151247Y-50529761D01*
X87151248Y-50529767D01*
X87171119Y-50617939D01*
X87199222Y-50742639D01*
X87283266Y-50949616D01*
X87399987Y-51140088D01*
X87546250Y-51308938D01*
X87718126Y-51451632D01*
X87772376Y-51483333D01*
X87791445Y-51494476D01*
X87840169Y-51546114D01*
X87853240Y-51615897D01*
X87826509Y-51681669D01*
X87786055Y-51715027D01*
X87773607Y-51721507D01*
X87769474Y-51724610D01*
X87769471Y-51724612D01*
X87606881Y-51846688D01*
X87594965Y-51855635D01*
X87591393Y-51859373D01*
X87444752Y-52012824D01*
X87440629Y-52017138D01*
X87437715Y-52021410D01*
X87437714Y-52021411D01*
X87430575Y-52031877D01*
X87314743Y-52201680D01*
X87220688Y-52404305D01*
X87160989Y-52619570D01*
X87137251Y-52841695D01*
X87137548Y-52846848D01*
X87137548Y-52846851D01*
X87146400Y-53000370D01*
X87150110Y-53064715D01*
X87151247Y-53069761D01*
X87151248Y-53069767D01*
X87164255Y-53127482D01*
X87199222Y-53282639D01*
X87283266Y-53489616D01*
X87399987Y-53680088D01*
X87546250Y-53848938D01*
X87718126Y-53991632D01*
X87775853Y-54025365D01*
X87791445Y-54034476D01*
X87840169Y-54086114D01*
X87853240Y-54155897D01*
X87826509Y-54221669D01*
X87786055Y-54255027D01*
X87773607Y-54261507D01*
X87769474Y-54264610D01*
X87769471Y-54264612D01*
X87599100Y-54392530D01*
X87594965Y-54395635D01*
X87440629Y-54557138D01*
X87314743Y-54741680D01*
X87220688Y-54944305D01*
X87160989Y-55159570D01*
X87137251Y-55381695D01*
X87137548Y-55386848D01*
X87137548Y-55386851D01*
X87149288Y-55590461D01*
X87150110Y-55604715D01*
X87151247Y-55609761D01*
X87151248Y-55609767D01*
X87164012Y-55666403D01*
X87199222Y-55822639D01*
X87241072Y-55925703D01*
X87278628Y-56018193D01*
X87283266Y-56029616D01*
X87319003Y-56087934D01*
X87378314Y-56184720D01*
X87399987Y-56220088D01*
X87546250Y-56388938D01*
X87718126Y-56531632D01*
X87788595Y-56572811D01*
X87791445Y-56574476D01*
X87840169Y-56626114D01*
X87853240Y-56695897D01*
X87826509Y-56761669D01*
X87786055Y-56795027D01*
X87773607Y-56801507D01*
X87769474Y-56804610D01*
X87769471Y-56804612D01*
X87599100Y-56932530D01*
X87594965Y-56935635D01*
X87591393Y-56939373D01*
X87449340Y-57088023D01*
X87440629Y-57097138D01*
X87314743Y-57281680D01*
X87220688Y-57484305D01*
X87160989Y-57699570D01*
X87137251Y-57921695D01*
X87137548Y-57926848D01*
X87137548Y-57926851D01*
X87147503Y-58099498D01*
X87150110Y-58144715D01*
X87151247Y-58149761D01*
X87151248Y-58149767D01*
X87171025Y-58237523D01*
X87199222Y-58362639D01*
X87283266Y-58569616D01*
X87399987Y-58760088D01*
X87546250Y-58928938D01*
X87718126Y-59071632D01*
X87788595Y-59112811D01*
X87791445Y-59114476D01*
X87840169Y-59166114D01*
X87853240Y-59235897D01*
X87826509Y-59301669D01*
X87786055Y-59335027D01*
X87773607Y-59341507D01*
X87769474Y-59344610D01*
X87769471Y-59344612D01*
X87745247Y-59362800D01*
X87594965Y-59475635D01*
X87440629Y-59637138D01*
X87314743Y-59821680D01*
X87220688Y-60024305D01*
X87160989Y-60239570D01*
X87137251Y-60461695D01*
X87137548Y-60466848D01*
X87137548Y-60466851D01*
X87142941Y-60560379D01*
X87150110Y-60684715D01*
X87151247Y-60689761D01*
X87151248Y-60689767D01*
X87165747Y-60754103D01*
X87199222Y-60902639D01*
X87283266Y-61109616D01*
X87285965Y-61114020D01*
X87395215Y-61292300D01*
X87399987Y-61300088D01*
X87546250Y-61468938D01*
X87718126Y-61611632D01*
X87760479Y-61636381D01*
X87791445Y-61654476D01*
X87840169Y-61706114D01*
X87853240Y-61775897D01*
X87826509Y-61841669D01*
X87786055Y-61875027D01*
X87773607Y-61881507D01*
X87769474Y-61884610D01*
X87769471Y-61884612D01*
X87599100Y-62012530D01*
X87594965Y-62015635D01*
X87529346Y-62084301D01*
X87469474Y-62146954D01*
X87440629Y-62177138D01*
X87314743Y-62361680D01*
X87299003Y-62395590D01*
X87230161Y-62543898D01*
X87220688Y-62564305D01*
X87160989Y-62779570D01*
X87137251Y-63001695D01*
X87137548Y-63006848D01*
X87137548Y-63006851D01*
X87146817Y-63167598D01*
X87150110Y-63224715D01*
X87151247Y-63229761D01*
X87151248Y-63229767D01*
X87163667Y-63284872D01*
X87199222Y-63442639D01*
X87283266Y-63649616D01*
X87285965Y-63654020D01*
X87396587Y-63834539D01*
X87399987Y-63840088D01*
X87546250Y-64008938D01*
X87718126Y-64151632D01*
X87760592Y-64176447D01*
X87791445Y-64194476D01*
X87840169Y-64246114D01*
X87853240Y-64315897D01*
X87826509Y-64381669D01*
X87786055Y-64415027D01*
X87773607Y-64421507D01*
X87769474Y-64424610D01*
X87769471Y-64424612D01*
X87663559Y-64504133D01*
X87594965Y-64555635D01*
X87440629Y-64717138D01*
X87314743Y-64901680D01*
X87299003Y-64935590D01*
X87223675Y-65097871D01*
X87220688Y-65104305D01*
X87160989Y-65319570D01*
X87137251Y-65541695D01*
X87137548Y-65546848D01*
X87137548Y-65546851D01*
X87143011Y-65641590D01*
X87150110Y-65764715D01*
X87151247Y-65769761D01*
X87151248Y-65769767D01*
X87171119Y-65857939D01*
X87199222Y-65982639D01*
X87283266Y-66189616D01*
X87399987Y-66380088D01*
X87546250Y-66548938D01*
X87718126Y-66691632D01*
X87788595Y-66732811D01*
X87791445Y-66734476D01*
X87840169Y-66786114D01*
X87853240Y-66855897D01*
X87826509Y-66921669D01*
X87786055Y-66955027D01*
X87773607Y-66961507D01*
X87769474Y-66964610D01*
X87769471Y-66964612D01*
X87745247Y-66982800D01*
X87594965Y-67095635D01*
X87440629Y-67257138D01*
X87314743Y-67441680D01*
X87299003Y-67475590D01*
X87227840Y-67628898D01*
X87220688Y-67644305D01*
X87160989Y-67859570D01*
X87137251Y-68081695D01*
X87137548Y-68086848D01*
X87137548Y-68086851D01*
X87149561Y-68295198D01*
X87150110Y-68304715D01*
X87151247Y-68309761D01*
X87151248Y-68309767D01*
X87152254Y-68314229D01*
X87199222Y-68522639D01*
X87283266Y-68729616D01*
X87285965Y-68734020D01*
X87370426Y-68871848D01*
X87399987Y-68920088D01*
X87546250Y-69088938D01*
X87718126Y-69231632D01*
X87788595Y-69272811D01*
X87791445Y-69274476D01*
X87840169Y-69326114D01*
X87853240Y-69395897D01*
X87826509Y-69461669D01*
X87786055Y-69495027D01*
X87773607Y-69501507D01*
X87769474Y-69504610D01*
X87769471Y-69504612D01*
X87745247Y-69522800D01*
X87594965Y-69635635D01*
X87440629Y-69797138D01*
X87314743Y-69981680D01*
X87220688Y-70184305D01*
X87160989Y-70399570D01*
X87137251Y-70621695D01*
X87137548Y-70626848D01*
X87137548Y-70626851D01*
X87143011Y-70721590D01*
X87150110Y-70844715D01*
X87151247Y-70849761D01*
X87151248Y-70849767D01*
X87171119Y-70937939D01*
X87199222Y-71062639D01*
X87283266Y-71269616D01*
X87399987Y-71460088D01*
X87546250Y-71628938D01*
X87718126Y-71771632D01*
X87788595Y-71812811D01*
X87791445Y-71814476D01*
X87840169Y-71866114D01*
X87853240Y-71935897D01*
X87826509Y-72001669D01*
X87786055Y-72035027D01*
X87773607Y-72041507D01*
X87769474Y-72044610D01*
X87769471Y-72044612D01*
X87745247Y-72062800D01*
X87594965Y-72175635D01*
X87440629Y-72337138D01*
X87314743Y-72521680D01*
X87220688Y-72724305D01*
X87160989Y-72939570D01*
X87137251Y-73161695D01*
X87137548Y-73166848D01*
X87137548Y-73166851D01*
X87143011Y-73261590D01*
X87150110Y-73384715D01*
X87151247Y-73389761D01*
X87151248Y-73389767D01*
X87171119Y-73477939D01*
X87199222Y-73602639D01*
X87283266Y-73809616D01*
X87399987Y-74000088D01*
X87546250Y-74168938D01*
X87718126Y-74311632D01*
X87788595Y-74352811D01*
X87791445Y-74354476D01*
X87840169Y-74406114D01*
X87853240Y-74475897D01*
X87826509Y-74541669D01*
X87786055Y-74575027D01*
X87773607Y-74581507D01*
X87769474Y-74584610D01*
X87769471Y-74584612D01*
X87745247Y-74602800D01*
X87594965Y-74715635D01*
X87440629Y-74877138D01*
X87314743Y-75061680D01*
X87220688Y-75264305D01*
X87160989Y-75479570D01*
X87137251Y-75701695D01*
X82124787Y-75701695D01*
X82121705Y-75699385D01*
X81985316Y-75648255D01*
X81923134Y-75641500D01*
X80126866Y-75641500D01*
X80064684Y-75648255D01*
X79928295Y-75699385D01*
X79811739Y-75786739D01*
X79724385Y-75903295D01*
X79721233Y-75911703D01*
X79721232Y-75911705D01*
X79679722Y-76022433D01*
X79637081Y-76079198D01*
X79570519Y-76103898D01*
X79501170Y-76088691D01*
X79468546Y-76063004D01*
X79417799Y-76007234D01*
X79410273Y-76000215D01*
X79243139Y-75868222D01*
X79234552Y-75862517D01*
X79048117Y-75759599D01*
X79038705Y-75755369D01*
X78837959Y-75684280D01*
X78827988Y-75681646D01*
X78756837Y-75668972D01*
X78743540Y-75670432D01*
X78739000Y-75684989D01*
X78739000Y-78318517D01*
X78231000Y-78318517D01*
X78231000Y-75683102D01*
X78227082Y-75669758D01*
X78212806Y-75667771D01*
X78174324Y-75673660D01*
X78164288Y-75676051D01*
X77961868Y-75742212D01*
X77952359Y-75746209D01*
X77763463Y-75844542D01*
X77754738Y-75850036D01*
X77584433Y-75977905D01*
X77576726Y-75984748D01*
X77429590Y-76138717D01*
X77423109Y-76146722D01*
X77318498Y-76300074D01*
X77263587Y-76345076D01*
X77193062Y-76353247D01*
X77129315Y-76321993D01*
X77108618Y-76297509D01*
X77027822Y-76172617D01*
X77027820Y-76172614D01*
X77025014Y-76168277D01*
X76874670Y-76003051D01*
X76870619Y-75999852D01*
X76870615Y-75999848D01*
X76703414Y-75867800D01*
X76703410Y-75867798D01*
X76699359Y-75864598D01*
X76663028Y-75844542D01*
X76591230Y-75804908D01*
X76503789Y-75756638D01*
X76498920Y-75754914D01*
X76498916Y-75754912D01*
X76298087Y-75683795D01*
X76298083Y-75683794D01*
X76293212Y-75682069D01*
X76288119Y-75681162D01*
X76288116Y-75681161D01*
X76078373Y-75643800D01*
X76078367Y-75643799D01*
X76073284Y-75642894D01*
X75999452Y-75641992D01*
X75855081Y-75640228D01*
X75855079Y-75640228D01*
X75849911Y-75640165D01*
X75629091Y-75673955D01*
X75416756Y-75743357D01*
X75218607Y-75846507D01*
X75214474Y-75849610D01*
X75214471Y-75849612D01*
X75044100Y-75977530D01*
X75039965Y-75980635D01*
X74885629Y-76142138D01*
X74759743Y-76326680D01*
X74665688Y-76529305D01*
X74605989Y-76744570D01*
X74582251Y-76966695D01*
X69851192Y-76966695D01*
X69837500Y-76961562D01*
X69753203Y-76929960D01*
X69696439Y-76887318D01*
X69671739Y-76820756D01*
X69686947Y-76751408D01*
X69708493Y-76722727D01*
X69809435Y-76622137D01*
X69813096Y-76618489D01*
X69872594Y-76535689D01*
X69940435Y-76441277D01*
X69943453Y-76437077D01*
X69988923Y-76345076D01*
X70040136Y-76241453D01*
X70040137Y-76241451D01*
X70042430Y-76236811D01*
X70084462Y-76098469D01*
X70105865Y-76028023D01*
X70105865Y-76028021D01*
X70107370Y-76023069D01*
X70136529Y-75801590D01*
X70136611Y-75798240D01*
X70138074Y-75738365D01*
X70138074Y-75738361D01*
X70138156Y-75735000D01*
X70119852Y-75512361D01*
X70065431Y-75295702D01*
X69976354Y-75090840D01*
X69855014Y-74903277D01*
X69704670Y-74738051D01*
X69700619Y-74734852D01*
X69700615Y-74734848D01*
X69533414Y-74602800D01*
X69533410Y-74602798D01*
X69529359Y-74599598D01*
X69488053Y-74576796D01*
X69438084Y-74526364D01*
X69423312Y-74456921D01*
X69448428Y-74390516D01*
X69475780Y-74363909D01*
X69519603Y-74332650D01*
X69654860Y-74236173D01*
X69813096Y-74078489D01*
X69872594Y-73995689D01*
X69940435Y-73901277D01*
X69943453Y-73897077D01*
X70042430Y-73696811D01*
X70107370Y-73483069D01*
X70136529Y-73261590D01*
X70138156Y-73195000D01*
X70119852Y-72972361D01*
X70065431Y-72755702D01*
X69976354Y-72550840D01*
X69855014Y-72363277D01*
X69704670Y-72198051D01*
X69700619Y-72194852D01*
X69700615Y-72194848D01*
X69533414Y-72062800D01*
X69533410Y-72062798D01*
X69529359Y-72059598D01*
X69488053Y-72036796D01*
X69438084Y-71986364D01*
X69423312Y-71916921D01*
X69448428Y-71850516D01*
X69475780Y-71823909D01*
X69519603Y-71792650D01*
X69654860Y-71696173D01*
X69813096Y-71538489D01*
X69872594Y-71455689D01*
X69940435Y-71361277D01*
X69943453Y-71357077D01*
X70042430Y-71156811D01*
X70107370Y-70943069D01*
X70136529Y-70721590D01*
X70138156Y-70655000D01*
X70119852Y-70432361D01*
X70065431Y-70215702D01*
X69976354Y-70010840D01*
X69855014Y-69823277D01*
X69704670Y-69658051D01*
X69700619Y-69654852D01*
X69700615Y-69654848D01*
X69533414Y-69522800D01*
X69533410Y-69522798D01*
X69529359Y-69519598D01*
X69488053Y-69496796D01*
X69438084Y-69446364D01*
X69423312Y-69376921D01*
X69448428Y-69310516D01*
X69475780Y-69283909D01*
X69519603Y-69252650D01*
X69654860Y-69156173D01*
X69813096Y-68998489D01*
X69841628Y-68958783D01*
X69940435Y-68821277D01*
X69943453Y-68817077D01*
X69965674Y-68772117D01*
X70040136Y-68621453D01*
X70040137Y-68621451D01*
X70042430Y-68616811D01*
X70107370Y-68403069D01*
X70122556Y-68287724D01*
X80697537Y-68287724D01*
X80716355Y-68458173D01*
X80718964Y-68465304D01*
X80718965Y-68465306D01*
X80726890Y-68486962D01*
X80775287Y-68619213D01*
X80870932Y-68761547D01*
X80997767Y-68876958D01*
X81148470Y-68958783D01*
X81314341Y-69002299D01*
X81401788Y-69003672D01*
X81478205Y-69004873D01*
X81478208Y-69004873D01*
X81485804Y-69004992D01*
X81493208Y-69003296D01*
X81493210Y-69003296D01*
X81556048Y-68988904D01*
X81652961Y-68966708D01*
X81806160Y-68889657D01*
X81811931Y-68884728D01*
X81811934Y-68884726D01*
X81930780Y-68783221D01*
X81936557Y-68778287D01*
X82036626Y-68639028D01*
X82100587Y-68479918D01*
X82124749Y-68310145D01*
X82124823Y-68303055D01*
X82124863Y-68299331D01*
X82124863Y-68299325D01*
X82124906Y-68295198D01*
X82104304Y-68124956D01*
X82089906Y-68086851D01*
X82046373Y-67971645D01*
X82043689Y-67964542D01*
X82034877Y-67951721D01*
X81950861Y-67829476D01*
X81950860Y-67829474D01*
X81946559Y-67823217D01*
X81940888Y-67818164D01*
X81824195Y-67714194D01*
X81824192Y-67714192D01*
X81818523Y-67709141D01*
X81810527Y-67704907D01*
X81705498Y-67649297D01*
X81666971Y-67628898D01*
X81649398Y-67624484D01*
X81508024Y-67588973D01*
X81508020Y-67588973D01*
X81500653Y-67587122D01*
X81493054Y-67587082D01*
X81493052Y-67587082D01*
X81421596Y-67586708D01*
X81329171Y-67586224D01*
X81321791Y-67587996D01*
X81321789Y-67587996D01*
X81169804Y-67624484D01*
X81169800Y-67624485D01*
X81162425Y-67626256D01*
X81010041Y-67704907D01*
X80880817Y-67817637D01*
X80782212Y-67957937D01*
X80751066Y-68037822D01*
X80733961Y-68081695D01*
X80719920Y-68117707D01*
X80718928Y-68125240D01*
X80718928Y-68125241D01*
X80711510Y-68181590D01*
X80697537Y-68287724D01*
X70122556Y-68287724D01*
X70136529Y-68181590D01*
X70136611Y-68178240D01*
X70138074Y-68118365D01*
X70138074Y-68118361D01*
X70138156Y-68115000D01*
X70119852Y-67892361D01*
X70065431Y-67675702D01*
X69976354Y-67470840D01*
X69855014Y-67283277D01*
X69704670Y-67118051D01*
X69700619Y-67114852D01*
X69700615Y-67114848D01*
X69533414Y-66982800D01*
X69533410Y-66982798D01*
X69529359Y-66979598D01*
X69488053Y-66956796D01*
X69438084Y-66906364D01*
X69423312Y-66836921D01*
X69448428Y-66770516D01*
X69475780Y-66743909D01*
X69519603Y-66712650D01*
X69654860Y-66616173D01*
X69813096Y-66458489D01*
X69872594Y-66375689D01*
X69940435Y-66281277D01*
X69943453Y-66277077D01*
X70042430Y-66076811D01*
X70107370Y-65863069D01*
X70136529Y-65641590D01*
X70138156Y-65575000D01*
X70119852Y-65352361D01*
X70065431Y-65135702D01*
X69976354Y-64930840D01*
X69855014Y-64743277D01*
X69704670Y-64578051D01*
X69700619Y-64574852D01*
X69700615Y-64574848D01*
X69596378Y-64492526D01*
X79186335Y-64492526D01*
X79205153Y-64662975D01*
X79207762Y-64670106D01*
X79207763Y-64670108D01*
X79215688Y-64691764D01*
X79264085Y-64824015D01*
X79359730Y-64966349D01*
X79486565Y-65081760D01*
X79637268Y-65163585D01*
X79803139Y-65207101D01*
X79890586Y-65208474D01*
X79967003Y-65209675D01*
X79967006Y-65209675D01*
X79974602Y-65209794D01*
X79982006Y-65208098D01*
X79982008Y-65208098D01*
X80044846Y-65193706D01*
X80141759Y-65171510D01*
X80294958Y-65094459D01*
X80300729Y-65089530D01*
X80300732Y-65089528D01*
X80419578Y-64988023D01*
X80425355Y-64983089D01*
X80525424Y-64843830D01*
X80589385Y-64684720D01*
X80605022Y-64574848D01*
X80612966Y-64519031D01*
X80612966Y-64519027D01*
X80613547Y-64514947D01*
X80613704Y-64500000D01*
X80593102Y-64329758D01*
X80587865Y-64315897D01*
X80535171Y-64176447D01*
X80532487Y-64169344D01*
X80470513Y-64079171D01*
X80439659Y-64034278D01*
X80439658Y-64034276D01*
X80435357Y-64028019D01*
X80429686Y-64022966D01*
X80312993Y-63918996D01*
X80312990Y-63918994D01*
X80307321Y-63913943D01*
X80299325Y-63909709D01*
X80175203Y-63843990D01*
X80155769Y-63833700D01*
X80138196Y-63829286D01*
X79996822Y-63793775D01*
X79996818Y-63793775D01*
X79989451Y-63791924D01*
X79981852Y-63791884D01*
X79981850Y-63791884D01*
X79910394Y-63791510D01*
X79817969Y-63791026D01*
X79810589Y-63792798D01*
X79810587Y-63792798D01*
X79658602Y-63829286D01*
X79658598Y-63829287D01*
X79651223Y-63831058D01*
X79498839Y-63909709D01*
X79369615Y-64022439D01*
X79271010Y-64162739D01*
X79254184Y-64205896D01*
X79215867Y-64304174D01*
X79208718Y-64322509D01*
X79207726Y-64330042D01*
X79207726Y-64330043D01*
X79192882Y-64442800D01*
X79186335Y-64492526D01*
X69596378Y-64492526D01*
X69533414Y-64442800D01*
X69533410Y-64442798D01*
X69529359Y-64439598D01*
X69488053Y-64416796D01*
X69438084Y-64366364D01*
X69423312Y-64296921D01*
X69448428Y-64230516D01*
X69475780Y-64203909D01*
X69542213Y-64156523D01*
X69654860Y-64076173D01*
X69813096Y-63918489D01*
X69821907Y-63906228D01*
X69940435Y-63741277D01*
X69943453Y-63737077D01*
X70042430Y-63536811D01*
X70107370Y-63323069D01*
X70136529Y-63101590D01*
X70136632Y-63097371D01*
X70138074Y-63038365D01*
X70138074Y-63038361D01*
X70138156Y-63035000D01*
X70119852Y-62812361D01*
X70065431Y-62595702D01*
X69976354Y-62390840D01*
X69911526Y-62290631D01*
X69857822Y-62207617D01*
X69857820Y-62207614D01*
X69855014Y-62203277D01*
X69704670Y-62038051D01*
X69700619Y-62034852D01*
X69700615Y-62034848D01*
X69533414Y-61902800D01*
X69533410Y-61902798D01*
X69529359Y-61899598D01*
X69488053Y-61876796D01*
X69438084Y-61826364D01*
X69423312Y-61756921D01*
X69448428Y-61690516D01*
X69475780Y-61663909D01*
X69542758Y-61616134D01*
X69654860Y-61536173D01*
X69663543Y-61527521D01*
X69777260Y-61414200D01*
X69813096Y-61378489D01*
X69872594Y-61295689D01*
X69940435Y-61201277D01*
X69943453Y-61197077D01*
X69950314Y-61183196D01*
X70040136Y-61001453D01*
X70040137Y-61001451D01*
X70042430Y-60996811D01*
X70043732Y-60992526D01*
X75036335Y-60992526D01*
X75045744Y-61077750D01*
X75053540Y-61148364D01*
X75055153Y-61162975D01*
X75057762Y-61170106D01*
X75057763Y-61170108D01*
X75069169Y-61201277D01*
X75114085Y-61324015D01*
X75118322Y-61330321D01*
X75118324Y-61330324D01*
X75162621Y-61396244D01*
X75209730Y-61466349D01*
X75215345Y-61471458D01*
X75215350Y-61471464D01*
X75329949Y-61575741D01*
X75366871Y-61636381D01*
X75367189Y-61699965D01*
X75364663Y-61706445D01*
X75358305Y-61754741D01*
X75346646Y-61843301D01*
X75342280Y-61876462D01*
X75346271Y-61912610D01*
X75360120Y-62038051D01*
X75361098Y-62046911D01*
X75363707Y-62054042D01*
X75363708Y-62054044D01*
X75371633Y-62075700D01*
X75420030Y-62207951D01*
X75515675Y-62350285D01*
X75555466Y-62386492D01*
X75618602Y-62443941D01*
X75642510Y-62465696D01*
X75793213Y-62547521D01*
X75959084Y-62591037D01*
X76046531Y-62592410D01*
X76122948Y-62593611D01*
X76122951Y-62593611D01*
X76130547Y-62593730D01*
X76137951Y-62592034D01*
X76137953Y-62592034D01*
X76237227Y-62569297D01*
X76297704Y-62555446D01*
X76450903Y-62478395D01*
X76456674Y-62473466D01*
X76456677Y-62473464D01*
X76575523Y-62371959D01*
X76581300Y-62367025D01*
X76681369Y-62227766D01*
X76745330Y-62068656D01*
X76756236Y-61992028D01*
X77986335Y-61992028D01*
X77991838Y-62041870D01*
X78003699Y-62149306D01*
X78005153Y-62162477D01*
X78007762Y-62169608D01*
X78007763Y-62169610D01*
X78021672Y-62207617D01*
X78064085Y-62323517D01*
X78068322Y-62329823D01*
X78068324Y-62329826D01*
X78093321Y-62367025D01*
X78159730Y-62465851D01*
X78223148Y-62523557D01*
X78273416Y-62569297D01*
X78286565Y-62581262D01*
X78437268Y-62663087D01*
X78444611Y-62665014D01*
X78444615Y-62665015D01*
X78448339Y-62665992D01*
X78450750Y-62667444D01*
X78451679Y-62667812D01*
X78451618Y-62667967D01*
X78509155Y-62702624D01*
X78534694Y-62744567D01*
X78563585Y-62823515D01*
X78659230Y-62965849D01*
X78786065Y-63081260D01*
X78936768Y-63163085D01*
X79102639Y-63206601D01*
X79190086Y-63207974D01*
X79266503Y-63209175D01*
X79266506Y-63209175D01*
X79274102Y-63209294D01*
X79281506Y-63207598D01*
X79281508Y-63207598D01*
X79344346Y-63193206D01*
X79441259Y-63171010D01*
X79594458Y-63093959D01*
X79600231Y-63089028D01*
X79600236Y-63089025D01*
X79712242Y-62993363D01*
X79777031Y-62964332D01*
X79847231Y-62974937D01*
X79898651Y-63018895D01*
X79944843Y-63087636D01*
X80008261Y-63145342D01*
X80038333Y-63172705D01*
X80071678Y-63203047D01*
X80222381Y-63284872D01*
X80388252Y-63328388D01*
X80475699Y-63329761D01*
X80552116Y-63330962D01*
X80552119Y-63330962D01*
X80559715Y-63331081D01*
X80567119Y-63329385D01*
X80567121Y-63329385D01*
X80629959Y-63314993D01*
X80726872Y-63292797D01*
X80880071Y-63215746D01*
X80885842Y-63210817D01*
X80885845Y-63210815D01*
X81004691Y-63109310D01*
X81010468Y-63104376D01*
X81110537Y-62965117D01*
X81174498Y-62806007D01*
X81177529Y-62784707D01*
X81198079Y-62640318D01*
X81198079Y-62640314D01*
X81198660Y-62636234D01*
X81198817Y-62621287D01*
X81180928Y-62473464D01*
X81179128Y-62458586D01*
X81179127Y-62458583D01*
X81178215Y-62451045D01*
X81157261Y-62395590D01*
X81120284Y-62297734D01*
X81117600Y-62290631D01*
X81042535Y-62181411D01*
X81024772Y-62155565D01*
X81024771Y-62155563D01*
X81020470Y-62149306D01*
X81014799Y-62144253D01*
X80898106Y-62040283D01*
X80898103Y-62040281D01*
X80892434Y-62035230D01*
X80884438Y-62030996D01*
X80747594Y-61958541D01*
X80747595Y-61958541D01*
X80740882Y-61954987D01*
X80691814Y-61942662D01*
X80630619Y-61906666D01*
X80598599Y-61843301D01*
X80605920Y-61772682D01*
X80650258Y-61717233D01*
X80724489Y-61694474D01*
X80747005Y-61694828D01*
X80762003Y-61695064D01*
X80762006Y-61695064D01*
X80769601Y-61695183D01*
X80777005Y-61693487D01*
X80777007Y-61693487D01*
X80853572Y-61675951D01*
X80936758Y-61656899D01*
X81089957Y-61579848D01*
X81095728Y-61574919D01*
X81095731Y-61574917D01*
X81214577Y-61473412D01*
X81220354Y-61468478D01*
X81320423Y-61329219D01*
X81384384Y-61170109D01*
X81393675Y-61104829D01*
X81407965Y-61004420D01*
X81407965Y-61004416D01*
X81408546Y-61000336D01*
X81408703Y-60985389D01*
X81389904Y-60830043D01*
X81389014Y-60822688D01*
X81389013Y-60822685D01*
X81388101Y-60815147D01*
X81383182Y-60802127D01*
X81330170Y-60661836D01*
X81327486Y-60654733D01*
X81323182Y-60648470D01*
X81299420Y-60613895D01*
X81277320Y-60546426D01*
X81280996Y-60514713D01*
X81281645Y-60513099D01*
X81295038Y-60418996D01*
X81305226Y-60347410D01*
X81305226Y-60347406D01*
X81305807Y-60343326D01*
X81305964Y-60328379D01*
X81301444Y-60291026D01*
X81286275Y-60165678D01*
X81286274Y-60165675D01*
X81285362Y-60158137D01*
X81248552Y-60060720D01*
X81227431Y-60004826D01*
X81224747Y-59997723D01*
X81127617Y-59856398D01*
X81121379Y-59850840D01*
X81005253Y-59747375D01*
X81005250Y-59747373D01*
X80999581Y-59742322D01*
X80991585Y-59738088D01*
X80854741Y-59665633D01*
X80854742Y-59665633D01*
X80848029Y-59662079D01*
X80840664Y-59660229D01*
X80689082Y-59622154D01*
X80689078Y-59622154D01*
X80681711Y-59620303D01*
X80674112Y-59620263D01*
X80674110Y-59620263D01*
X80602654Y-59619889D01*
X80510229Y-59619405D01*
X80502849Y-59621177D01*
X80502847Y-59621177D01*
X80350862Y-59657665D01*
X80350858Y-59657666D01*
X80343483Y-59659437D01*
X80191099Y-59738088D01*
X80061875Y-59850818D01*
X79963270Y-59991118D01*
X79900978Y-60150888D01*
X79899986Y-60158421D01*
X79899986Y-60158422D01*
X79882167Y-60293775D01*
X79878595Y-60320905D01*
X79888004Y-60406129D01*
X79894708Y-60466851D01*
X79897413Y-60491354D01*
X79900022Y-60498485D01*
X79900023Y-60498487D01*
X79908788Y-60522439D01*
X79956345Y-60652394D01*
X79988683Y-60700517D01*
X80010074Y-60768212D01*
X80006215Y-60801492D01*
X80003717Y-60807898D01*
X79981334Y-60977915D01*
X79990743Y-61063140D01*
X79995346Y-61104829D01*
X80000152Y-61148364D01*
X80002761Y-61155495D01*
X80002762Y-61155497D01*
X80013456Y-61184720D01*
X80059084Y-61309404D01*
X80063321Y-61315710D01*
X80063323Y-61315713D01*
X80075639Y-61334041D01*
X80154729Y-61451738D01*
X80218146Y-61509443D01*
X80250817Y-61539171D01*
X80281564Y-61567149D01*
X80432267Y-61648974D01*
X80439606Y-61650899D01*
X80439615Y-61650903D01*
X80492347Y-61664737D01*
X80553162Y-61701371D01*
X80584517Y-61765068D01*
X80576456Y-61835606D01*
X80531540Y-61890588D01*
X80459712Y-61912610D01*
X80403082Y-61912313D01*
X80395702Y-61914085D01*
X80395700Y-61914085D01*
X80243715Y-61950573D01*
X80243711Y-61950574D01*
X80236336Y-61952345D01*
X80083952Y-62030996D01*
X79973769Y-62127116D01*
X79909288Y-62156823D01*
X79838981Y-62146954D01*
X79787100Y-62103533D01*
X79739159Y-62033778D01*
X79739158Y-62033776D01*
X79734857Y-62027519D01*
X79729186Y-62022466D01*
X79612493Y-61918496D01*
X79612490Y-61918494D01*
X79606821Y-61913443D01*
X79587036Y-61902967D01*
X79461983Y-61836755D01*
X79461984Y-61836755D01*
X79455269Y-61833200D01*
X79447903Y-61831350D01*
X79440808Y-61828626D01*
X79441708Y-61826283D01*
X79390931Y-61796426D01*
X79364944Y-61754741D01*
X79335172Y-61675951D01*
X79335171Y-61675949D01*
X79332487Y-61668846D01*
X79293165Y-61611632D01*
X79239659Y-61533780D01*
X79239658Y-61533778D01*
X79235357Y-61527521D01*
X79229686Y-61522468D01*
X79112993Y-61418498D01*
X79112990Y-61418496D01*
X79107321Y-61413445D01*
X79099325Y-61409211D01*
X78962481Y-61336756D01*
X78962482Y-61336756D01*
X78955769Y-61333202D01*
X78919194Y-61324015D01*
X78796822Y-61293277D01*
X78796818Y-61293277D01*
X78789451Y-61291426D01*
X78781852Y-61291386D01*
X78781850Y-61291386D01*
X78710394Y-61291012D01*
X78617969Y-61290528D01*
X78610589Y-61292300D01*
X78610587Y-61292300D01*
X78458602Y-61328788D01*
X78458598Y-61328789D01*
X78451223Y-61330560D01*
X78298839Y-61409211D01*
X78169615Y-61521941D01*
X78071010Y-61662241D01*
X78048009Y-61721235D01*
X78027951Y-61772682D01*
X78008718Y-61822011D01*
X78007726Y-61829544D01*
X78007726Y-61829545D01*
X77990744Y-61958541D01*
X77986335Y-61992028D01*
X76756236Y-61992028D01*
X76768911Y-61902967D01*
X76768911Y-61902963D01*
X76769492Y-61898883D01*
X76769649Y-61883936D01*
X76759059Y-61796426D01*
X76749960Y-61721235D01*
X76749959Y-61721232D01*
X76749047Y-61713694D01*
X76742053Y-61695183D01*
X76691116Y-61560383D01*
X76688432Y-61553280D01*
X76670728Y-61527521D01*
X76595604Y-61418214D01*
X76595603Y-61418212D01*
X76591302Y-61411955D01*
X76584316Y-61405730D01*
X76476737Y-61309881D01*
X76439181Y-61249631D01*
X76438863Y-61186018D01*
X76439385Y-61184720D01*
X76463547Y-61014947D01*
X76463704Y-61000000D01*
X76451922Y-60902639D01*
X76444015Y-60837299D01*
X76444014Y-60837296D01*
X76443102Y-60829758D01*
X76423522Y-60777939D01*
X76385171Y-60676447D01*
X76382487Y-60669344D01*
X76308430Y-60561590D01*
X76289659Y-60534278D01*
X76289658Y-60534276D01*
X76285357Y-60528019D01*
X76279686Y-60522966D01*
X76162993Y-60418996D01*
X76162990Y-60418994D01*
X76157321Y-60413943D01*
X76149325Y-60409709D01*
X76096723Y-60381858D01*
X76005769Y-60333700D01*
X75984585Y-60328379D01*
X75846822Y-60293775D01*
X75846818Y-60293775D01*
X75839451Y-60291924D01*
X75831852Y-60291884D01*
X75831850Y-60291884D01*
X75760394Y-60291510D01*
X75667969Y-60291026D01*
X75660589Y-60292798D01*
X75660587Y-60292798D01*
X75508602Y-60329286D01*
X75508598Y-60329287D01*
X75501223Y-60331058D01*
X75348839Y-60409709D01*
X75219615Y-60522439D01*
X75121010Y-60662739D01*
X75114457Y-60679547D01*
X75064415Y-60807898D01*
X75058718Y-60822509D01*
X75057726Y-60830042D01*
X75057726Y-60830043D01*
X75038259Y-60977915D01*
X75036335Y-60992526D01*
X70043732Y-60992526D01*
X70107370Y-60783069D01*
X70136529Y-60561590D01*
X70137714Y-60513099D01*
X70138074Y-60498365D01*
X70138074Y-60498361D01*
X70138156Y-60495000D01*
X70119852Y-60272361D01*
X70065431Y-60055702D01*
X69976354Y-59850840D01*
X69936906Y-59789862D01*
X69857822Y-59667617D01*
X69857820Y-59667614D01*
X69855014Y-59663277D01*
X69704670Y-59498051D01*
X69700619Y-59494852D01*
X69700615Y-59494848D01*
X69533414Y-59362800D01*
X69533410Y-59362798D01*
X69529359Y-59359598D01*
X69488053Y-59336796D01*
X69438084Y-59286364D01*
X69423312Y-59216921D01*
X69448428Y-59150516D01*
X69475780Y-59123909D01*
X69519603Y-59092650D01*
X69654860Y-58996173D01*
X69813096Y-58838489D01*
X69872594Y-58755689D01*
X69940435Y-58661277D01*
X69943453Y-58657077D01*
X69952210Y-58639360D01*
X70040136Y-58461453D01*
X70040137Y-58461451D01*
X70042430Y-58456811D01*
X70107370Y-58243069D01*
X70136529Y-58021590D01*
X70137150Y-57996194D01*
X70138074Y-57958365D01*
X70138074Y-57958361D01*
X70138156Y-57955000D01*
X70135590Y-57923788D01*
X75346756Y-57923788D01*
X75352811Y-57978633D01*
X75363983Y-58079824D01*
X75365574Y-58094237D01*
X75368183Y-58101368D01*
X75368184Y-58101370D01*
X75382616Y-58140808D01*
X75424506Y-58255277D01*
X75428743Y-58261583D01*
X75428745Y-58261586D01*
X75437821Y-58275092D01*
X75520151Y-58397611D01*
X75646986Y-58513022D01*
X75797689Y-58594847D01*
X75963560Y-58638363D01*
X76051007Y-58639736D01*
X76127424Y-58640937D01*
X76127427Y-58640937D01*
X76135023Y-58641056D01*
X76142427Y-58639360D01*
X76142429Y-58639360D01*
X76205267Y-58624968D01*
X76302180Y-58602772D01*
X76455379Y-58525721D01*
X76461150Y-58520792D01*
X76461153Y-58520790D01*
X76579999Y-58419285D01*
X76585776Y-58414351D01*
X76685845Y-58275092D01*
X76688676Y-58268048D01*
X76688680Y-58268042D01*
X76708075Y-58219795D01*
X76752042Y-58164051D01*
X76819167Y-58140926D01*
X76826960Y-58140808D01*
X76867003Y-58141437D01*
X76867006Y-58141437D01*
X76874602Y-58141556D01*
X76882006Y-58139860D01*
X76882008Y-58139860D01*
X76944846Y-58125468D01*
X77041759Y-58103272D01*
X77194958Y-58026221D01*
X77233182Y-57993575D01*
X77297969Y-57964545D01*
X77368169Y-57975150D01*
X77399810Y-57996194D01*
X77418853Y-58013522D01*
X77569556Y-58095347D01*
X77735427Y-58138863D01*
X77822874Y-58140236D01*
X77899291Y-58141437D01*
X77899294Y-58141437D01*
X77906890Y-58141556D01*
X77914294Y-58139860D01*
X77914296Y-58139860D01*
X77977134Y-58125468D01*
X78074047Y-58103272D01*
X78227246Y-58026221D01*
X78233017Y-58021292D01*
X78233020Y-58021290D01*
X78351866Y-57919785D01*
X78357643Y-57914851D01*
X78401942Y-57853203D01*
X78457937Y-57809556D01*
X78528640Y-57803110D01*
X78577251Y-57824022D01*
X78580949Y-57826650D01*
X78586565Y-57831760D01*
X78737268Y-57913585D01*
X78903139Y-57957101D01*
X78932710Y-57957565D01*
X79000507Y-57978633D01*
X79046153Y-58033011D01*
X79049058Y-58040248D01*
X79061232Y-58073515D01*
X79065469Y-58079821D01*
X79065471Y-58079824D01*
X79078692Y-58099498D01*
X79156877Y-58215849D01*
X79283712Y-58331260D01*
X79434415Y-58413085D01*
X79600286Y-58456601D01*
X79687733Y-58457974D01*
X79764150Y-58459175D01*
X79764153Y-58459175D01*
X79771749Y-58459294D01*
X79779153Y-58457598D01*
X79779155Y-58457598D01*
X79841993Y-58443206D01*
X79938906Y-58421010D01*
X80092105Y-58343959D01*
X80097876Y-58339030D01*
X80097879Y-58339028D01*
X80216725Y-58237523D01*
X80222502Y-58232589D01*
X80322571Y-58093330D01*
X80386532Y-57934220D01*
X80389045Y-57916562D01*
X80410113Y-57768531D01*
X80410113Y-57768527D01*
X80410694Y-57764447D01*
X80410768Y-57757357D01*
X80410808Y-57753633D01*
X80410808Y-57753627D01*
X80410851Y-57749500D01*
X80392890Y-57601081D01*
X80391162Y-57586799D01*
X80391161Y-57586796D01*
X80390249Y-57579258D01*
X80368130Y-57520720D01*
X80332318Y-57425947D01*
X80329634Y-57418844D01*
X80279542Y-57345960D01*
X80236806Y-57283778D01*
X80236805Y-57283776D01*
X80232504Y-57277519D01*
X80215445Y-57262320D01*
X80110140Y-57168496D01*
X80110137Y-57168494D01*
X80104468Y-57163443D01*
X79952916Y-57083200D01*
X79945551Y-57081350D01*
X79793969Y-57043275D01*
X79793965Y-57043275D01*
X79786598Y-57041424D01*
X79778998Y-57041384D01*
X79778997Y-57041384D01*
X79772366Y-57041349D01*
X79764999Y-57041311D01*
X79696985Y-57020953D01*
X79650773Y-56967055D01*
X79647793Y-56959850D01*
X79635172Y-56926449D01*
X79635171Y-56926447D01*
X79632487Y-56919344D01*
X79618436Y-56898900D01*
X79539659Y-56784278D01*
X79539658Y-56784276D01*
X79535357Y-56778019D01*
X79529686Y-56772966D01*
X79412993Y-56668996D01*
X79412990Y-56668994D01*
X79407321Y-56663943D01*
X79399325Y-56659709D01*
X79262481Y-56587254D01*
X79262482Y-56587254D01*
X79255769Y-56583700D01*
X79219047Y-56574476D01*
X79096822Y-56543775D01*
X79096818Y-56543775D01*
X79089451Y-56541924D01*
X79081852Y-56541884D01*
X79081850Y-56541884D01*
X79010394Y-56541510D01*
X78917969Y-56541026D01*
X78910589Y-56542798D01*
X78910587Y-56542798D01*
X78758602Y-56579286D01*
X78758598Y-56579287D01*
X78751223Y-56581058D01*
X78598839Y-56659709D01*
X78469615Y-56772439D01*
X78460984Y-56784720D01*
X78430700Y-56827809D01*
X78375165Y-56872041D01*
X78304533Y-56879226D01*
X78252489Y-56853698D01*
X78251519Y-56855094D01*
X78245281Y-56850758D01*
X78239609Y-56845705D01*
X78231613Y-56841471D01*
X78143895Y-56795027D01*
X78088057Y-56765462D01*
X78077539Y-56762820D01*
X77929110Y-56725537D01*
X77929106Y-56725537D01*
X77921739Y-56723686D01*
X77914140Y-56723646D01*
X77914138Y-56723646D01*
X77842682Y-56723272D01*
X77750257Y-56722788D01*
X77742877Y-56724560D01*
X77742875Y-56724560D01*
X77590890Y-56761048D01*
X77590886Y-56761049D01*
X77583511Y-56762820D01*
X77431127Y-56841471D01*
X77425405Y-56846463D01*
X77425403Y-56846464D01*
X77399352Y-56869190D01*
X77334870Y-56898900D01*
X77264563Y-56889031D01*
X77232706Y-56868322D01*
X77207321Y-56845705D01*
X77199325Y-56841471D01*
X77111607Y-56795027D01*
X77055769Y-56765462D01*
X77045251Y-56762820D01*
X76896822Y-56725537D01*
X76896818Y-56725537D01*
X76889451Y-56723686D01*
X76881852Y-56723646D01*
X76881850Y-56723646D01*
X76810394Y-56723272D01*
X76717969Y-56722788D01*
X76710589Y-56724560D01*
X76710587Y-56724560D01*
X76558602Y-56761048D01*
X76558598Y-56761049D01*
X76551223Y-56762820D01*
X76398839Y-56841471D01*
X76269615Y-56954201D01*
X76171010Y-57094501D01*
X76168251Y-57101577D01*
X76168249Y-57101581D01*
X76152353Y-57142353D01*
X76108972Y-57198555D01*
X76042093Y-57222381D01*
X76034310Y-57222581D01*
X75978390Y-57222288D01*
X75971010Y-57224060D01*
X75971008Y-57224060D01*
X75819023Y-57260548D01*
X75819019Y-57260549D01*
X75811644Y-57262320D01*
X75659260Y-57340971D01*
X75530036Y-57453701D01*
X75431431Y-57594001D01*
X75428671Y-57601081D01*
X75392214Y-57694588D01*
X75369139Y-57753771D01*
X75368147Y-57761304D01*
X75368147Y-57761305D01*
X75347846Y-57915511D01*
X75346756Y-57923788D01*
X70135590Y-57923788D01*
X70119852Y-57732361D01*
X70065431Y-57515702D01*
X69976354Y-57310840D01*
X69936906Y-57249862D01*
X69857822Y-57127617D01*
X69857820Y-57127614D01*
X69855014Y-57123277D01*
X69704670Y-56958051D01*
X69700619Y-56954852D01*
X69700615Y-56954848D01*
X69533414Y-56822800D01*
X69533410Y-56822798D01*
X69529359Y-56819598D01*
X69488053Y-56796796D01*
X69438084Y-56746364D01*
X69423312Y-56676921D01*
X69448428Y-56610516D01*
X69466922Y-56592526D01*
X74286335Y-56592526D01*
X74295055Y-56671510D01*
X74301020Y-56725537D01*
X74305153Y-56762975D01*
X74307762Y-56770106D01*
X74307763Y-56770108D01*
X74320390Y-56804612D01*
X74364085Y-56924015D01*
X74368322Y-56930321D01*
X74368324Y-56930324D01*
X74393007Y-56967055D01*
X74459730Y-57066349D01*
X74586565Y-57181760D01*
X74737268Y-57263585D01*
X74903139Y-57307101D01*
X74990586Y-57308474D01*
X75067003Y-57309675D01*
X75067006Y-57309675D01*
X75074602Y-57309794D01*
X75082006Y-57308098D01*
X75082008Y-57308098D01*
X75144846Y-57293706D01*
X75241759Y-57271510D01*
X75394958Y-57194459D01*
X75400729Y-57189530D01*
X75400732Y-57189528D01*
X75519578Y-57088023D01*
X75525355Y-57083089D01*
X75625424Y-56943830D01*
X75689385Y-56784720D01*
X75698077Y-56723646D01*
X75712966Y-56619031D01*
X75712966Y-56619027D01*
X75713547Y-56614947D01*
X75713704Y-56600000D01*
X75705430Y-56531632D01*
X75694015Y-56437299D01*
X75694014Y-56437296D01*
X75693102Y-56429758D01*
X75678926Y-56392240D01*
X75635171Y-56276447D01*
X75632487Y-56269344D01*
X75628188Y-56263089D01*
X75628185Y-56263083D01*
X75626974Y-56261322D01*
X75626488Y-56259838D01*
X75624666Y-56256353D01*
X75625247Y-56256049D01*
X75604872Y-56193854D01*
X75622756Y-56125146D01*
X75628490Y-56116426D01*
X75689584Y-56031406D01*
X75689585Y-56031405D01*
X75694016Y-56025238D01*
X75734029Y-55925702D01*
X75777995Y-55869959D01*
X75845120Y-55846833D01*
X75893872Y-55854972D01*
X75895174Y-55855679D01*
X76061045Y-55899195D01*
X76148492Y-55900568D01*
X76224909Y-55901769D01*
X76224912Y-55901769D01*
X76232508Y-55901888D01*
X76239912Y-55900192D01*
X76239914Y-55900192D01*
X76302752Y-55885800D01*
X76399665Y-55863604D01*
X76552864Y-55786553D01*
X76558635Y-55781624D01*
X76558638Y-55781622D01*
X76591882Y-55753229D01*
X77025632Y-55753229D01*
X77034862Y-55836833D01*
X77043145Y-55911857D01*
X77044450Y-55923678D01*
X77047059Y-55930809D01*
X77047060Y-55930811D01*
X77054985Y-55952467D01*
X77103382Y-56084718D01*
X77107619Y-56091024D01*
X77107621Y-56091027D01*
X77150895Y-56155425D01*
X77199027Y-56227052D01*
X77238625Y-56263083D01*
X77297746Y-56316879D01*
X77325862Y-56342463D01*
X77476565Y-56424288D01*
X77642436Y-56467804D01*
X77729883Y-56469177D01*
X77806300Y-56470378D01*
X77806303Y-56470378D01*
X77813899Y-56470497D01*
X77821303Y-56468801D01*
X77821305Y-56468801D01*
X77884143Y-56454409D01*
X77981056Y-56432213D01*
X78134255Y-56355162D01*
X78140026Y-56350233D01*
X78140029Y-56350231D01*
X78258875Y-56248726D01*
X78264652Y-56243792D01*
X78364721Y-56104533D01*
X78409747Y-55992526D01*
X81103835Y-55992526D01*
X81108416Y-56034020D01*
X81118477Y-56125146D01*
X81122653Y-56162975D01*
X81125262Y-56170106D01*
X81125263Y-56170108D01*
X81133188Y-56191764D01*
X81181585Y-56324015D01*
X81185822Y-56330321D01*
X81185824Y-56330324D01*
X81202515Y-56355162D01*
X81277230Y-56466349D01*
X81404065Y-56581760D01*
X81554768Y-56663585D01*
X81720639Y-56707101D01*
X81808086Y-56708474D01*
X81884503Y-56709675D01*
X81884506Y-56709675D01*
X81892102Y-56709794D01*
X81899506Y-56708098D01*
X81899508Y-56708098D01*
X81992512Y-56686797D01*
X82059259Y-56671510D01*
X82212458Y-56594459D01*
X82218229Y-56589530D01*
X82218232Y-56589528D01*
X82337078Y-56488023D01*
X82342855Y-56483089D01*
X82434781Y-56355162D01*
X82438492Y-56349998D01*
X82438493Y-56349997D01*
X82442924Y-56343830D01*
X82506885Y-56184720D01*
X82528705Y-56031406D01*
X82530466Y-56019031D01*
X82530466Y-56019027D01*
X82531047Y-56014947D01*
X82531204Y-56000000D01*
X82519331Y-55901888D01*
X82511515Y-55837299D01*
X82511514Y-55837296D01*
X82510602Y-55829758D01*
X82506007Y-55817596D01*
X82452671Y-55676447D01*
X82449987Y-55669344D01*
X82352857Y-55528019D01*
X82347186Y-55522966D01*
X82230493Y-55418996D01*
X82230490Y-55418994D01*
X82224821Y-55413943D01*
X82216825Y-55409709D01*
X82140498Y-55369296D01*
X82073269Y-55333700D01*
X82055696Y-55329286D01*
X81914322Y-55293775D01*
X81914318Y-55293775D01*
X81906951Y-55291924D01*
X81899352Y-55291884D01*
X81899350Y-55291884D01*
X81827894Y-55291510D01*
X81735469Y-55291026D01*
X81728089Y-55292798D01*
X81728087Y-55292798D01*
X81576102Y-55329286D01*
X81576098Y-55329287D01*
X81568723Y-55331058D01*
X81416339Y-55409709D01*
X81410620Y-55414698D01*
X81405693Y-55418996D01*
X81287115Y-55522439D01*
X81188510Y-55662739D01*
X81157364Y-55742624D01*
X81140237Y-55786553D01*
X81126218Y-55822509D01*
X81125226Y-55830042D01*
X81125226Y-55830043D01*
X81109109Y-55952467D01*
X81103835Y-55992526D01*
X78409747Y-55992526D01*
X78428682Y-55945423D01*
X78440085Y-55865299D01*
X78452263Y-55779734D01*
X78452263Y-55779730D01*
X78452844Y-55775650D01*
X78453001Y-55760703D01*
X78440394Y-55656523D01*
X78433312Y-55598002D01*
X78433311Y-55597999D01*
X78432399Y-55590461D01*
X78411792Y-55535924D01*
X78374468Y-55437150D01*
X78371784Y-55430047D01*
X78362972Y-55417226D01*
X78278956Y-55294981D01*
X78278955Y-55294979D01*
X78274654Y-55288722D01*
X78268983Y-55283669D01*
X78152290Y-55179699D01*
X78152287Y-55179697D01*
X78146618Y-55174646D01*
X78138622Y-55170412D01*
X78001778Y-55097957D01*
X78001779Y-55097957D01*
X77995066Y-55094403D01*
X77977493Y-55089989D01*
X77836119Y-55054478D01*
X77836115Y-55054478D01*
X77828748Y-55052627D01*
X77821149Y-55052587D01*
X77821147Y-55052587D01*
X77749691Y-55052213D01*
X77657266Y-55051729D01*
X77649886Y-55053501D01*
X77649884Y-55053501D01*
X77497899Y-55089989D01*
X77497895Y-55089990D01*
X77490520Y-55091761D01*
X77338136Y-55170412D01*
X77208912Y-55283142D01*
X77110307Y-55423442D01*
X77088942Y-55478240D01*
X77067094Y-55534278D01*
X77048015Y-55583212D01*
X77047023Y-55590745D01*
X77047023Y-55590746D01*
X77032236Y-55703069D01*
X77025632Y-55753229D01*
X76591882Y-55753229D01*
X76667603Y-55688556D01*
X76683261Y-55675183D01*
X76783330Y-55535924D01*
X76847291Y-55376814D01*
X76854055Y-55329286D01*
X76870872Y-55211125D01*
X76870872Y-55211121D01*
X76871453Y-55207041D01*
X76871610Y-55192094D01*
X76859994Y-55096106D01*
X76851921Y-55029393D01*
X76851920Y-55029390D01*
X76851008Y-55021852D01*
X76847761Y-55013257D01*
X76793077Y-54868541D01*
X76790393Y-54861438D01*
X76728127Y-54770840D01*
X76697565Y-54726372D01*
X76697564Y-54726370D01*
X76693263Y-54720113D01*
X76687592Y-54715060D01*
X76570899Y-54611090D01*
X76570896Y-54611088D01*
X76565227Y-54606037D01*
X76557231Y-54601803D01*
X76504629Y-54573952D01*
X76413675Y-54525794D01*
X76396102Y-54521380D01*
X76254728Y-54485869D01*
X76254724Y-54485869D01*
X76247357Y-54484018D01*
X76239758Y-54483978D01*
X76239756Y-54483978D01*
X76168300Y-54483604D01*
X76075875Y-54483120D01*
X76068495Y-54484892D01*
X76068493Y-54484892D01*
X75916508Y-54521380D01*
X75916504Y-54521381D01*
X75909129Y-54523152D01*
X75756745Y-54601803D01*
X75627521Y-54714533D01*
X75528916Y-54854833D01*
X75495863Y-54939610D01*
X75493132Y-54946614D01*
X75449751Y-55002815D01*
X75382872Y-55026642D01*
X75330775Y-55018504D01*
X75324361Y-55015108D01*
X75316995Y-55013258D01*
X75316993Y-55013257D01*
X75165414Y-54975183D01*
X75165410Y-54975183D01*
X75158043Y-54973332D01*
X75150444Y-54973292D01*
X75150442Y-54973292D01*
X75078986Y-54972918D01*
X74986561Y-54972434D01*
X74979181Y-54974206D01*
X74979179Y-54974206D01*
X74827194Y-55010694D01*
X74827190Y-55010695D01*
X74819815Y-55012466D01*
X74667431Y-55091117D01*
X74538207Y-55203847D01*
X74439602Y-55344147D01*
X74377310Y-55503917D01*
X74376318Y-55511450D01*
X74376318Y-55511451D01*
X74356401Y-55662739D01*
X74354927Y-55673934D01*
X74358144Y-55703069D01*
X74372162Y-55830043D01*
X74373745Y-55844383D01*
X74376354Y-55851514D01*
X74376355Y-55851516D01*
X74403504Y-55925703D01*
X74432677Y-56005423D01*
X74436915Y-56011729D01*
X74436916Y-56011732D01*
X74442630Y-56020236D01*
X74464022Y-56087934D01*
X74445417Y-56156449D01*
X74441138Y-56162958D01*
X74371010Y-56262739D01*
X74308718Y-56422509D01*
X74307726Y-56430042D01*
X74307726Y-56430043D01*
X74287387Y-56584539D01*
X74286335Y-56592526D01*
X69466922Y-56592526D01*
X69475780Y-56583909D01*
X69532046Y-56543775D01*
X69654860Y-56456173D01*
X69681082Y-56430043D01*
X69774666Y-56336785D01*
X69813096Y-56298489D01*
X69833698Y-56269819D01*
X69940435Y-56121277D01*
X69943453Y-56117077D01*
X69953135Y-56097488D01*
X70040136Y-55921453D01*
X70040137Y-55921451D01*
X70042430Y-55916811D01*
X70107370Y-55703069D01*
X70136529Y-55481590D01*
X70137777Y-55430522D01*
X70138074Y-55418365D01*
X70138074Y-55418361D01*
X70138156Y-55415000D01*
X70119852Y-55192361D01*
X70065431Y-54975702D01*
X69976354Y-54770840D01*
X69869738Y-54606037D01*
X69857822Y-54587617D01*
X69857820Y-54587614D01*
X69855014Y-54583277D01*
X69704670Y-54418051D01*
X69700619Y-54414852D01*
X69700615Y-54414848D01*
X69533414Y-54282800D01*
X69533410Y-54282798D01*
X69529359Y-54279598D01*
X69488053Y-54256796D01*
X69438084Y-54206364D01*
X69423312Y-54136921D01*
X69448428Y-54070516D01*
X69475780Y-54043909D01*
X69519603Y-54012650D01*
X69654860Y-53916173D01*
X69677908Y-53893206D01*
X69809435Y-53762137D01*
X69813096Y-53758489D01*
X69872594Y-53675689D01*
X69940435Y-53581277D01*
X69943453Y-53577077D01*
X69958919Y-53545785D01*
X70040136Y-53381453D01*
X70040137Y-53381451D01*
X70042430Y-53376811D01*
X70088272Y-53225929D01*
X70105865Y-53168023D01*
X70105865Y-53168021D01*
X70107370Y-53163069D01*
X70136529Y-52941590D01*
X70138156Y-52875000D01*
X70119852Y-52652361D01*
X70065431Y-52435702D01*
X69995342Y-52274510D01*
X77768319Y-52274510D01*
X77769153Y-52282060D01*
X77785591Y-52430954D01*
X77787137Y-52444959D01*
X77846069Y-52605999D01*
X77850306Y-52612305D01*
X77850308Y-52612308D01*
X77858640Y-52624707D01*
X77941714Y-52748333D01*
X78068549Y-52863744D01*
X78219252Y-52945569D01*
X78385123Y-52989085D01*
X78471834Y-52990447D01*
X78522635Y-52991245D01*
X78590433Y-53012314D01*
X78636078Y-53066693D01*
X78645076Y-53137117D01*
X78614573Y-53201227D01*
X78603485Y-53212178D01*
X78587722Y-53225929D01*
X78587718Y-53225933D01*
X78581996Y-53230925D01*
X78483391Y-53371225D01*
X78421099Y-53530995D01*
X78420107Y-53538528D01*
X78420107Y-53538529D01*
X78401471Y-53680088D01*
X78398716Y-53701012D01*
X78417534Y-53871461D01*
X78420143Y-53878592D01*
X78420144Y-53878594D01*
X78428069Y-53900250D01*
X78476466Y-54032501D01*
X78480703Y-54038807D01*
X78480705Y-54038810D01*
X78524739Y-54104338D01*
X78572111Y-54174835D01*
X78606761Y-54206364D01*
X78670775Y-54264612D01*
X78698946Y-54290246D01*
X78849649Y-54372071D01*
X79015520Y-54415587D01*
X79102967Y-54416960D01*
X79179384Y-54418161D01*
X79179387Y-54418161D01*
X79186983Y-54418280D01*
X79194387Y-54416584D01*
X79194389Y-54416584D01*
X79285856Y-54395635D01*
X79354140Y-54379996D01*
X79507339Y-54302945D01*
X79513110Y-54298016D01*
X79513113Y-54298014D01*
X79631959Y-54196509D01*
X79637736Y-54191575D01*
X79737805Y-54052316D01*
X79801766Y-53893206D01*
X79825928Y-53723433D01*
X79826085Y-53708486D01*
X79810691Y-53581277D01*
X79806396Y-53545785D01*
X79806395Y-53545782D01*
X79805483Y-53538244D01*
X79788773Y-53494020D01*
X79747552Y-53384933D01*
X79744868Y-53377830D01*
X79736056Y-53365009D01*
X79652040Y-53242764D01*
X79652039Y-53242762D01*
X79647738Y-53236505D01*
X79642067Y-53231452D01*
X79525374Y-53127482D01*
X79525371Y-53127480D01*
X79519702Y-53122429D01*
X79511706Y-53118195D01*
X79374862Y-53045740D01*
X79374863Y-53045740D01*
X79368150Y-53042186D01*
X79357632Y-53039544D01*
X79209203Y-53002261D01*
X79209199Y-53002261D01*
X79201832Y-53000410D01*
X79194233Y-53000370D01*
X79194231Y-53000370D01*
X79141918Y-53000096D01*
X79073457Y-52999738D01*
X79005443Y-52979380D01*
X78959232Y-52925482D01*
X78949496Y-52855156D01*
X78979327Y-52790730D01*
X78992286Y-52777930D01*
X79001561Y-52770008D01*
X79007339Y-52765073D01*
X79011771Y-52758906D01*
X79011776Y-52758900D01*
X79078822Y-52665595D01*
X79134816Y-52621947D01*
X79205520Y-52615501D01*
X79241265Y-52628390D01*
X79337268Y-52680515D01*
X79503139Y-52724031D01*
X79590586Y-52725404D01*
X79667003Y-52726605D01*
X79667006Y-52726605D01*
X79674602Y-52726724D01*
X79682006Y-52725028D01*
X79682008Y-52725028D01*
X79744846Y-52710636D01*
X79841759Y-52688440D01*
X79994958Y-52611389D01*
X80000731Y-52606458D01*
X80000736Y-52606455D01*
X80068108Y-52548914D01*
X80132897Y-52519883D01*
X80203097Y-52530488D01*
X80234738Y-52551532D01*
X80280944Y-52593576D01*
X80280948Y-52593579D01*
X80286565Y-52598690D01*
X80437268Y-52680515D01*
X80603139Y-52724031D01*
X80690586Y-52725404D01*
X80767003Y-52726605D01*
X80767006Y-52726605D01*
X80774602Y-52726724D01*
X80782006Y-52725028D01*
X80782008Y-52725028D01*
X80844846Y-52710636D01*
X80941759Y-52688440D01*
X81094958Y-52611389D01*
X81100729Y-52606460D01*
X81100732Y-52606458D01*
X81219578Y-52504953D01*
X81225355Y-52500019D01*
X81325424Y-52360760D01*
X81389385Y-52201650D01*
X81413547Y-52031877D01*
X81413704Y-52016930D01*
X81397360Y-51881870D01*
X81394015Y-51854229D01*
X81394014Y-51854226D01*
X81393102Y-51846688D01*
X81377132Y-51804423D01*
X81335171Y-51693377D01*
X81332487Y-51686274D01*
X81285809Y-51618357D01*
X81239659Y-51551208D01*
X81239658Y-51551206D01*
X81235357Y-51544949D01*
X81229686Y-51539896D01*
X81112993Y-51435926D01*
X81112989Y-51435923D01*
X81107321Y-51430873D01*
X81099325Y-51426639D01*
X80962481Y-51354184D01*
X80962482Y-51354184D01*
X80955769Y-51350630D01*
X80938196Y-51346216D01*
X80796822Y-51310705D01*
X80796818Y-51310705D01*
X80789451Y-51308854D01*
X80781852Y-51308814D01*
X80781850Y-51308814D01*
X80710394Y-51308440D01*
X80617969Y-51307956D01*
X80610589Y-51309728D01*
X80610587Y-51309728D01*
X80458602Y-51346216D01*
X80458598Y-51346217D01*
X80451223Y-51347988D01*
X80298839Y-51426639D01*
X80293122Y-51431626D01*
X80293115Y-51431631D01*
X80232848Y-51484206D01*
X80168366Y-51513914D01*
X80098059Y-51504045D01*
X80066206Y-51483337D01*
X80007321Y-51430873D01*
X79999325Y-51426639D01*
X79862481Y-51354184D01*
X79862482Y-51354184D01*
X79855769Y-51350630D01*
X79838196Y-51346216D01*
X79696822Y-51310705D01*
X79696818Y-51310705D01*
X79689451Y-51308854D01*
X79681852Y-51308814D01*
X79681850Y-51308814D01*
X79610394Y-51308440D01*
X79517969Y-51307956D01*
X79510589Y-51309728D01*
X79510587Y-51309728D01*
X79358602Y-51346216D01*
X79358598Y-51346217D01*
X79351223Y-51347988D01*
X79198839Y-51426639D01*
X79069615Y-51539369D01*
X79017280Y-51613834D01*
X79004398Y-51632163D01*
X78948863Y-51676394D01*
X78878231Y-51683580D01*
X78842354Y-51671068D01*
X78737753Y-51615684D01*
X78720180Y-51611270D01*
X78578806Y-51575759D01*
X78578802Y-51575759D01*
X78571435Y-51573908D01*
X78563836Y-51573868D01*
X78563834Y-51573868D01*
X78492378Y-51573494D01*
X78399953Y-51573010D01*
X78392573Y-51574782D01*
X78392571Y-51574782D01*
X78240586Y-51611270D01*
X78240582Y-51611271D01*
X78233207Y-51613042D01*
X78080823Y-51691693D01*
X77951599Y-51804423D01*
X77852994Y-51944723D01*
X77790702Y-52104493D01*
X77789710Y-52112026D01*
X77789710Y-52112027D01*
X77773443Y-52235590D01*
X77768319Y-52274510D01*
X69995342Y-52274510D01*
X69976354Y-52230840D01*
X69936906Y-52169862D01*
X69857822Y-52047617D01*
X69857820Y-52047614D01*
X69855014Y-52043277D01*
X69704670Y-51878051D01*
X69700619Y-51874852D01*
X69700615Y-51874848D01*
X69533414Y-51742800D01*
X69533410Y-51742798D01*
X69529359Y-51739598D01*
X69488053Y-51716796D01*
X69438084Y-51666364D01*
X69423312Y-51596921D01*
X69448428Y-51530516D01*
X69475780Y-51503909D01*
X69519603Y-51472650D01*
X69654860Y-51376173D01*
X69679651Y-51351469D01*
X69809435Y-51222137D01*
X69813096Y-51218489D01*
X69872594Y-51135689D01*
X69940435Y-51041277D01*
X69943453Y-51037077D01*
X70042430Y-50836811D01*
X70107370Y-50623069D01*
X70136529Y-50401590D01*
X70137925Y-50344459D01*
X70138074Y-50338365D01*
X70138074Y-50338361D01*
X70138156Y-50335000D01*
X70119852Y-50112361D01*
X70065431Y-49895702D01*
X69998828Y-49742526D01*
X74436335Y-49742526D01*
X74445744Y-49827750D01*
X74452722Y-49890954D01*
X74455153Y-49912975D01*
X74457762Y-49920106D01*
X74457763Y-49920108D01*
X74465688Y-49941764D01*
X74514085Y-50074015D01*
X74518322Y-50080321D01*
X74518324Y-50080324D01*
X74562621Y-50146244D01*
X74609730Y-50216349D01*
X74736565Y-50331760D01*
X74887268Y-50413585D01*
X75053139Y-50457101D01*
X75140586Y-50458474D01*
X75217003Y-50459675D01*
X75217006Y-50459675D01*
X75224602Y-50459794D01*
X75232006Y-50458098D01*
X75232008Y-50458098D01*
X75294846Y-50443706D01*
X75391759Y-50421510D01*
X75544958Y-50344459D01*
X75550729Y-50339530D01*
X75550732Y-50339528D01*
X75669578Y-50238023D01*
X75675355Y-50233089D01*
X75775424Y-50093830D01*
X75839385Y-49934720D01*
X75848696Y-49869297D01*
X75862966Y-49769031D01*
X75862966Y-49769027D01*
X75863547Y-49764947D01*
X75863704Y-49750000D01*
X75843102Y-49579758D01*
X75815843Y-49507617D01*
X75785171Y-49426447D01*
X75782487Y-49419344D01*
X75726616Y-49338051D01*
X75689659Y-49284278D01*
X75689658Y-49284276D01*
X75685357Y-49278019D01*
X75679686Y-49272966D01*
X75562993Y-49168996D01*
X75562990Y-49168994D01*
X75557321Y-49163943D01*
X75549325Y-49159709D01*
X75412481Y-49087254D01*
X75412482Y-49087254D01*
X75405769Y-49083700D01*
X75374704Y-49075897D01*
X75246822Y-49043775D01*
X75246818Y-49043775D01*
X75239451Y-49041924D01*
X75231852Y-49041884D01*
X75231850Y-49041884D01*
X75160394Y-49041510D01*
X75067969Y-49041026D01*
X75060589Y-49042798D01*
X75060587Y-49042798D01*
X74908602Y-49079286D01*
X74908598Y-49079287D01*
X74901223Y-49081058D01*
X74748839Y-49159709D01*
X74619615Y-49272439D01*
X74521010Y-49412739D01*
X74497359Y-49473401D01*
X74485711Y-49503277D01*
X74458718Y-49572509D01*
X74457726Y-49580042D01*
X74457726Y-49580043D01*
X74443140Y-49690840D01*
X74436335Y-49742526D01*
X69998828Y-49742526D01*
X69976354Y-49690840D01*
X69855014Y-49503277D01*
X69704670Y-49338051D01*
X69700619Y-49334852D01*
X69700615Y-49334848D01*
X69533414Y-49202800D01*
X69533410Y-49202798D01*
X69529359Y-49199598D01*
X69488053Y-49176796D01*
X69438084Y-49126364D01*
X69423312Y-49056921D01*
X69448428Y-48990516D01*
X69475780Y-48963909D01*
X69519603Y-48932650D01*
X69654860Y-48836173D01*
X69813096Y-48678489D01*
X69872594Y-48595689D01*
X69940435Y-48501277D01*
X69943453Y-48497077D01*
X70036014Y-48309794D01*
X70040136Y-48301453D01*
X70040137Y-48301451D01*
X70042430Y-48296811D01*
X70107370Y-48083069D01*
X70136529Y-47861590D01*
X70138156Y-47795000D01*
X70121510Y-47592526D01*
X71885835Y-47592526D01*
X71904653Y-47762975D01*
X71907262Y-47770106D01*
X71907263Y-47770108D01*
X71929271Y-47830247D01*
X71963585Y-47924015D01*
X71967822Y-47930321D01*
X71967824Y-47930324D01*
X71995500Y-47971510D01*
X72059230Y-48066349D01*
X72186065Y-48181760D01*
X72336768Y-48263585D01*
X72502639Y-48307101D01*
X72590086Y-48308474D01*
X72666503Y-48309675D01*
X72666506Y-48309675D01*
X72674102Y-48309794D01*
X72681506Y-48308098D01*
X72681508Y-48308098D01*
X72752419Y-48291857D01*
X72841259Y-48271510D01*
X72994458Y-48194459D01*
X73000229Y-48189530D01*
X73000232Y-48189528D01*
X73119078Y-48088023D01*
X73124855Y-48083089D01*
X73205034Y-47971510D01*
X73220492Y-47949998D01*
X73220493Y-47949997D01*
X73224924Y-47943830D01*
X73227755Y-47936786D01*
X73227759Y-47936780D01*
X73245648Y-47892279D01*
X73289615Y-47836535D01*
X73356739Y-47813410D01*
X73425711Y-47830247D01*
X73447354Y-47846082D01*
X73480944Y-47876646D01*
X73480948Y-47876649D01*
X73486565Y-47881760D01*
X73637268Y-47963585D01*
X73803139Y-48007101D01*
X73890586Y-48008474D01*
X73967003Y-48009675D01*
X73967006Y-48009675D01*
X73974602Y-48009794D01*
X73982006Y-48008098D01*
X73982008Y-48008098D01*
X74044846Y-47993706D01*
X74141759Y-47971510D01*
X74294958Y-47894459D01*
X74300729Y-47889530D01*
X74300732Y-47889528D01*
X74419578Y-47788023D01*
X74425355Y-47783089D01*
X74525424Y-47643830D01*
X74589385Y-47484720D01*
X74598239Y-47422509D01*
X74612966Y-47319031D01*
X74612966Y-47319027D01*
X74613547Y-47314947D01*
X74613704Y-47300000D01*
X74596228Y-47155590D01*
X74594015Y-47137299D01*
X74594014Y-47137296D01*
X74593102Y-47129758D01*
X74590337Y-47122439D01*
X74535171Y-46976447D01*
X74532487Y-46969344D01*
X74480550Y-46893775D01*
X74439659Y-46834278D01*
X74439658Y-46834276D01*
X74435357Y-46828019D01*
X74429686Y-46822966D01*
X74312993Y-46718996D01*
X74312990Y-46718994D01*
X74307321Y-46713943D01*
X74299325Y-46709709D01*
X74210729Y-46662800D01*
X74155769Y-46633700D01*
X74138196Y-46629286D01*
X73996822Y-46593775D01*
X73996818Y-46593775D01*
X73989451Y-46591924D01*
X73981852Y-46591884D01*
X73981850Y-46591884D01*
X73910394Y-46591510D01*
X73817969Y-46591026D01*
X73810589Y-46592798D01*
X73810587Y-46592798D01*
X73658602Y-46629286D01*
X73658598Y-46629287D01*
X73651223Y-46631058D01*
X73498839Y-46709709D01*
X73369615Y-46822439D01*
X73271010Y-46962739D01*
X73254054Y-47006228D01*
X73253935Y-47006534D01*
X73210554Y-47062735D01*
X73143675Y-47086562D01*
X73074531Y-47070448D01*
X73052727Y-47054844D01*
X73006821Y-47013943D01*
X72998825Y-47009709D01*
X72923486Y-46969819D01*
X72855269Y-46933700D01*
X72837696Y-46929286D01*
X72696322Y-46893775D01*
X72696318Y-46893775D01*
X72688951Y-46891924D01*
X72681352Y-46891884D01*
X72681350Y-46891884D01*
X72609894Y-46891510D01*
X72517469Y-46891026D01*
X72510089Y-46892798D01*
X72510087Y-46892798D01*
X72358102Y-46929286D01*
X72358098Y-46929287D01*
X72350723Y-46931058D01*
X72198339Y-47009709D01*
X72069115Y-47122439D01*
X71970510Y-47262739D01*
X71908218Y-47422509D01*
X71907226Y-47430042D01*
X71907226Y-47430043D01*
X71888490Y-47572361D01*
X71885835Y-47592526D01*
X70121510Y-47592526D01*
X70119852Y-47572361D01*
X70065431Y-47355702D01*
X69976354Y-47150840D01*
X69919356Y-47062735D01*
X69857822Y-46967617D01*
X69857820Y-46967614D01*
X69855014Y-46963277D01*
X69704670Y-46798051D01*
X69700619Y-46794852D01*
X69700615Y-46794848D01*
X69533414Y-46662800D01*
X69533410Y-46662798D01*
X69529359Y-46659598D01*
X69488053Y-46636796D01*
X69438084Y-46586364D01*
X69423312Y-46516921D01*
X69448428Y-46450516D01*
X69475780Y-46423909D01*
X69519603Y-46392650D01*
X69654860Y-46296173D01*
X69813096Y-46138489D01*
X69872594Y-46055689D01*
X69940435Y-45961277D01*
X69943453Y-45957077D01*
X70042430Y-45756811D01*
X70090720Y-45597871D01*
X70105865Y-45548023D01*
X70105865Y-45548021D01*
X70107370Y-45543069D01*
X70136529Y-45321590D01*
X70138156Y-45255000D01*
X70119852Y-45032361D01*
X70109846Y-44992526D01*
X73186335Y-44992526D01*
X73205153Y-45162975D01*
X73207762Y-45170106D01*
X73207763Y-45170108D01*
X73221945Y-45208861D01*
X73264085Y-45324015D01*
X73268322Y-45330321D01*
X73268324Y-45330324D01*
X73277400Y-45343830D01*
X73359730Y-45466349D01*
X73423147Y-45524054D01*
X73449489Y-45548023D01*
X73486565Y-45581760D01*
X73637268Y-45663585D01*
X73803139Y-45707101D01*
X73890586Y-45708474D01*
X73967003Y-45709675D01*
X73967006Y-45709675D01*
X73974602Y-45709794D01*
X73982006Y-45708098D01*
X73982008Y-45708098D01*
X74044846Y-45693706D01*
X74141759Y-45671510D01*
X74294958Y-45594459D01*
X74300729Y-45589530D01*
X74300732Y-45589528D01*
X74419578Y-45488023D01*
X74425355Y-45483089D01*
X74525424Y-45343830D01*
X74548759Y-45285782D01*
X74592725Y-45230037D01*
X74639679Y-45212316D01*
X74639102Y-45209794D01*
X74806259Y-45171510D01*
X74959458Y-45094459D01*
X74965229Y-45089530D01*
X74965232Y-45089528D01*
X75084078Y-44988023D01*
X75089855Y-44983089D01*
X75189924Y-44843830D01*
X75253885Y-44684720D01*
X75265018Y-44606492D01*
X75277466Y-44519031D01*
X75277466Y-44519027D01*
X75278047Y-44514947D01*
X75278204Y-44500000D01*
X75267881Y-44414698D01*
X75258515Y-44337299D01*
X75258514Y-44337296D01*
X75257602Y-44329758D01*
X75243244Y-44291759D01*
X75199671Y-44176447D01*
X75196987Y-44169344D01*
X75162798Y-44119598D01*
X75104159Y-44034278D01*
X75104158Y-44034276D01*
X75099857Y-44028019D01*
X75094186Y-44022966D01*
X74977493Y-43918996D01*
X74977490Y-43918994D01*
X74971821Y-43913943D01*
X74963825Y-43909709D01*
X74826981Y-43837254D01*
X74826982Y-43837254D01*
X74820269Y-43833700D01*
X74798878Y-43828327D01*
X74661322Y-43793775D01*
X74661318Y-43793775D01*
X74653951Y-43791924D01*
X74646352Y-43791884D01*
X74646350Y-43791884D01*
X74574894Y-43791510D01*
X74482469Y-43791026D01*
X74475089Y-43792798D01*
X74475087Y-43792798D01*
X74323102Y-43829286D01*
X74323098Y-43829287D01*
X74315723Y-43831058D01*
X74163339Y-43909709D01*
X74034115Y-44022439D01*
X73935510Y-44162739D01*
X73932751Y-44169815D01*
X73932749Y-44169819D01*
X73915863Y-44213130D01*
X73872482Y-44269332D01*
X73817869Y-44290609D01*
X73817969Y-44291026D01*
X73810590Y-44292798D01*
X73810586Y-44292798D01*
X73658602Y-44329286D01*
X73658598Y-44329287D01*
X73651223Y-44331058D01*
X73498839Y-44409709D01*
X73369615Y-44522439D01*
X73271010Y-44662739D01*
X73268250Y-44669819D01*
X73225444Y-44779610D01*
X73208718Y-44822509D01*
X73207726Y-44830042D01*
X73207726Y-44830043D01*
X73188390Y-44976919D01*
X73186335Y-44992526D01*
X70109846Y-44992526D01*
X70065431Y-44815702D01*
X69976354Y-44610840D01*
X69914318Y-44514947D01*
X69857822Y-44427617D01*
X69857820Y-44427614D01*
X69855014Y-44423277D01*
X69704670Y-44258051D01*
X69700619Y-44254852D01*
X69700615Y-44254848D01*
X69533414Y-44122800D01*
X69533410Y-44122798D01*
X69529359Y-44119598D01*
X69488053Y-44096796D01*
X69438084Y-44046364D01*
X69423312Y-43976921D01*
X69448428Y-43910516D01*
X69475780Y-43883909D01*
X69544994Y-43834539D01*
X69654860Y-43756173D01*
X69813096Y-43598489D01*
X69843694Y-43555908D01*
X69940435Y-43421277D01*
X69943453Y-43417077D01*
X69954632Y-43394459D01*
X70040136Y-43221453D01*
X70040137Y-43221451D01*
X70042430Y-43216811D01*
X70107370Y-43003069D01*
X70129002Y-42838759D01*
X75080082Y-42838759D01*
X75089491Y-42923983D01*
X75097656Y-42997939D01*
X75098900Y-43009208D01*
X75101509Y-43016339D01*
X75101510Y-43016341D01*
X75109435Y-43037997D01*
X75157832Y-43170248D01*
X75162069Y-43176554D01*
X75162071Y-43176557D01*
X75206368Y-43242477D01*
X75253477Y-43312582D01*
X75316894Y-43370287D01*
X75338040Y-43389528D01*
X75380312Y-43427993D01*
X75531015Y-43509818D01*
X75696886Y-43553334D01*
X75784333Y-43554707D01*
X75860750Y-43555908D01*
X75860753Y-43555908D01*
X75868349Y-43556027D01*
X75875753Y-43554331D01*
X75875755Y-43554331D01*
X75938593Y-43539939D01*
X76035506Y-43517743D01*
X76188705Y-43440692D01*
X76194476Y-43435763D01*
X76194479Y-43435761D01*
X76313325Y-43334256D01*
X76319102Y-43329322D01*
X76419171Y-43190063D01*
X76483132Y-43030953D01*
X76486395Y-43008023D01*
X76506713Y-42865264D01*
X76506713Y-42865260D01*
X76507294Y-42861180D01*
X76507451Y-42846233D01*
X76500952Y-42792526D01*
X80186335Y-42792526D01*
X80205153Y-42962975D01*
X80207762Y-42970106D01*
X80207763Y-42970108D01*
X80215688Y-42991764D01*
X80264085Y-43124015D01*
X80268322Y-43130321D01*
X80268324Y-43130324D01*
X80308468Y-43190063D01*
X80359730Y-43266349D01*
X80403609Y-43306276D01*
X80429260Y-43329616D01*
X80486565Y-43381760D01*
X80637268Y-43463585D01*
X80803139Y-43507101D01*
X80890586Y-43508474D01*
X80967003Y-43509675D01*
X80967006Y-43509675D01*
X80974602Y-43509794D01*
X80982006Y-43508098D01*
X80982008Y-43508098D01*
X81044846Y-43493706D01*
X81141759Y-43471510D01*
X81294958Y-43394459D01*
X81300729Y-43389530D01*
X81300732Y-43389528D01*
X81419578Y-43288023D01*
X81425355Y-43283089D01*
X81525424Y-43143830D01*
X81589385Y-42984720D01*
X81609084Y-42846309D01*
X81612966Y-42819031D01*
X81612966Y-42819027D01*
X81613547Y-42814947D01*
X81613704Y-42800000D01*
X81598766Y-42676562D01*
X81594015Y-42637299D01*
X81594014Y-42637296D01*
X81593102Y-42629758D01*
X81532487Y-42469344D01*
X81523675Y-42456523D01*
X81439659Y-42334278D01*
X81439658Y-42334276D01*
X81435357Y-42328019D01*
X81429686Y-42322966D01*
X81312993Y-42218996D01*
X81312990Y-42218994D01*
X81307321Y-42213943D01*
X81299325Y-42209709D01*
X81234751Y-42175519D01*
X81155769Y-42133700D01*
X81138196Y-42129286D01*
X80996822Y-42093775D01*
X80996818Y-42093775D01*
X80989451Y-42091924D01*
X80981852Y-42091884D01*
X80981850Y-42091884D01*
X80910394Y-42091510D01*
X80817969Y-42091026D01*
X80810589Y-42092798D01*
X80810587Y-42092798D01*
X80658602Y-42129286D01*
X80658598Y-42129287D01*
X80651223Y-42131058D01*
X80498839Y-42209709D01*
X80369615Y-42322439D01*
X80271010Y-42462739D01*
X80208718Y-42622509D01*
X80207726Y-42630042D01*
X80207726Y-42630043D01*
X80187338Y-42784908D01*
X80186335Y-42792526D01*
X76500952Y-42792526D01*
X76491164Y-42711646D01*
X76487762Y-42683532D01*
X76487761Y-42683529D01*
X76486849Y-42675991D01*
X76426234Y-42515577D01*
X76390158Y-42463086D01*
X76333406Y-42380511D01*
X76333405Y-42380509D01*
X76329104Y-42374252D01*
X76323433Y-42369199D01*
X76206740Y-42265229D01*
X76206737Y-42265227D01*
X76201068Y-42260176D01*
X76193072Y-42255942D01*
X76056228Y-42183487D01*
X76056229Y-42183487D01*
X76049516Y-42179933D01*
X76031943Y-42175519D01*
X75890569Y-42140008D01*
X75890565Y-42140008D01*
X75883198Y-42138157D01*
X75875599Y-42138117D01*
X75875597Y-42138117D01*
X75804141Y-42137743D01*
X75711716Y-42137259D01*
X75704336Y-42139031D01*
X75704334Y-42139031D01*
X75552349Y-42175519D01*
X75552345Y-42175520D01*
X75544970Y-42177291D01*
X75392586Y-42255942D01*
X75263362Y-42368672D01*
X75164757Y-42508972D01*
X75133611Y-42588857D01*
X75120491Y-42622509D01*
X75102465Y-42668742D01*
X75101473Y-42676275D01*
X75101473Y-42676276D01*
X75083217Y-42814947D01*
X75080082Y-42838759D01*
X70129002Y-42838759D01*
X70136529Y-42781590D01*
X70138156Y-42715000D01*
X70119852Y-42492361D01*
X70065431Y-42275702D01*
X69976354Y-42070840D01*
X69908086Y-41965314D01*
X69857822Y-41887617D01*
X69857820Y-41887614D01*
X69855014Y-41883277D01*
X69704670Y-41718051D01*
X69700619Y-41714852D01*
X69700615Y-41714848D01*
X69540809Y-41588640D01*
X77686463Y-41588640D01*
X77704163Y-41769160D01*
X77761418Y-41941273D01*
X77765065Y-41947295D01*
X77765066Y-41947297D01*
X77842763Y-42075590D01*
X77855380Y-42096424D01*
X77860269Y-42101487D01*
X77860270Y-42101488D01*
X77888826Y-42131058D01*
X77981382Y-42226902D01*
X78133159Y-42326222D01*
X78139763Y-42328678D01*
X78139765Y-42328679D01*
X78296558Y-42386990D01*
X78296560Y-42386990D01*
X78303168Y-42389448D01*
X78386995Y-42400633D01*
X78475980Y-42412507D01*
X78475984Y-42412507D01*
X78482961Y-42413438D01*
X78489972Y-42412800D01*
X78489976Y-42412800D01*
X78632459Y-42399832D01*
X78663600Y-42396998D01*
X78670302Y-42394820D01*
X78670304Y-42394820D01*
X78829409Y-42343124D01*
X78829412Y-42343123D01*
X78836108Y-42340947D01*
X78970336Y-42260931D01*
X78985860Y-42251677D01*
X78985862Y-42251676D01*
X78991912Y-42248069D01*
X79123266Y-42122982D01*
X79223643Y-41971902D01*
X79288055Y-41802338D01*
X79289035Y-41795366D01*
X79312748Y-41626639D01*
X79312748Y-41626636D01*
X79313299Y-41622717D01*
X79313616Y-41600000D01*
X79293397Y-41419745D01*
X79289546Y-41408685D01*
X79248225Y-41290029D01*
X79244711Y-41219120D01*
X79264894Y-41175065D01*
X79320992Y-41096998D01*
X79320993Y-41096997D01*
X79325424Y-41090830D01*
X79389385Y-40931720D01*
X79413547Y-40761947D01*
X79413704Y-40747000D01*
X79393102Y-40576758D01*
X79368935Y-40512800D01*
X79335171Y-40423447D01*
X79332487Y-40416344D01*
X79259257Y-40309794D01*
X79239659Y-40281278D01*
X79239658Y-40281276D01*
X79235357Y-40275019D01*
X79229686Y-40269966D01*
X79112993Y-40165996D01*
X79112990Y-40165994D01*
X79107321Y-40160943D01*
X79099325Y-40156709D01*
X79046723Y-40128858D01*
X78955769Y-40080700D01*
X78918979Y-40071459D01*
X78796822Y-40040775D01*
X78796818Y-40040775D01*
X78789451Y-40038924D01*
X78781852Y-40038884D01*
X78781850Y-40038884D01*
X78710394Y-40038510D01*
X78617969Y-40038026D01*
X78610589Y-40039798D01*
X78610587Y-40039798D01*
X78458602Y-40076286D01*
X78458598Y-40076287D01*
X78451223Y-40078058D01*
X78298839Y-40156709D01*
X78169615Y-40269439D01*
X78071010Y-40409739D01*
X78008718Y-40569509D01*
X77986335Y-40739526D01*
X78000978Y-40872162D01*
X78002703Y-40887784D01*
X77990297Y-40957689D01*
X77965622Y-40991634D01*
X77869493Y-41085771D01*
X77771235Y-41238238D01*
X77768826Y-41244858D01*
X77768824Y-41244861D01*
X77723187Y-41370248D01*
X77709197Y-41408685D01*
X77686463Y-41588640D01*
X69540809Y-41588640D01*
X69533414Y-41582800D01*
X69533410Y-41582798D01*
X69529359Y-41579598D01*
X69487569Y-41556529D01*
X69437598Y-41506097D01*
X69422826Y-41436654D01*
X69447942Y-41370248D01*
X69475294Y-41343641D01*
X69650328Y-41218792D01*
X69658200Y-41212139D01*
X69809052Y-41061812D01*
X69815730Y-41053965D01*
X69940003Y-40881020D01*
X69945313Y-40872183D01*
X70039670Y-40681267D01*
X70043469Y-40671672D01*
X70105377Y-40467910D01*
X70107555Y-40457837D01*
X70108986Y-40446962D01*
X70106775Y-40432778D01*
X70093617Y-40429000D01*
X67458225Y-40429000D01*
X67444694Y-40432973D01*
X67443257Y-40442966D01*
X67473565Y-40577446D01*
X67476645Y-40587275D01*
X67556770Y-40784603D01*
X67561413Y-40793794D01*
X67672694Y-40975388D01*
X67678777Y-40983699D01*
X67818213Y-41144667D01*
X67825580Y-41151883D01*
X67989434Y-41287916D01*
X67997881Y-41293831D01*
X68066969Y-41334203D01*
X68115693Y-41385842D01*
X68128764Y-41455625D01*
X68102033Y-41521396D01*
X68061584Y-41554752D01*
X68048607Y-41561507D01*
X68044474Y-41564610D01*
X68044471Y-41564612D01*
X67961859Y-41626639D01*
X67869965Y-41695635D01*
X67715629Y-41857138D01*
X67589743Y-42041680D01*
X67564332Y-42096424D01*
X67506119Y-42221834D01*
X67495688Y-42244305D01*
X67435989Y-42459570D01*
X67412251Y-42681695D01*
X67412548Y-42686848D01*
X67412548Y-42686851D01*
X67420873Y-42831228D01*
X67425110Y-42904715D01*
X67426247Y-42909761D01*
X67426248Y-42909767D01*
X67446119Y-42997939D01*
X67474222Y-43122639D01*
X67558266Y-43329616D01*
X67587088Y-43376650D01*
X67668694Y-43509818D01*
X67674987Y-43520088D01*
X67821250Y-43688938D01*
X67993126Y-43831632D01*
X67998101Y-43834539D01*
X68066445Y-43874476D01*
X68115169Y-43926114D01*
X68128240Y-43995897D01*
X68101509Y-44061669D01*
X68061055Y-44095027D01*
X68048607Y-44101507D01*
X68044474Y-44104610D01*
X68044471Y-44104612D01*
X67874100Y-44232530D01*
X67869965Y-44235635D01*
X67866393Y-44239373D01*
X67772813Y-44337299D01*
X67715629Y-44397138D01*
X67712715Y-44401410D01*
X67712714Y-44401411D01*
X67703650Y-44414698D01*
X67589743Y-44581680D01*
X67495688Y-44784305D01*
X67435989Y-44999570D01*
X67412251Y-45221695D01*
X67412548Y-45226848D01*
X67412548Y-45226851D01*
X67418202Y-45324908D01*
X67425110Y-45444715D01*
X67426247Y-45449761D01*
X67426248Y-45449767D01*
X67433758Y-45483089D01*
X67474222Y-45662639D01*
X67558266Y-45869616D01*
X67674987Y-46060088D01*
X67821250Y-46228938D01*
X67993126Y-46371632D01*
X68063595Y-46412811D01*
X68066445Y-46414476D01*
X68115169Y-46466114D01*
X68128240Y-46535897D01*
X68101509Y-46601669D01*
X68061055Y-46635027D01*
X68048607Y-46641507D01*
X68044474Y-46644610D01*
X68044471Y-46644612D01*
X67945401Y-46718996D01*
X67869965Y-46775635D01*
X67825238Y-46822439D01*
X67723133Y-46929286D01*
X67715629Y-46937138D01*
X67712715Y-46941410D01*
X67712714Y-46941411D01*
X67688814Y-46976447D01*
X67589743Y-47121680D01*
X67574003Y-47155590D01*
X67500032Y-47314947D01*
X67495688Y-47324305D01*
X67435989Y-47539570D01*
X67412251Y-47761695D01*
X67412548Y-47766848D01*
X67412548Y-47766851D01*
X67418011Y-47861590D01*
X67425110Y-47984715D01*
X67426247Y-47989761D01*
X67426248Y-47989767D01*
X67442086Y-48060043D01*
X67474222Y-48202639D01*
X67558266Y-48409616D01*
X67674987Y-48600088D01*
X67821250Y-48768938D01*
X67993126Y-48911632D01*
X68063595Y-48952811D01*
X68066445Y-48954476D01*
X68115169Y-49006114D01*
X68128240Y-49075897D01*
X68101509Y-49141669D01*
X68061055Y-49175027D01*
X68048607Y-49181507D01*
X68044474Y-49184610D01*
X68044471Y-49184612D01*
X67874100Y-49312530D01*
X67869965Y-49315635D01*
X67715629Y-49477138D01*
X67589743Y-49661680D01*
X67495688Y-49864305D01*
X67435989Y-50079570D01*
X67412251Y-50301695D01*
X67412548Y-50306848D01*
X67412548Y-50306851D01*
X67419159Y-50421510D01*
X67425110Y-50524715D01*
X67426247Y-50529761D01*
X67426248Y-50529767D01*
X67446119Y-50617939D01*
X67474222Y-50742639D01*
X67558266Y-50949616D01*
X67674987Y-51140088D01*
X67821250Y-51308938D01*
X67993126Y-51451632D01*
X68047376Y-51483333D01*
X68066445Y-51494476D01*
X68115169Y-51546114D01*
X68128240Y-51615897D01*
X68101509Y-51681669D01*
X68061055Y-51715027D01*
X68048607Y-51721507D01*
X68044474Y-51724610D01*
X68044471Y-51724612D01*
X67881881Y-51846688D01*
X67869965Y-51855635D01*
X67866393Y-51859373D01*
X67719752Y-52012824D01*
X67715629Y-52017138D01*
X67712715Y-52021410D01*
X67712714Y-52021411D01*
X67705575Y-52031877D01*
X67589743Y-52201680D01*
X67495688Y-52404305D01*
X67435989Y-52619570D01*
X67412251Y-52841695D01*
X67412548Y-52846848D01*
X67412548Y-52846851D01*
X67421400Y-53000370D01*
X67425110Y-53064715D01*
X67426247Y-53069761D01*
X67426248Y-53069767D01*
X67439255Y-53127482D01*
X67474222Y-53282639D01*
X67558266Y-53489616D01*
X67674987Y-53680088D01*
X67821250Y-53848938D01*
X67993126Y-53991632D01*
X68050853Y-54025365D01*
X68066445Y-54034476D01*
X68115169Y-54086114D01*
X68128240Y-54155897D01*
X68101509Y-54221669D01*
X68061055Y-54255027D01*
X68048607Y-54261507D01*
X68044474Y-54264610D01*
X68044471Y-54264612D01*
X67874100Y-54392530D01*
X67869965Y-54395635D01*
X67715629Y-54557138D01*
X67589743Y-54741680D01*
X67495688Y-54944305D01*
X67435989Y-55159570D01*
X67412251Y-55381695D01*
X67412548Y-55386848D01*
X67412548Y-55386851D01*
X67424288Y-55590461D01*
X67425110Y-55604715D01*
X67426247Y-55609761D01*
X67426248Y-55609767D01*
X67439012Y-55666403D01*
X67474222Y-55822639D01*
X67516072Y-55925703D01*
X67553628Y-56018193D01*
X67558266Y-56029616D01*
X67594003Y-56087934D01*
X67653314Y-56184720D01*
X67674987Y-56220088D01*
X67821250Y-56388938D01*
X67993126Y-56531632D01*
X68063595Y-56572811D01*
X68066445Y-56574476D01*
X68115169Y-56626114D01*
X68128240Y-56695897D01*
X68101509Y-56761669D01*
X68061055Y-56795027D01*
X68048607Y-56801507D01*
X68044474Y-56804610D01*
X68044471Y-56804612D01*
X67874100Y-56932530D01*
X67869965Y-56935635D01*
X67866393Y-56939373D01*
X67724340Y-57088023D01*
X67715629Y-57097138D01*
X67589743Y-57281680D01*
X67495688Y-57484305D01*
X67435989Y-57699570D01*
X67412251Y-57921695D01*
X67412548Y-57926848D01*
X67412548Y-57926851D01*
X67422503Y-58099498D01*
X67425110Y-58144715D01*
X67426247Y-58149761D01*
X67426248Y-58149767D01*
X67446025Y-58237523D01*
X67474222Y-58362639D01*
X67558266Y-58569616D01*
X67674987Y-58760088D01*
X67821250Y-58928938D01*
X67993126Y-59071632D01*
X68063595Y-59112811D01*
X68066445Y-59114476D01*
X68115169Y-59166114D01*
X68128240Y-59235897D01*
X68101509Y-59301669D01*
X68061055Y-59335027D01*
X68048607Y-59341507D01*
X68044474Y-59344610D01*
X68044471Y-59344612D01*
X68020247Y-59362800D01*
X67869965Y-59475635D01*
X67715629Y-59637138D01*
X67589743Y-59821680D01*
X67495688Y-60024305D01*
X67435989Y-60239570D01*
X67412251Y-60461695D01*
X67412548Y-60466848D01*
X67412548Y-60466851D01*
X67417941Y-60560379D01*
X67425110Y-60684715D01*
X67426247Y-60689761D01*
X67426248Y-60689767D01*
X67440747Y-60754103D01*
X67474222Y-60902639D01*
X67558266Y-61109616D01*
X67560965Y-61114020D01*
X67670215Y-61292300D01*
X67674987Y-61300088D01*
X67821250Y-61468938D01*
X67993126Y-61611632D01*
X68035479Y-61636381D01*
X68066445Y-61654476D01*
X68115169Y-61706114D01*
X68128240Y-61775897D01*
X68101509Y-61841669D01*
X68061055Y-61875027D01*
X68048607Y-61881507D01*
X68044474Y-61884610D01*
X68044471Y-61884612D01*
X67874100Y-62012530D01*
X67869965Y-62015635D01*
X67804346Y-62084301D01*
X67744474Y-62146954D01*
X67715629Y-62177138D01*
X67589743Y-62361680D01*
X67574003Y-62395590D01*
X67505161Y-62543898D01*
X67495688Y-62564305D01*
X67435989Y-62779570D01*
X67412251Y-63001695D01*
X67412548Y-63006848D01*
X67412548Y-63006851D01*
X67421817Y-63167598D01*
X67425110Y-63224715D01*
X67426247Y-63229761D01*
X67426248Y-63229767D01*
X67438667Y-63284872D01*
X67474222Y-63442639D01*
X67558266Y-63649616D01*
X67560965Y-63654020D01*
X67671587Y-63834539D01*
X67674987Y-63840088D01*
X67821250Y-64008938D01*
X67993126Y-64151632D01*
X68035592Y-64176447D01*
X68066445Y-64194476D01*
X68115169Y-64246114D01*
X68128240Y-64315897D01*
X68101509Y-64381669D01*
X68061055Y-64415027D01*
X68048607Y-64421507D01*
X68044474Y-64424610D01*
X68044471Y-64424612D01*
X67938559Y-64504133D01*
X67869965Y-64555635D01*
X67715629Y-64717138D01*
X67589743Y-64901680D01*
X67574003Y-64935590D01*
X67498675Y-65097871D01*
X67495688Y-65104305D01*
X67435989Y-65319570D01*
X67412251Y-65541695D01*
X67412548Y-65546848D01*
X67412548Y-65546851D01*
X67418011Y-65641590D01*
X67425110Y-65764715D01*
X67426247Y-65769761D01*
X67426248Y-65769767D01*
X67446119Y-65857939D01*
X67474222Y-65982639D01*
X67558266Y-66189616D01*
X67674987Y-66380088D01*
X67821250Y-66548938D01*
X67993126Y-66691632D01*
X68063595Y-66732811D01*
X68066445Y-66734476D01*
X68115169Y-66786114D01*
X68128240Y-66855897D01*
X68101509Y-66921669D01*
X68061055Y-66955027D01*
X68048607Y-66961507D01*
X68044474Y-66964610D01*
X68044471Y-66964612D01*
X68020247Y-66982800D01*
X67869965Y-67095635D01*
X67715629Y-67257138D01*
X67589743Y-67441680D01*
X67574003Y-67475590D01*
X67502840Y-67628898D01*
X67495688Y-67644305D01*
X67435989Y-67859570D01*
X67412251Y-68081695D01*
X67412548Y-68086848D01*
X67412548Y-68086851D01*
X67424561Y-68295198D01*
X67425110Y-68304715D01*
X67426247Y-68309761D01*
X67426248Y-68309767D01*
X67427254Y-68314229D01*
X67474222Y-68522639D01*
X67558266Y-68729616D01*
X67560965Y-68734020D01*
X67645426Y-68871848D01*
X67674987Y-68920088D01*
X67821250Y-69088938D01*
X67993126Y-69231632D01*
X68063595Y-69272811D01*
X68066445Y-69274476D01*
X68115169Y-69326114D01*
X68128240Y-69395897D01*
X68101509Y-69461669D01*
X68061055Y-69495027D01*
X68048607Y-69501507D01*
X68044474Y-69504610D01*
X68044471Y-69504612D01*
X68020247Y-69522800D01*
X67869965Y-69635635D01*
X67715629Y-69797138D01*
X67589743Y-69981680D01*
X67495688Y-70184305D01*
X67435989Y-70399570D01*
X67412251Y-70621695D01*
X67412548Y-70626848D01*
X67412548Y-70626851D01*
X67418011Y-70721590D01*
X67425110Y-70844715D01*
X67426247Y-70849761D01*
X67426248Y-70849767D01*
X67446119Y-70937939D01*
X67474222Y-71062639D01*
X67558266Y-71269616D01*
X67674987Y-71460088D01*
X67821250Y-71628938D01*
X67993126Y-71771632D01*
X68063595Y-71812811D01*
X68066445Y-71814476D01*
X68115169Y-71866114D01*
X68128240Y-71935897D01*
X68101509Y-72001669D01*
X68061055Y-72035027D01*
X68048607Y-72041507D01*
X68044474Y-72044610D01*
X68044471Y-72044612D01*
X68020247Y-72062800D01*
X67869965Y-72175635D01*
X67715629Y-72337138D01*
X67589743Y-72521680D01*
X67495688Y-72724305D01*
X67435989Y-72939570D01*
X67412251Y-73161695D01*
X67412548Y-73166848D01*
X67412548Y-73166851D01*
X67418011Y-73261590D01*
X67425110Y-73384715D01*
X67426247Y-73389761D01*
X67426248Y-73389767D01*
X67446119Y-73477939D01*
X67474222Y-73602639D01*
X67558266Y-73809616D01*
X67674987Y-74000088D01*
X67821250Y-74168938D01*
X67993126Y-74311632D01*
X68063595Y-74352811D01*
X68066445Y-74354476D01*
X68115169Y-74406114D01*
X68128240Y-74475897D01*
X68101509Y-74541669D01*
X68061055Y-74575027D01*
X68048607Y-74581507D01*
X68044474Y-74584610D01*
X68044471Y-74584612D01*
X68020247Y-74602800D01*
X67869965Y-74715635D01*
X67715629Y-74877138D01*
X67589743Y-75061680D01*
X67495688Y-75264305D01*
X67435989Y-75479570D01*
X67412251Y-75701695D01*
X67133500Y-75701695D01*
X67133500Y-33634500D01*
X67153502Y-33566379D01*
X67207158Y-33519886D01*
X67259500Y-33508500D01*
X68504762Y-33508500D01*
X68572883Y-33528502D01*
G37*
%TD.AperFunction*%
%TD*%
M02*
