%TF.GenerationSoftware,KiCad,Pcbnew,(6.0.6)*%
%TF.CreationDate,2022-06-27T18:40:53+02:00*%
%TF.ProjectId,rp2040-mini,72703230-3430-42d6-9d69-6e692e6b6963,rev?*%
%TF.SameCoordinates,Original*%
%TF.FileFunction,Soldermask,Top*%
%TF.FilePolarity,Negative*%
%FSLAX46Y46*%
G04 Gerber Fmt 4.6, Leading zero omitted, Abs format (unit mm)*
G04 Created by KiCad (PCBNEW (6.0.6)) date 2022-06-27 18:40:53*
%MOMM*%
%LPD*%
G01*
G04 APERTURE LIST*
G04 Aperture macros list*
%AMRoundRect*
0 Rectangle with rounded corners*
0 $1 Rounding radius*
0 $2 $3 $4 $5 $6 $7 $8 $9 X,Y pos of 4 corners*
0 Add a 4 corners polygon primitive as box body*
4,1,4,$2,$3,$4,$5,$6,$7,$8,$9,$2,$3,0*
0 Add four circle primitives for the rounded corners*
1,1,$1+$1,$2,$3*
1,1,$1+$1,$4,$5*
1,1,$1+$1,$6,$7*
1,1,$1+$1,$8,$9*
0 Add four rect primitives between the rounded corners*
20,1,$1+$1,$2,$3,$4,$5,0*
20,1,$1+$1,$4,$5,$6,$7,0*
20,1,$1+$1,$6,$7,$8,$9,0*
20,1,$1+$1,$8,$9,$2,$3,0*%
G04 Aperture macros list end*
%ADD10RoundRect,0.160000X0.160000X-0.197500X0.160000X0.197500X-0.160000X0.197500X-0.160000X-0.197500X0*%
%ADD11RoundRect,0.155000X0.155000X-0.212500X0.155000X0.212500X-0.155000X0.212500X-0.155000X-0.212500X0*%
%ADD12R,1.560000X0.650000*%
%ADD13RoundRect,0.225000X0.225000X-0.475000X0.225000X0.475000X-0.225000X0.475000X-0.225000X-0.475000X0*%
%ADD14RoundRect,0.050000X-0.387500X-0.050000X0.387500X-0.050000X0.387500X0.050000X-0.387500X0.050000X0*%
%ADD15RoundRect,0.050000X-0.050000X-0.387500X0.050000X-0.387500X0.050000X0.387500X-0.050000X0.387500X0*%
%ADD16R,3.200000X3.200000*%
%ADD17R,1.500000X2.000000*%
%ADD18R,3.800000X2.000000*%
%ADD19RoundRect,0.150000X-0.150000X0.650000X-0.150000X-0.650000X0.150000X-0.650000X0.150000X0.650000X0*%
%ADD20RoundRect,0.155000X-0.155000X0.212500X-0.155000X-0.212500X0.155000X-0.212500X0.155000X0.212500X0*%
%ADD21R,0.400000X1.350000*%
%ADD22R,0.900000X1.700000*%
%ADD23C,0.550000*%
%ADD24R,1.700000X1.700000*%
%ADD25O,1.700000X1.700000*%
%ADD26RoundRect,0.155000X-0.212500X-0.155000X0.212500X-0.155000X0.212500X0.155000X-0.212500X0.155000X0*%
%ADD27RoundRect,0.160000X-0.160000X0.197500X-0.160000X-0.197500X0.160000X-0.197500X0.160000X0.197500X0*%
%ADD28R,1.400000X1.200000*%
%ADD29RoundRect,0.155000X0.212500X0.155000X-0.212500X0.155000X-0.212500X-0.155000X0.212500X-0.155000X0*%
%ADD30RoundRect,0.237500X-0.237500X0.287500X-0.237500X-0.287500X0.237500X-0.287500X0.237500X0.287500X0*%
G04 APERTURE END LIST*
D10*
%TO.C,R5*%
X82000000Y-66597500D03*
X82000000Y-65402500D03*
%TD*%
D11*
%TO.C,C12*%
X82250000Y-54317500D03*
X82250000Y-53182500D03*
%TD*%
D12*
%TO.C,U2*%
X72650000Y-39550000D03*
X72650000Y-40500000D03*
X72650000Y-41450000D03*
X75350000Y-41450000D03*
X75350000Y-40500000D03*
X75350000Y-39550000D03*
%TD*%
D11*
%TO.C,C10*%
X78500000Y-54317500D03*
X78500000Y-53182500D03*
%TD*%
D13*
%TO.C,SW1*%
X73150000Y-79000000D03*
X73150000Y-73000000D03*
X76850000Y-79000000D03*
X76850000Y-73000000D03*
%TD*%
%TO.C,SW2*%
X80650000Y-79000000D03*
X80650000Y-73000000D03*
X84350000Y-79000000D03*
X84350000Y-73000000D03*
%TD*%
D14*
%TO.C,U1*%
X75062500Y-57400000D03*
X75062500Y-57800000D03*
X75062500Y-58200000D03*
X75062500Y-58600000D03*
X75062500Y-59000000D03*
X75062500Y-59400000D03*
X75062500Y-59800000D03*
X75062500Y-60200000D03*
X75062500Y-60600000D03*
X75062500Y-61000000D03*
X75062500Y-61400000D03*
X75062500Y-61800000D03*
X75062500Y-62200000D03*
X75062500Y-62600000D03*
D15*
X75900000Y-63437500D03*
X76300000Y-63437500D03*
X76700000Y-63437500D03*
X77100000Y-63437500D03*
X77500000Y-63437500D03*
X77900000Y-63437500D03*
X78300000Y-63437500D03*
X78700000Y-63437500D03*
X79100000Y-63437500D03*
X79500000Y-63437500D03*
X79900000Y-63437500D03*
X80300000Y-63437500D03*
X80700000Y-63437500D03*
X81100000Y-63437500D03*
D14*
X81937500Y-62600000D03*
X81937500Y-62200000D03*
X81937500Y-61800000D03*
X81937500Y-61400000D03*
X81937500Y-61000000D03*
X81937500Y-60600000D03*
X81937500Y-60200000D03*
X81937500Y-59800000D03*
X81937500Y-59400000D03*
X81937500Y-59000000D03*
X81937500Y-58600000D03*
X81937500Y-58200000D03*
X81937500Y-57800000D03*
X81937500Y-57400000D03*
D15*
X81100000Y-56562500D03*
X80700000Y-56562500D03*
X80300000Y-56562500D03*
X79900000Y-56562500D03*
X79500000Y-56562500D03*
X79100000Y-56562500D03*
X78700000Y-56562500D03*
X78300000Y-56562500D03*
X77900000Y-56562500D03*
X77500000Y-56562500D03*
X77100000Y-56562500D03*
X76700000Y-56562500D03*
X76300000Y-56562500D03*
X75900000Y-56562500D03*
D16*
X78500000Y-60000000D03*
%TD*%
D17*
%TO.C,U3*%
X84300000Y-42850000D03*
D18*
X82000000Y-49150000D03*
D17*
X82000000Y-42850000D03*
X79700000Y-42850000D03*
%TD*%
D19*
%TO.C,U4*%
X76405000Y-43900000D03*
X75135000Y-43900000D03*
X73865000Y-43900000D03*
X72595000Y-43900000D03*
X72595000Y-51100000D03*
X73865000Y-51100000D03*
X75135000Y-51100000D03*
X76405000Y-51100000D03*
%TD*%
D10*
%TO.C,R3*%
X83500000Y-66597500D03*
X83500000Y-65402500D03*
%TD*%
D20*
%TO.C,C6*%
X79500000Y-68932500D03*
X79500000Y-70067500D03*
%TD*%
D21*
%TO.C,J3*%
X79800000Y-37225000D03*
X79150000Y-37225000D03*
X78500000Y-37225000D03*
X77850000Y-37225000D03*
X77200000Y-37225000D03*
D22*
X75675000Y-34550000D03*
D23*
X76500000Y-36700000D03*
X80500000Y-36700000D03*
D22*
X81325000Y-34550000D03*
%TD*%
D24*
%TO.C,J1*%
X68775000Y-78275000D03*
D25*
X68775000Y-75735000D03*
X68775000Y-73195000D03*
X68775000Y-70655000D03*
X68775000Y-68115000D03*
X68775000Y-65575000D03*
X68775000Y-63035000D03*
X68775000Y-60495000D03*
X68775000Y-57955000D03*
X68775000Y-55415000D03*
X68775000Y-52875000D03*
X68775000Y-50335000D03*
X68775000Y-47795000D03*
X68775000Y-45255000D03*
X68775000Y-42715000D03*
X68775000Y-40175000D03*
X68775000Y-37635000D03*
X68775000Y-35095000D03*
%TD*%
D26*
%TO.C,C1*%
X83932500Y-56000000D03*
X85067500Y-56000000D03*
%TD*%
%TO.C,C16*%
X78532500Y-51250000D03*
X79667500Y-51250000D03*
%TD*%
D27*
%TO.C,R2*%
X81000000Y-53152500D03*
X81000000Y-54347500D03*
%TD*%
D10*
%TO.C,R6*%
X82500000Y-70097500D03*
X82500000Y-68902500D03*
%TD*%
%TO.C,R1*%
X81000000Y-70097500D03*
X81000000Y-68902500D03*
%TD*%
D11*
%TO.C,C2*%
X83500000Y-54317500D03*
X83500000Y-53182500D03*
%TD*%
D20*
%TO.C,C7*%
X79000000Y-65432500D03*
X79000000Y-66567500D03*
%TD*%
D26*
%TO.C,C14*%
X81500000Y-40500000D03*
X82635000Y-40500000D03*
%TD*%
D28*
%TO.C,Y1*%
X77100000Y-68650000D03*
X74900000Y-68650000D03*
X74900000Y-70350000D03*
X77100000Y-70350000D03*
%TD*%
D27*
%TO.C,R4*%
X79750000Y-53152500D03*
X79750000Y-54347500D03*
%TD*%
D24*
%TO.C,J2*%
X88500000Y-78275000D03*
D25*
X88500000Y-75735000D03*
X88500000Y-73195000D03*
X88500000Y-70655000D03*
X88500000Y-68115000D03*
X88500000Y-65575000D03*
X88500000Y-63035000D03*
X88500000Y-60495000D03*
X88500000Y-57955000D03*
X88500000Y-55415000D03*
X88500000Y-52875000D03*
X88500000Y-50335000D03*
X88500000Y-47795000D03*
X88500000Y-45255000D03*
X88500000Y-42715000D03*
X88500000Y-40175000D03*
X88500000Y-37635000D03*
X88500000Y-35095000D03*
%TD*%
D26*
%TO.C,C4*%
X83932500Y-57500000D03*
X85067500Y-57500000D03*
%TD*%
D11*
%TO.C,C8*%
X77000000Y-54317500D03*
X77000000Y-53182500D03*
%TD*%
D27*
%TO.C,R7*%
X77500000Y-40402500D03*
X77500000Y-41597500D03*
%TD*%
D11*
%TO.C,C11*%
X75500000Y-54317500D03*
X75500000Y-53182500D03*
%TD*%
D10*
%TO.C,R8*%
X77500000Y-66597500D03*
X77500000Y-65402500D03*
%TD*%
D29*
%TO.C,C17*%
X73067500Y-61200000D03*
X71932500Y-61200000D03*
%TD*%
D30*
%TO.C,D1*%
X78750000Y-73125000D03*
X78750000Y-74875000D03*
%TD*%
D11*
%TO.C,C3*%
X74000000Y-54317500D03*
X74000000Y-53182500D03*
%TD*%
D27*
%TO.C,FB1*%
X80000000Y-38902500D03*
X80000000Y-40097500D03*
%TD*%
D20*
%TO.C,C9*%
X80500000Y-65432500D03*
X80500000Y-66567500D03*
%TD*%
D26*
%TO.C,C15*%
X83932500Y-51460000D03*
X85067500Y-51460000D03*
%TD*%
%TO.C,C13*%
X83932500Y-60900000D03*
X85067500Y-60900000D03*
%TD*%
D20*
%TO.C,C5*%
X72500000Y-68932500D03*
X72500000Y-70067500D03*
%TD*%
D24*
%TO.C,DEBUG*%
X81025000Y-77000000D03*
D25*
X78485000Y-77000000D03*
X75945000Y-77000000D03*
%TD*%
M02*
