%TF.GenerationSoftware,KiCad,Pcbnew,(6.0.6)*%
%TF.CreationDate,2022-06-27T18:40:53+02:00*%
%TF.ProjectId,rp2040-mini,72703230-3430-42d6-9d69-6e692e6b6963,rev?*%
%TF.SameCoordinates,Original*%
%TF.FileFunction,Legend,Bot*%
%TF.FilePolarity,Positive*%
%FSLAX46Y46*%
G04 Gerber Fmt 4.6, Leading zero omitted, Abs format (unit mm)*
G04 Created by KiCad (PCBNEW (6.0.6)) date 2022-06-27 18:40:53*
%MOMM*%
%LPD*%
G01*
G04 APERTURE LIST*
%ADD10C,0.150000*%
%ADD11C,0.120000*%
%ADD12R,0.900000X1.700000*%
%ADD13C,0.550000*%
%ADD14R,1.700000X1.700000*%
%ADD15O,1.700000X1.700000*%
G04 APERTURE END LIST*
D10*
%TO.C,DEBUG*%
X80738095Y-74952380D02*
X80738095Y-73952380D01*
X80500000Y-73952380D01*
X80357142Y-74000000D01*
X80261904Y-74095238D01*
X80214285Y-74190476D01*
X80166666Y-74380952D01*
X80166666Y-74523809D01*
X80214285Y-74714285D01*
X80261904Y-74809523D01*
X80357142Y-74904761D01*
X80500000Y-74952380D01*
X80738095Y-74952380D01*
X79738095Y-74428571D02*
X79404761Y-74428571D01*
X79261904Y-74952380D02*
X79738095Y-74952380D01*
X79738095Y-73952380D01*
X79261904Y-73952380D01*
X78500000Y-74428571D02*
X78357142Y-74476190D01*
X78309523Y-74523809D01*
X78261904Y-74619047D01*
X78261904Y-74761904D01*
X78309523Y-74857142D01*
X78357142Y-74904761D01*
X78452380Y-74952380D01*
X78833333Y-74952380D01*
X78833333Y-73952380D01*
X78500000Y-73952380D01*
X78404761Y-74000000D01*
X78357142Y-74047619D01*
X78309523Y-74142857D01*
X78309523Y-74238095D01*
X78357142Y-74333333D01*
X78404761Y-74380952D01*
X78500000Y-74428571D01*
X78833333Y-74428571D01*
X77833333Y-73952380D02*
X77833333Y-74761904D01*
X77785714Y-74857142D01*
X77738095Y-74904761D01*
X77642857Y-74952380D01*
X77452380Y-74952380D01*
X77357142Y-74904761D01*
X77309523Y-74857142D01*
X77261904Y-74761904D01*
X77261904Y-73952380D01*
X76261904Y-74000000D02*
X76357142Y-73952380D01*
X76500000Y-73952380D01*
X76642857Y-74000000D01*
X76738095Y-74095238D01*
X76785714Y-74190476D01*
X76833333Y-74380952D01*
X76833333Y-74523809D01*
X76785714Y-74714285D01*
X76738095Y-74809523D01*
X76642857Y-74904761D01*
X76500000Y-74952380D01*
X76404761Y-74952380D01*
X76261904Y-74904761D01*
X76214285Y-74857142D01*
X76214285Y-74523809D01*
X76404761Y-74523809D01*
D11*
X74615000Y-78330000D02*
X74615000Y-75670000D01*
X79755000Y-78330000D02*
X79755000Y-75670000D01*
X79755000Y-75670000D02*
X74615000Y-75670000D01*
X79755000Y-78330000D02*
X74615000Y-78330000D01*
X81025000Y-78330000D02*
X82355000Y-78330000D01*
X82355000Y-78330000D02*
X82355000Y-77000000D01*
%TD*%
%LPC*%
D12*
%TO.C,J3*%
X75675000Y-34550000D03*
D13*
X76500000Y-36700000D03*
X80500000Y-36700000D03*
D12*
X81325000Y-34550000D03*
%TD*%
D14*
%TO.C,J1*%
X68775000Y-78275000D03*
D15*
X68775000Y-75735000D03*
X68775000Y-73195000D03*
X68775000Y-70655000D03*
X68775000Y-68115000D03*
X68775000Y-65575000D03*
X68775000Y-63035000D03*
X68775000Y-60495000D03*
X68775000Y-57955000D03*
X68775000Y-55415000D03*
X68775000Y-52875000D03*
X68775000Y-50335000D03*
X68775000Y-47795000D03*
X68775000Y-45255000D03*
X68775000Y-42715000D03*
X68775000Y-40175000D03*
X68775000Y-37635000D03*
X68775000Y-35095000D03*
%TD*%
D14*
%TO.C,J2*%
X88500000Y-78275000D03*
D15*
X88500000Y-75735000D03*
X88500000Y-73195000D03*
X88500000Y-70655000D03*
X88500000Y-68115000D03*
X88500000Y-65575000D03*
X88500000Y-63035000D03*
X88500000Y-60495000D03*
X88500000Y-57955000D03*
X88500000Y-55415000D03*
X88500000Y-52875000D03*
X88500000Y-50335000D03*
X88500000Y-47795000D03*
X88500000Y-45255000D03*
X88500000Y-42715000D03*
X88500000Y-40175000D03*
X88500000Y-37635000D03*
X88500000Y-35095000D03*
%TD*%
D14*
%TO.C,DEBUG*%
X81025000Y-77000000D03*
D15*
X78485000Y-77000000D03*
X75945000Y-77000000D03*
%TD*%
M02*
