%TF.GenerationSoftware,KiCad,Pcbnew,(6.0.6)*%
%TF.CreationDate,2022-06-27T18:40:53+02:00*%
%TF.ProjectId,rp2040-mini,72703230-3430-42d6-9d69-6e692e6b6963,rev?*%
%TF.SameCoordinates,Original*%
%TF.FileFunction,Copper,L4,Bot*%
%TF.FilePolarity,Positive*%
%FSLAX46Y46*%
G04 Gerber Fmt 4.6, Leading zero omitted, Abs format (unit mm)*
G04 Created by KiCad (PCBNEW (6.0.6)) date 2022-06-27 18:40:53*
%MOMM*%
%LPD*%
G01*
G04 APERTURE LIST*
%TA.AperFunction,ComponentPad*%
%ADD10R,0.900000X1.700000*%
%TD*%
%TA.AperFunction,ComponentPad*%
%ADD11C,0.550000*%
%TD*%
%TA.AperFunction,ComponentPad*%
%ADD12R,1.700000X1.700000*%
%TD*%
%TA.AperFunction,ComponentPad*%
%ADD13O,1.700000X1.700000*%
%TD*%
%TA.AperFunction,ViaPad*%
%ADD14C,0.400000*%
%TD*%
%TA.AperFunction,ViaPad*%
%ADD15C,0.600000*%
%TD*%
%TA.AperFunction,Conductor*%
%ADD16C,0.200000*%
%TD*%
%TA.AperFunction,Conductor*%
%ADD17C,0.500000*%
%TD*%
%TA.AperFunction,Conductor*%
%ADD18C,0.100000*%
%TD*%
G04 APERTURE END LIST*
D10*
%TO.P,J3,6,Shield*%
%TO.N,GND*%
X75675000Y-34550000D03*
D11*
X76500000Y-36700000D03*
X80500000Y-36700000D03*
D10*
X81325000Y-34550000D03*
%TD*%
D12*
%TO.P,J1,1,Pin_1*%
%TO.N,/GPIO14*%
X68775000Y-78275000D03*
D13*
%TO.P,J1,2,Pin_2*%
%TO.N,/GPIO13*%
X68775000Y-75735000D03*
%TO.P,J1,3,Pin_3*%
%TO.N,/GPIO12*%
X68775000Y-73195000D03*
%TO.P,J1,4,Pin_4*%
%TO.N,/GPIO11*%
X68775000Y-70655000D03*
%TO.P,J1,5,Pin_5*%
%TO.N,/GPIO10*%
X68775000Y-68115000D03*
%TO.P,J1,6,Pin_6*%
%TO.N,/GPIO9*%
X68775000Y-65575000D03*
%TO.P,J1,7,Pin_7*%
%TO.N,/GPIO8*%
X68775000Y-63035000D03*
%TO.P,J1,8,Pin_8*%
%TO.N,/GPIO7*%
X68775000Y-60495000D03*
%TO.P,J1,9,Pin_9*%
%TO.N,/GPIO6*%
X68775000Y-57955000D03*
%TO.P,J1,10,Pin_10*%
%TO.N,/GPIO5*%
X68775000Y-55415000D03*
%TO.P,J1,11,Pin_11*%
%TO.N,/GPIO4*%
X68775000Y-52875000D03*
%TO.P,J1,12,Pin_12*%
%TO.N,/GPIO3*%
X68775000Y-50335000D03*
%TO.P,J1,13,Pin_13*%
%TO.N,/GPIO2*%
X68775000Y-47795000D03*
%TO.P,J1,14,Pin_14*%
%TO.N,/GPIO1*%
X68775000Y-45255000D03*
%TO.P,J1,15,Pin_15*%
%TO.N,/GPIO0*%
X68775000Y-42715000D03*
%TO.P,J1,16,Pin_16*%
%TO.N,GND*%
X68775000Y-40175000D03*
%TO.P,J1,17,Pin_17*%
%TO.N,+3V3*%
X68775000Y-37635000D03*
%TO.P,J1,18,Pin_18*%
%TO.N,VBUS*%
X68775000Y-35095000D03*
%TD*%
D12*
%TO.P,J2,1,Pin_1*%
%TO.N,/GPIO15*%
X88500000Y-78275000D03*
D13*
%TO.P,J2,2,Pin_2*%
%TO.N,/GPIO16*%
X88500000Y-75735000D03*
%TO.P,J2,3,Pin_3*%
%TO.N,/GPIO17*%
X88500000Y-73195000D03*
%TO.P,J2,4,Pin_4*%
%TO.N,/GPIO18*%
X88500000Y-70655000D03*
%TO.P,J2,5,Pin_5*%
%TO.N,/GPIO19*%
X88500000Y-68115000D03*
%TO.P,J2,6,Pin_6*%
%TO.N,/GPIO20*%
X88500000Y-65575000D03*
%TO.P,J2,7,Pin_7*%
%TO.N,/GPIO21*%
X88500000Y-63035000D03*
%TO.P,J2,8,Pin_8*%
%TO.N,/GPIO22*%
X88500000Y-60495000D03*
%TO.P,J2,9,Pin_9*%
%TO.N,/GPIO23*%
X88500000Y-57955000D03*
%TO.P,J2,10,Pin_10*%
%TO.N,/GPIO24*%
X88500000Y-55415000D03*
%TO.P,J2,11,Pin_11*%
%TO.N,/GPIO25*%
X88500000Y-52875000D03*
%TO.P,J2,12,Pin_12*%
%TO.N,/ADC0*%
X88500000Y-50335000D03*
%TO.P,J2,13,Pin_13*%
%TO.N,/ADC1*%
X88500000Y-47795000D03*
%TO.P,J2,14,Pin_14*%
%TO.N,/ADC2*%
X88500000Y-45255000D03*
%TO.P,J2,15,Pin_15*%
%TO.N,/ADC3*%
X88500000Y-42715000D03*
%TO.P,J2,16,Pin_16*%
%TO.N,GND*%
X88500000Y-40175000D03*
%TO.P,J2,17,Pin_17*%
%TO.N,+3V3*%
X88500000Y-37635000D03*
%TO.P,J2,18,Pin_18*%
%TO.N,VBUS*%
X88500000Y-35095000D03*
%TD*%
D12*
%TO.P,DEBUG,1,Pin_1*%
%TO.N,/RP2040/SWD*%
X81025000Y-77000000D03*
D13*
%TO.P,DEBUG,2,Pin_2*%
%TO.N,GND*%
X78485000Y-77000000D03*
%TO.P,DEBUG,3,Pin_3*%
%TO.N,/RP2040/SWCLK*%
X75945000Y-77000000D03*
%TD*%
D14*
%TO.N,GND*%
X81000000Y-47500000D03*
X70500000Y-38500000D03*
X85067500Y-54932500D03*
X85000000Y-56800000D03*
X81000000Y-45500000D03*
X84000000Y-34500000D03*
X74000000Y-76500000D03*
X81000000Y-46000000D03*
X83000000Y-45000000D03*
X83000000Y-47500000D03*
X77000000Y-71500000D03*
X70500000Y-40000000D03*
X73218553Y-55781448D03*
X76250000Y-59000000D03*
X80750000Y-57750000D03*
X72500000Y-67500000D03*
X81800000Y-69600000D03*
X76250000Y-59500000D03*
X76700000Y-61800000D03*
X76250000Y-58500000D03*
X79000000Y-47500000D03*
X81000000Y-46500000D03*
X81000000Y-45000000D03*
X79091250Y-52591250D03*
X80750000Y-59250000D03*
X83000000Y-46500000D03*
X85000000Y-39000000D03*
X80750000Y-58750000D03*
X80750000Y-58250000D03*
X72500000Y-55000000D03*
X81000000Y-47000000D03*
X76500000Y-45500000D03*
X70500000Y-42000000D03*
X76250000Y-60000000D03*
X81500000Y-51500000D03*
X78350000Y-70350000D03*
X82000000Y-73000000D03*
X75500000Y-73000000D03*
X85067500Y-52432500D03*
X83000000Y-44500000D03*
X82000000Y-79000000D03*
X82900000Y-53200000D03*
X83000000Y-46000000D03*
X77600000Y-62300000D03*
X74500000Y-65500000D03*
X72000000Y-71500000D03*
X85000000Y-50000000D03*
X76500000Y-47500000D03*
X71000000Y-61200000D03*
X81000000Y-44500000D03*
X79000000Y-67500000D03*
X77150000Y-62050000D03*
X80500000Y-67500000D03*
X85896800Y-60896800D03*
X85000000Y-47500000D03*
X83000000Y-76500000D03*
X75500000Y-79000000D03*
X73000000Y-38500000D03*
X83000000Y-45500000D03*
X83000000Y-47000000D03*
%TO.N,+3V3*%
X76060421Y-57931262D03*
X78700000Y-40747000D03*
X81817500Y-56000000D03*
X79000000Y-57250000D03*
X80900000Y-42800000D03*
X75750000Y-61000000D03*
X78700000Y-61999502D03*
X79112381Y-53708486D03*
X78481984Y-52281984D03*
%TO.N,+1V1*%
X79697147Y-57749500D03*
X79199500Y-62499500D03*
D15*
%TO.N,VBUS*%
X78500000Y-41600000D03*
X76629502Y-39700000D03*
D14*
%TO.N,/RP2040/USB_D-*%
X80700000Y-52016930D03*
X74325003Y-39600000D03*
%TO.N,/RP2040/USB_D+*%
X73725500Y-39600000D03*
X79600000Y-52016930D03*
%TO.N,/RP2040/QSPI_SS*%
X75793747Y-42846233D03*
X75000000Y-56600000D03*
X81411202Y-68295198D03*
%TO.N,/GPIO15*%
X76055945Y-61883936D03*
%TO.N,/RP2040/SWCLK*%
X79900000Y-64500000D03*
%TO.N,/RP2040/SWD*%
X80485113Y-62621287D03*
%TO.N,/GPIO22*%
X80694999Y-60985389D03*
%TO.N,/GPIO24*%
X80592260Y-60328379D03*
%TO.N,/RP2040/QSPI_SD3*%
X77739297Y-55760703D03*
X75150000Y-49750000D03*
%TO.N,/RP2040/QSPI_SCLK*%
X77832288Y-57431762D03*
X73900000Y-47300000D03*
%TO.N,/RP2040/QSPI_SD0*%
X76800000Y-57431762D03*
X72599500Y-47600000D03*
%TO.N,/RP2040/QSPI_SD2*%
X73900000Y-45000000D03*
X76157906Y-55192094D03*
%TO.N,/RP2040/QSPI_SD1*%
X75068592Y-55681408D03*
X74564500Y-44500000D03*
%TD*%
D16*
%TO.N,GND*%
X85896800Y-60896800D02*
X85896800Y-57696800D01*
D17*
X79091250Y-52591250D02*
X80500000Y-54000000D01*
D16*
X85896800Y-57696800D02*
X85000000Y-56800000D01*
D17*
%TO.N,+3V3*%
X78640030Y-42800000D02*
X73475030Y-37635000D01*
X83335000Y-42800000D02*
X88500000Y-37635000D01*
D16*
X79108486Y-53708486D02*
X79112381Y-53708486D01*
X75750000Y-58241683D02*
X75750000Y-61000000D01*
X78481984Y-53081984D02*
X79108486Y-53708486D01*
X78318738Y-57931262D02*
X79000000Y-57250000D01*
D17*
X80900000Y-42800000D02*
X78640030Y-42800000D01*
D16*
X76060421Y-57931262D02*
X78318738Y-57931262D01*
X80000000Y-57250000D02*
X81250000Y-56000000D01*
X78700000Y-61999502D02*
X78700000Y-57550000D01*
X78481984Y-52281984D02*
X78481984Y-53081984D01*
D17*
X73475030Y-37635000D02*
X68775000Y-37635000D01*
D16*
X78700000Y-57550000D02*
X79000000Y-57250000D01*
D17*
X78847000Y-40747000D02*
X78700000Y-40747000D01*
D16*
X76060421Y-57931262D02*
X75750000Y-58241683D01*
X79000000Y-57250000D02*
X80000000Y-57250000D01*
D17*
X80900000Y-42800000D02*
X78847000Y-40747000D01*
D16*
X81250000Y-56000000D02*
X81817500Y-56000000D01*
D17*
X80900000Y-42800000D02*
X83335000Y-42800000D01*
D16*
%TO.N,+1V1*%
X79353200Y-62345800D02*
X79353200Y-58146800D01*
X79353200Y-58146800D02*
X79697147Y-57802853D01*
X79199500Y-62499500D02*
X79353200Y-62345800D01*
X79697147Y-57802853D02*
X79697147Y-57749500D01*
D17*
%TO.N,VBUS*%
X76629502Y-39629502D02*
X72095000Y-35095000D01*
X76629502Y-39700000D02*
X76629502Y-39729502D01*
X76629502Y-39700000D02*
X76629502Y-39629502D01*
X76629502Y-39729502D02*
X78500000Y-41600000D01*
X72095000Y-35095000D02*
X68775000Y-35095000D01*
D18*
%TO.N,/RP2040/USB_D-*%
X80550000Y-51866930D02*
X80700000Y-52016930D01*
X74425252Y-39700249D02*
X74425252Y-39959566D01*
X74325003Y-39600000D02*
X74425252Y-39700249D01*
X74425252Y-39959566D02*
X80550000Y-46084314D01*
X80550000Y-46084314D02*
X80550000Y-51866930D01*
%TO.N,/RP2040/USB_D+*%
X79750000Y-46415686D02*
X79750000Y-51866930D01*
X73625252Y-40290938D02*
X75731036Y-42396722D01*
X75731036Y-42396722D02*
X75979942Y-42396722D01*
X76243258Y-42908944D02*
X79750000Y-46415686D01*
X73725500Y-39600000D02*
X73625252Y-39700248D01*
X73625252Y-39700248D02*
X73625252Y-40290938D01*
X79750000Y-51866930D02*
X79600000Y-52016930D01*
X76243258Y-42660038D02*
X76243258Y-42908944D01*
X75979942Y-42396722D02*
X76243258Y-42660038D01*
D16*
%TO.N,/RP2040/QSPI_SS*%
X75250489Y-56850489D02*
X75250489Y-61973542D01*
X75000000Y-56600000D02*
X75250489Y-56850489D01*
X75250489Y-61973542D02*
X76776947Y-63500000D01*
X79646792Y-64953208D02*
X79653208Y-64953208D01*
X78193584Y-63500000D02*
X79646792Y-64953208D01*
X75000000Y-56600000D02*
X71600000Y-53200000D01*
X81400000Y-66700000D02*
X81400000Y-68283996D01*
X79653208Y-64953208D02*
X81400000Y-66700000D01*
X71600000Y-45600000D02*
X74353767Y-42846233D01*
X81400000Y-68283996D02*
X81411202Y-68295198D01*
X76776947Y-63500000D02*
X78193584Y-63500000D01*
X74353767Y-42846233D02*
X75793747Y-42846233D01*
X71600000Y-53200000D02*
X71600000Y-45600000D01*
%TO.N,/GPIO15*%
X79355905Y-63049511D02*
X79699011Y-62706405D01*
X81015091Y-61384909D02*
X81984909Y-61384909D01*
X81984909Y-61384909D02*
X87200000Y-66600000D01*
X76055945Y-61883936D02*
X77221520Y-63049511D01*
X79699011Y-62700989D02*
X81015091Y-61384909D01*
X87200000Y-66600000D02*
X87200000Y-76975000D01*
X87200000Y-76975000D02*
X88500000Y-78275000D01*
X77221520Y-63049511D02*
X79355905Y-63049511D01*
X79699011Y-62706405D02*
X79699011Y-62700989D01*
%TO.N,/RP2040/SWCLK*%
X83499511Y-72206905D02*
X81706416Y-74000000D01*
X81706416Y-74000000D02*
X78945000Y-74000000D01*
X79900000Y-64634994D02*
X83499511Y-68234505D01*
X78945000Y-74000000D02*
X75945000Y-77000000D01*
X79900000Y-64500000D02*
X79900000Y-64634994D01*
X83499511Y-68234505D02*
X83499511Y-72206905D01*
%TO.N,/RP2040/SWD*%
X80485113Y-62621287D02*
X80485113Y-64655101D01*
X83899030Y-68069018D02*
X83899030Y-72400970D01*
X83899030Y-72400970D02*
X81025000Y-75275000D01*
X80485113Y-64655101D02*
X83899030Y-68069018D01*
X81025000Y-75275000D02*
X81025000Y-77000000D01*
%TO.N,/GPIO22*%
X88305000Y-60495000D02*
X88500000Y-60495000D01*
X82185389Y-60985389D02*
X83900000Y-62700000D01*
X86100000Y-62700000D02*
X88305000Y-60495000D01*
X80694999Y-60985389D02*
X82185389Y-60985389D01*
X83900000Y-62700000D02*
X86100000Y-62700000D01*
%TO.N,/GPIO24*%
X87350489Y-57478856D02*
X88500000Y-56329345D01*
X84065486Y-62300480D02*
X85934514Y-62300480D01*
X80592260Y-60328379D02*
X82093385Y-60328379D01*
X85934514Y-62300480D02*
X87350489Y-60884505D01*
X88500000Y-56329345D02*
X88500000Y-55415000D01*
X87350489Y-60884505D02*
X87350489Y-57478856D01*
X82093385Y-60328379D02*
X84065486Y-62300480D01*
%TO.N,/RP2040/QSPI_SD3*%
X76607924Y-52397874D02*
X76607924Y-52397873D01*
X77739297Y-55760703D02*
X77739297Y-52539297D01*
X77102899Y-51902899D02*
X77597873Y-51407924D01*
X75150000Y-49950000D02*
X75150000Y-49750000D01*
X77173608Y-50983659D02*
X77173608Y-50983660D01*
X76607924Y-52397873D02*
X77102899Y-51902899D01*
X77315032Y-52539296D02*
X77315031Y-52539296D01*
X76325075Y-50135127D02*
X76042232Y-50417969D01*
X77315031Y-52539296D02*
X77032189Y-52822139D01*
X75174072Y-49974072D02*
X75150000Y-49950000D01*
X75759394Y-51549342D02*
X76749340Y-50559391D01*
X77173608Y-50983660D02*
X76678633Y-51478633D01*
X75617968Y-50417969D02*
X75174072Y-49974072D01*
X75759392Y-51549341D02*
X75759394Y-51549342D01*
X76678633Y-51478633D02*
X76183657Y-51973606D01*
X76325075Y-50135126D02*
X76325075Y-50135127D01*
X75617969Y-50417968D02*
G75*
G03*
X76042231Y-50417968I212131J212131D01*
G01*
X77315069Y-52539332D02*
G75*
G02*
X77739297Y-52539297I212131J-212068D01*
G01*
X75759394Y-51973605D02*
G75*
G03*
X76183656Y-51973605I212131J212131D01*
G01*
X76607918Y-52397868D02*
G75*
G03*
X76607925Y-52822139I212182J-212132D01*
G01*
X77173568Y-50983619D02*
G75*
G02*
X77597873Y-50983660I212132J-212181D01*
G01*
X76749299Y-50135168D02*
G75*
G02*
X76749340Y-50559391I-212099J-212132D01*
G01*
X75759420Y-51549369D02*
G75*
G03*
X75759394Y-51973605I212080J-212131D01*
G01*
X76325068Y-50135119D02*
G75*
G02*
X76749340Y-50135127I212132J-212181D01*
G01*
X77597865Y-50983668D02*
G75*
G02*
X77597873Y-51407924I-212165J-212132D01*
G01*
X76607926Y-52822138D02*
G75*
G03*
X77032188Y-52822138I212131J212131D01*
G01*
%TO.N,/RP2040/QSPI_SCLK*%
X73900000Y-51700000D02*
X77239786Y-55039786D01*
X73900000Y-47300000D02*
X73900000Y-51700000D01*
X77239786Y-55039786D02*
X77239786Y-56839260D01*
X77239786Y-56839260D02*
X77832288Y-57431762D01*
%TO.N,/RP2040/QSPI_SD0*%
X72599500Y-47600000D02*
X72599500Y-51529512D01*
X74950000Y-54856416D02*
X76800000Y-56706416D01*
X74950000Y-53880012D02*
X74950000Y-54856416D01*
X76800000Y-56706416D02*
X76800000Y-57431762D01*
X72599500Y-51529512D02*
X74950000Y-53880012D01*
%TO.N,/RP2040/QSPI_SD2*%
X73300000Y-45600000D02*
X73900000Y-45000000D01*
X76157906Y-55192094D02*
X76157906Y-54522912D01*
X76157906Y-54522912D02*
X73300000Y-51665006D01*
X73300000Y-51665006D02*
X73300000Y-45600000D01*
%TO.N,/RP2040/QSPI_SD1*%
X72100000Y-46093584D02*
X73693584Y-44500000D01*
X73693584Y-44500000D02*
X74564500Y-44500000D01*
X72100489Y-49700489D02*
X72100000Y-49700000D01*
X74500000Y-55112816D02*
X74500000Y-54088724D01*
X72100489Y-51689213D02*
X72100489Y-49700489D01*
X75068592Y-55681408D02*
X74500000Y-55112816D01*
X72100000Y-49700000D02*
X72100000Y-46093584D01*
X74500000Y-54088724D02*
X72100489Y-51689213D01*
%TD*%
%TA.AperFunction,Conductor*%
%TO.N,GND*%
G36*
X68572883Y-33528502D02*
G01*
X68619376Y-33582158D01*
X68629480Y-33652432D01*
X68599986Y-33717012D01*
X68540260Y-33755396D01*
X68523821Y-33759050D01*
X68459091Y-33768955D01*
X68246756Y-33838357D01*
X68048607Y-33941507D01*
X68044474Y-33944610D01*
X68044471Y-33944612D01*
X68020247Y-33962800D01*
X67869965Y-34075635D01*
X67715629Y-34237138D01*
X67589743Y-34421680D01*
X67575218Y-34452972D01*
X67504144Y-34606089D01*
X67495688Y-34624305D01*
X67435989Y-34839570D01*
X67412251Y-35061695D01*
X67412548Y-35066848D01*
X67412548Y-35066851D01*
X67418011Y-35161590D01*
X67425110Y-35284715D01*
X67426247Y-35289761D01*
X67426248Y-35289767D01*
X67446119Y-35377939D01*
X67474222Y-35502639D01*
X67558266Y-35709616D01*
X67674987Y-35900088D01*
X67821250Y-36068938D01*
X67993126Y-36211632D01*
X68063595Y-36252811D01*
X68066445Y-36254476D01*
X68115169Y-36306114D01*
X68128240Y-36375897D01*
X68101509Y-36441669D01*
X68061055Y-36475027D01*
X68048607Y-36481507D01*
X68044474Y-36484610D01*
X68044471Y-36484612D01*
X67874100Y-36612530D01*
X67869965Y-36615635D01*
X67715629Y-36777138D01*
X67712715Y-36781410D01*
X67712714Y-36781411D01*
X67700404Y-36799457D01*
X67589743Y-36961680D01*
X67495688Y-37164305D01*
X67435989Y-37379570D01*
X67412251Y-37601695D01*
X67412548Y-37606848D01*
X67412548Y-37606851D01*
X67418011Y-37701590D01*
X67425110Y-37824715D01*
X67426247Y-37829761D01*
X67426248Y-37829767D01*
X67441913Y-37899274D01*
X67474222Y-38042639D01*
X67558266Y-38249616D01*
X67674987Y-38440088D01*
X67821250Y-38608938D01*
X67993126Y-38751632D01*
X68066955Y-38794774D01*
X68115679Y-38846412D01*
X68128750Y-38916195D01*
X68102019Y-38981967D01*
X68061562Y-39015327D01*
X68053457Y-39019546D01*
X68044738Y-39025036D01*
X67874433Y-39152905D01*
X67866726Y-39159748D01*
X67719590Y-39313717D01*
X67713104Y-39321727D01*
X67593098Y-39497649D01*
X67588000Y-39506623D01*
X67498338Y-39699783D01*
X67494775Y-39709470D01*
X67439389Y-39909183D01*
X67440912Y-39917607D01*
X67453292Y-39921000D01*
X70093344Y-39921000D01*
X70106875Y-39917027D01*
X70108180Y-39907947D01*
X70066214Y-39740875D01*
X70062894Y-39731124D01*
X69977972Y-39535814D01*
X69973105Y-39526739D01*
X69857426Y-39347926D01*
X69851136Y-39339757D01*
X69707806Y-39182240D01*
X69700273Y-39175215D01*
X69533139Y-39043222D01*
X69524556Y-39037520D01*
X69487602Y-39017120D01*
X69437631Y-38966687D01*
X69422859Y-38897245D01*
X69447975Y-38830839D01*
X69475327Y-38804232D01*
X69498797Y-38787491D01*
X69654860Y-38676173D01*
X69813096Y-38518489D01*
X69865203Y-38445974D01*
X69921198Y-38402326D01*
X69967526Y-38393500D01*
X73108659Y-38393500D01*
X73176780Y-38413502D01*
X73197754Y-38430405D01*
X73500982Y-38733633D01*
X73535008Y-38795945D01*
X73529943Y-38866760D01*
X73487396Y-38923596D01*
X73469677Y-38934694D01*
X73404438Y-38968367D01*
X73324339Y-39009709D01*
X73195115Y-39122439D01*
X73096510Y-39262739D01*
X73034218Y-39422509D01*
X73033226Y-39430042D01*
X73033226Y-39430043D01*
X73024326Y-39497649D01*
X73011835Y-39592526D01*
X73012669Y-39600076D01*
X73027137Y-39731124D01*
X73030653Y-39762975D01*
X73033262Y-39770106D01*
X73033263Y-39770108D01*
X73059078Y-39840651D01*
X73066752Y-39883952D01*
X73066752Y-40275776D01*
X73066641Y-40281052D01*
X73064003Y-40343992D01*
X73074103Y-40387052D01*
X73076266Y-40398725D01*
X73080931Y-40432778D01*
X73082268Y-40442542D01*
X73085680Y-40450425D01*
X73085680Y-40450427D01*
X73088391Y-40456692D01*
X73095426Y-40477964D01*
X73096983Y-40484605D01*
X73096984Y-40484609D01*
X73098945Y-40492968D01*
X73118000Y-40527630D01*
X73120255Y-40531731D01*
X73125477Y-40542391D01*
X73143040Y-40582976D01*
X73148443Y-40589649D01*
X73148446Y-40589653D01*
X73152741Y-40594957D01*
X73165233Y-40613547D01*
X73169479Y-40621270D01*
X73172663Y-40627061D01*
X73176975Y-40632056D01*
X73176978Y-40632060D01*
X73178261Y-40633546D01*
X73179774Y-40635298D01*
X73204723Y-40660247D01*
X73213548Y-40670047D01*
X73239338Y-40701895D01*
X73246340Y-40706871D01*
X73246341Y-40706872D01*
X73255022Y-40713041D01*
X73271128Y-40726652D01*
X74567114Y-42022638D01*
X74601140Y-42084950D01*
X74596075Y-42155765D01*
X74553528Y-42212601D01*
X74487008Y-42237412D01*
X74478019Y-42237733D01*
X74401911Y-42237733D01*
X74385465Y-42236655D01*
X74361955Y-42233560D01*
X74353767Y-42232482D01*
X74299624Y-42239610D01*
X74226044Y-42249297D01*
X74194916Y-42253395D01*
X74046891Y-42314709D01*
X74001072Y-42349867D01*
X73951704Y-42387748D01*
X73951688Y-42387762D01*
X73926333Y-42407217D01*
X73926330Y-42407220D01*
X73919780Y-42412246D01*
X73914750Y-42418801D01*
X73900315Y-42437612D01*
X73889448Y-42450003D01*
X71203766Y-45135685D01*
X71191375Y-45146552D01*
X71166013Y-45166013D01*
X71141526Y-45197925D01*
X71141523Y-45197928D01*
X71141517Y-45197936D01*
X71074110Y-45285782D01*
X71068476Y-45293124D01*
X71010928Y-45432058D01*
X71007162Y-45441150D01*
X70991500Y-45560115D01*
X70991500Y-45560120D01*
X70986250Y-45600000D01*
X70987328Y-45608188D01*
X70990422Y-45631690D01*
X70991500Y-45648136D01*
X70991500Y-53151864D01*
X70990422Y-53168307D01*
X70986250Y-53200000D01*
X70991500Y-53239880D01*
X70991500Y-53239885D01*
X71000259Y-53306415D01*
X71007162Y-53358851D01*
X71068476Y-53506876D01*
X71073503Y-53513427D01*
X71073504Y-53513429D01*
X71141520Y-53602069D01*
X71141526Y-53602075D01*
X71166013Y-53633987D01*
X71172568Y-53639017D01*
X71191379Y-53653452D01*
X71203770Y-53664319D01*
X74287055Y-56747604D01*
X74316286Y-56793398D01*
X74324385Y-56815530D01*
X74364085Y-56924015D01*
X74368322Y-56930321D01*
X74368324Y-56930324D01*
X74404307Y-56983872D01*
X74459730Y-57066349D01*
X74586565Y-57181760D01*
X74589961Y-57183604D01*
X74632918Y-57238119D01*
X74641989Y-57285062D01*
X74641989Y-61925406D01*
X74640911Y-61941849D01*
X74636739Y-61973542D01*
X74637817Y-61981731D01*
X74641872Y-62012530D01*
X74641989Y-62013422D01*
X74641989Y-62013427D01*
X74652420Y-62092655D01*
X74657651Y-62132393D01*
X74718965Y-62280418D01*
X74723992Y-62286969D01*
X74723993Y-62286971D01*
X74792009Y-62375611D01*
X74792015Y-62375617D01*
X74816502Y-62407529D01*
X74823057Y-62412559D01*
X74841868Y-62426994D01*
X74854259Y-62437861D01*
X76312632Y-63896234D01*
X76323499Y-63908625D01*
X76342960Y-63933987D01*
X76349510Y-63939013D01*
X76374868Y-63958471D01*
X76374884Y-63958485D01*
X76424252Y-63996366D01*
X76470071Y-64031524D01*
X76618096Y-64092838D01*
X76776947Y-64113751D01*
X76808646Y-64109578D01*
X76825091Y-64108500D01*
X77889345Y-64108500D01*
X77957466Y-64128502D01*
X77978440Y-64145405D01*
X79182477Y-65349442D01*
X79193344Y-65361833D01*
X79212805Y-65387195D01*
X79244717Y-65411682D01*
X79244720Y-65411685D01*
X79244728Y-65411691D01*
X79265749Y-65427821D01*
X79278140Y-65438689D01*
X80029068Y-66189616D01*
X80754595Y-66915143D01*
X80788620Y-66977455D01*
X80791500Y-67004238D01*
X80791500Y-67910897D01*
X80779909Y-67957039D01*
X80782212Y-67957937D01*
X80723355Y-68108898D01*
X80719920Y-68117707D01*
X80718928Y-68125240D01*
X80718928Y-68125241D01*
X80711510Y-68181590D01*
X80697537Y-68287724D01*
X80706946Y-68372948D01*
X80715414Y-68449649D01*
X80716355Y-68458173D01*
X80718964Y-68465304D01*
X80718965Y-68465306D01*
X80738101Y-68517596D01*
X80775287Y-68619213D01*
X80870932Y-68761547D01*
X80997767Y-68876958D01*
X81148470Y-68958783D01*
X81314341Y-69002299D01*
X81401788Y-69003672D01*
X81478205Y-69004873D01*
X81478208Y-69004873D01*
X81485804Y-69004992D01*
X81493208Y-69003296D01*
X81493210Y-69003296D01*
X81556048Y-68988904D01*
X81652961Y-68966708D01*
X81806160Y-68889657D01*
X81811931Y-68884728D01*
X81811934Y-68884726D01*
X81930780Y-68783221D01*
X81936557Y-68778287D01*
X82036626Y-68639028D01*
X82100587Y-68479918D01*
X82124749Y-68310145D01*
X82124823Y-68303055D01*
X82124863Y-68299331D01*
X82124863Y-68299325D01*
X82124906Y-68295198D01*
X82104304Y-68124956D01*
X82098237Y-68108898D01*
X82052972Y-67989109D01*
X82047604Y-67918315D01*
X82081362Y-67855858D01*
X82143528Y-67821566D01*
X82214365Y-67826328D01*
X82259933Y-67855476D01*
X82854106Y-68449649D01*
X82888132Y-68511961D01*
X82891011Y-68538744D01*
X82891011Y-71902666D01*
X82871009Y-71970787D01*
X82854106Y-71991761D01*
X81491272Y-73354595D01*
X81428960Y-73388621D01*
X81402177Y-73391500D01*
X78993144Y-73391500D01*
X78976698Y-73390422D01*
X78953188Y-73387327D01*
X78945000Y-73386249D01*
X78786149Y-73407162D01*
X78638124Y-73468476D01*
X78612650Y-73488023D01*
X78542937Y-73541515D01*
X78542921Y-73541529D01*
X78517566Y-73560984D01*
X78517563Y-73560987D01*
X78511013Y-73566013D01*
X78505983Y-73572568D01*
X78491548Y-73591379D01*
X78480681Y-73603770D01*
X76430048Y-75654403D01*
X76367736Y-75688429D01*
X76303287Y-75684358D01*
X76303087Y-75685116D01*
X76299256Y-75684104D01*
X76298895Y-75684081D01*
X76298089Y-75683796D01*
X76293212Y-75682069D01*
X76288123Y-75681162D01*
X76288121Y-75681162D01*
X76078373Y-75643800D01*
X76078367Y-75643799D01*
X76073284Y-75642894D01*
X75999452Y-75641992D01*
X75855081Y-75640228D01*
X75855079Y-75640228D01*
X75849911Y-75640165D01*
X75629091Y-75673955D01*
X75416756Y-75743357D01*
X75218607Y-75846507D01*
X75214474Y-75849610D01*
X75214471Y-75849612D01*
X75044100Y-75977530D01*
X75039965Y-75980635D01*
X74885629Y-76142138D01*
X74759743Y-76326680D01*
X74665688Y-76529305D01*
X74605989Y-76744570D01*
X74582251Y-76966695D01*
X74582548Y-76971848D01*
X74582548Y-76971851D01*
X74587421Y-77056358D01*
X74595110Y-77189715D01*
X74596247Y-77194761D01*
X74596248Y-77194767D01*
X74614160Y-77274246D01*
X74644222Y-77407639D01*
X74728266Y-77614616D01*
X74844987Y-77805088D01*
X74991250Y-77973938D01*
X75163126Y-78116632D01*
X75356000Y-78229338D01*
X75564692Y-78309030D01*
X75569760Y-78310061D01*
X75569763Y-78310062D01*
X75664862Y-78329410D01*
X75783597Y-78353567D01*
X75788772Y-78353757D01*
X75788774Y-78353757D01*
X76001673Y-78361564D01*
X76001677Y-78361564D01*
X76006837Y-78361753D01*
X76011957Y-78361097D01*
X76011959Y-78361097D01*
X76223288Y-78334025D01*
X76223289Y-78334025D01*
X76228416Y-78333368D01*
X76233366Y-78331883D01*
X76437429Y-78270661D01*
X76437434Y-78270659D01*
X76442384Y-78269174D01*
X76642994Y-78170896D01*
X76824860Y-78041173D01*
X76983096Y-77883489D01*
X77042594Y-77800689D01*
X77113453Y-77702077D01*
X77114640Y-77702930D01*
X77161960Y-77659362D01*
X77231897Y-77647145D01*
X77297338Y-77674678D01*
X77325166Y-77706511D01*
X77382694Y-77800388D01*
X77388777Y-77808699D01*
X77528213Y-77969667D01*
X77535580Y-77976883D01*
X77699434Y-78112916D01*
X77707881Y-78118831D01*
X77891756Y-78226279D01*
X77901042Y-78230729D01*
X78100001Y-78306703D01*
X78109899Y-78309579D01*
X78213250Y-78330606D01*
X78227299Y-78329410D01*
X78231000Y-78319065D01*
X78231000Y-75683102D01*
X78227422Y-75670916D01*
X78227424Y-75599919D01*
X78259224Y-75546325D01*
X79160144Y-74645405D01*
X79222456Y-74611379D01*
X79249239Y-74608500D01*
X80522846Y-74608500D01*
X80590967Y-74628502D01*
X80637460Y-74682158D01*
X80647564Y-74752432D01*
X80618070Y-74817012D01*
X80599553Y-74834460D01*
X80591013Y-74841013D01*
X80566526Y-74872925D01*
X80566523Y-74872928D01*
X80493476Y-74968124D01*
X80432162Y-75116149D01*
X80432162Y-75116150D01*
X80416500Y-75235115D01*
X80416500Y-75235120D01*
X80411250Y-75275000D01*
X80412328Y-75283188D01*
X80415422Y-75306690D01*
X80416500Y-75323136D01*
X80416500Y-75515500D01*
X80396498Y-75583621D01*
X80342842Y-75630114D01*
X80290500Y-75641500D01*
X80126866Y-75641500D01*
X80064684Y-75648255D01*
X79928295Y-75699385D01*
X79811739Y-75786739D01*
X79724385Y-75903295D01*
X79721233Y-75911703D01*
X79721232Y-75911705D01*
X79679722Y-76022433D01*
X79637081Y-76079198D01*
X79570519Y-76103898D01*
X79501170Y-76088691D01*
X79468546Y-76063004D01*
X79417799Y-76007234D01*
X79410273Y-76000215D01*
X79243139Y-75868222D01*
X79234552Y-75862517D01*
X79048117Y-75759599D01*
X79038705Y-75755369D01*
X78837959Y-75684280D01*
X78827988Y-75681646D01*
X78756837Y-75668972D01*
X78743540Y-75670432D01*
X78739000Y-75684989D01*
X78739000Y-78318517D01*
X78743064Y-78332359D01*
X78756478Y-78334393D01*
X78763184Y-78333534D01*
X78773262Y-78331392D01*
X78977255Y-78270191D01*
X78986842Y-78266433D01*
X79178095Y-78172739D01*
X79186945Y-78167464D01*
X79360328Y-78043792D01*
X79368193Y-78037145D01*
X79472897Y-77932805D01*
X79535268Y-77898889D01*
X79606075Y-77904077D01*
X79662837Y-77946723D01*
X79679819Y-77977826D01*
X79724385Y-78096705D01*
X79811739Y-78213261D01*
X79928295Y-78300615D01*
X80064684Y-78351745D01*
X80126866Y-78358500D01*
X81923134Y-78358500D01*
X81985316Y-78351745D01*
X82121705Y-78300615D01*
X82238261Y-78213261D01*
X82325615Y-78096705D01*
X82376745Y-77960316D01*
X82383500Y-77898134D01*
X82383500Y-76101866D01*
X82376745Y-76039684D01*
X82325615Y-75903295D01*
X82238261Y-75786739D01*
X82121705Y-75699385D01*
X81985316Y-75648255D01*
X81923134Y-75641500D01*
X81823239Y-75641500D01*
X81755118Y-75621498D01*
X81708625Y-75567842D01*
X81698521Y-75497568D01*
X81728015Y-75432988D01*
X81734144Y-75426405D01*
X84295264Y-72865285D01*
X84307655Y-72854418D01*
X84326467Y-72839983D01*
X84333017Y-72834957D01*
X84357504Y-72803045D01*
X84357510Y-72803039D01*
X84425526Y-72714399D01*
X84425527Y-72714397D01*
X84430554Y-72707846D01*
X84471506Y-72608977D01*
X84491868Y-72559820D01*
X84507530Y-72440855D01*
X84507530Y-72440848D01*
X84512780Y-72400970D01*
X84508608Y-72369277D01*
X84507530Y-72352834D01*
X84507530Y-68117154D01*
X84508608Y-68100708D01*
X84511702Y-68077206D01*
X84512780Y-68069018D01*
X84507530Y-68029138D01*
X84507530Y-68029133D01*
X84491868Y-67910168D01*
X84484809Y-67893126D01*
X84430554Y-67762142D01*
X84357508Y-67666947D01*
X84357504Y-67666943D01*
X84343964Y-67649297D01*
X84338046Y-67641584D01*
X84338043Y-67641581D01*
X84333017Y-67635031D01*
X84326462Y-67630001D01*
X84307651Y-67615566D01*
X84295260Y-67604699D01*
X81130518Y-64439957D01*
X81096492Y-64377645D01*
X81093613Y-64350862D01*
X81093613Y-63026359D01*
X81108671Y-62967714D01*
X81110537Y-62965117D01*
X81174498Y-62806007D01*
X81177529Y-62784707D01*
X81198079Y-62640318D01*
X81198079Y-62640314D01*
X81198660Y-62636234D01*
X81198817Y-62621287D01*
X81178215Y-62451045D01*
X81174424Y-62441011D01*
X81120284Y-62297734D01*
X81117600Y-62290631D01*
X81113299Y-62284373D01*
X81109779Y-62277640D01*
X81112459Y-62276239D01*
X81094699Y-62221947D01*
X81112611Y-62153247D01*
X81131545Y-62129004D01*
X81230235Y-62030314D01*
X81292547Y-61996288D01*
X81319330Y-61993409D01*
X81680670Y-61993409D01*
X81748791Y-62013411D01*
X81769765Y-62030314D01*
X86554595Y-66815144D01*
X86588621Y-66877456D01*
X86591500Y-66904239D01*
X86591500Y-76926864D01*
X86590422Y-76943307D01*
X86586250Y-76975000D01*
X86591500Y-77014880D01*
X86591500Y-77014885D01*
X86602278Y-77096753D01*
X86607162Y-77133851D01*
X86668476Y-77281876D01*
X86673503Y-77288427D01*
X86673504Y-77288429D01*
X86741520Y-77377069D01*
X86741526Y-77377075D01*
X86766013Y-77408987D01*
X86772568Y-77414017D01*
X86791379Y-77428452D01*
X86803770Y-77439319D01*
X87104595Y-77740144D01*
X87138621Y-77802456D01*
X87141500Y-77829239D01*
X87141500Y-79173134D01*
X87148255Y-79235316D01*
X87199385Y-79371705D01*
X87286739Y-79488261D01*
X87403295Y-79575615D01*
X87539684Y-79626745D01*
X87601866Y-79633500D01*
X89398134Y-79633500D01*
X89460316Y-79626745D01*
X89596705Y-79575615D01*
X89713261Y-79488261D01*
X89800615Y-79371705D01*
X89851745Y-79235316D01*
X89858500Y-79173134D01*
X89858500Y-77376866D01*
X89851745Y-77314684D01*
X89800615Y-77178295D01*
X89713261Y-77061739D01*
X89596705Y-76974385D01*
X89562500Y-76961562D01*
X89478203Y-76929960D01*
X89421439Y-76887318D01*
X89396739Y-76820756D01*
X89411947Y-76751408D01*
X89433493Y-76722727D01*
X89534435Y-76622137D01*
X89538096Y-76618489D01*
X89597594Y-76535689D01*
X89665435Y-76441277D01*
X89668453Y-76437077D01*
X89767430Y-76236811D01*
X89809462Y-76098469D01*
X89830865Y-76028023D01*
X89830865Y-76028021D01*
X89832370Y-76023069D01*
X89861529Y-75801590D01*
X89861611Y-75798240D01*
X89863074Y-75738365D01*
X89863074Y-75738361D01*
X89863156Y-75735000D01*
X89844852Y-75512361D01*
X89790431Y-75295702D01*
X89701354Y-75090840D01*
X89661906Y-75029862D01*
X89582822Y-74907617D01*
X89582820Y-74907614D01*
X89580014Y-74903277D01*
X89429670Y-74738051D01*
X89425619Y-74734852D01*
X89425615Y-74734848D01*
X89258414Y-74602800D01*
X89258410Y-74602798D01*
X89254359Y-74599598D01*
X89213053Y-74576796D01*
X89163084Y-74526364D01*
X89148312Y-74456921D01*
X89173428Y-74390516D01*
X89200780Y-74363909D01*
X89244603Y-74332650D01*
X89379860Y-74236173D01*
X89538096Y-74078489D01*
X89597594Y-73995689D01*
X89665435Y-73901277D01*
X89668453Y-73897077D01*
X89767430Y-73696811D01*
X89808698Y-73560984D01*
X89830865Y-73488023D01*
X89830865Y-73488021D01*
X89832370Y-73483069D01*
X89861529Y-73261590D01*
X89863156Y-73195000D01*
X89844852Y-72972361D01*
X89790431Y-72755702D01*
X89701354Y-72550840D01*
X89661906Y-72489862D01*
X89582822Y-72367617D01*
X89582820Y-72367614D01*
X89580014Y-72363277D01*
X89429670Y-72198051D01*
X89425619Y-72194852D01*
X89425615Y-72194848D01*
X89258414Y-72062800D01*
X89258410Y-72062798D01*
X89254359Y-72059598D01*
X89213053Y-72036796D01*
X89163084Y-71986364D01*
X89148312Y-71916921D01*
X89173428Y-71850516D01*
X89200780Y-71823909D01*
X89244603Y-71792650D01*
X89379860Y-71696173D01*
X89538096Y-71538489D01*
X89597594Y-71455689D01*
X89665435Y-71361277D01*
X89668453Y-71357077D01*
X89767430Y-71156811D01*
X89832370Y-70943069D01*
X89861529Y-70721590D01*
X89863156Y-70655000D01*
X89844852Y-70432361D01*
X89790431Y-70215702D01*
X89701354Y-70010840D01*
X89580014Y-69823277D01*
X89429670Y-69658051D01*
X89425619Y-69654852D01*
X89425615Y-69654848D01*
X89258414Y-69522800D01*
X89258410Y-69522798D01*
X89254359Y-69519598D01*
X89213053Y-69496796D01*
X89163084Y-69446364D01*
X89148312Y-69376921D01*
X89173428Y-69310516D01*
X89200780Y-69283909D01*
X89244603Y-69252650D01*
X89379860Y-69156173D01*
X89538096Y-68998489D01*
X89566628Y-68958783D01*
X89665435Y-68821277D01*
X89668453Y-68817077D01*
X89690674Y-68772117D01*
X89765136Y-68621453D01*
X89765137Y-68621451D01*
X89767430Y-68616811D01*
X89832370Y-68403069D01*
X89861529Y-68181590D01*
X89861611Y-68178240D01*
X89863074Y-68118365D01*
X89863074Y-68118361D01*
X89863156Y-68115000D01*
X89844852Y-67892361D01*
X89790431Y-67675702D01*
X89701354Y-67470840D01*
X89580014Y-67283277D01*
X89429670Y-67118051D01*
X89425619Y-67114852D01*
X89425615Y-67114848D01*
X89258414Y-66982800D01*
X89258410Y-66982798D01*
X89254359Y-66979598D01*
X89213053Y-66956796D01*
X89163084Y-66906364D01*
X89148312Y-66836921D01*
X89173428Y-66770516D01*
X89200780Y-66743909D01*
X89244603Y-66712650D01*
X89379860Y-66616173D01*
X89538096Y-66458489D01*
X89597594Y-66375689D01*
X89665435Y-66281277D01*
X89668453Y-66277077D01*
X89767430Y-66076811D01*
X89832370Y-65863069D01*
X89861529Y-65641590D01*
X89863156Y-65575000D01*
X89844852Y-65352361D01*
X89790431Y-65135702D01*
X89701354Y-64930840D01*
X89580014Y-64743277D01*
X89429670Y-64578051D01*
X89425619Y-64574852D01*
X89425615Y-64574848D01*
X89258414Y-64442800D01*
X89258410Y-64442798D01*
X89254359Y-64439598D01*
X89213053Y-64416796D01*
X89163084Y-64366364D01*
X89148312Y-64296921D01*
X89173428Y-64230516D01*
X89200780Y-64203909D01*
X89244603Y-64172650D01*
X89379860Y-64076173D01*
X89538096Y-63918489D01*
X89597594Y-63835689D01*
X89665435Y-63741277D01*
X89668453Y-63737077D01*
X89714009Y-63644902D01*
X89765136Y-63541453D01*
X89765137Y-63541451D01*
X89767430Y-63536811D01*
X89832370Y-63323069D01*
X89861529Y-63101590D01*
X89863156Y-63035000D01*
X89844852Y-62812361D01*
X89790431Y-62595702D01*
X89701354Y-62390840D01*
X89580014Y-62203277D01*
X89429670Y-62038051D01*
X89425619Y-62034852D01*
X89425615Y-62034848D01*
X89258414Y-61902800D01*
X89258410Y-61902798D01*
X89254359Y-61899598D01*
X89213053Y-61876796D01*
X89163084Y-61826364D01*
X89148312Y-61756921D01*
X89173428Y-61690516D01*
X89200780Y-61663909D01*
X89244603Y-61632650D01*
X89379860Y-61536173D01*
X89538096Y-61378489D01*
X89597594Y-61295689D01*
X89665435Y-61201277D01*
X89668453Y-61197077D01*
X89675314Y-61183196D01*
X89765136Y-61001453D01*
X89765137Y-61001451D01*
X89767430Y-60996811D01*
X89832370Y-60783069D01*
X89861529Y-60561590D01*
X89863156Y-60495000D01*
X89844852Y-60272361D01*
X89790431Y-60055702D01*
X89701354Y-59850840D01*
X89628808Y-59738701D01*
X89582822Y-59667617D01*
X89582820Y-59667614D01*
X89580014Y-59663277D01*
X89429670Y-59498051D01*
X89425619Y-59494852D01*
X89425615Y-59494848D01*
X89258414Y-59362800D01*
X89258410Y-59362798D01*
X89254359Y-59359598D01*
X89213053Y-59336796D01*
X89163084Y-59286364D01*
X89148312Y-59216921D01*
X89173428Y-59150516D01*
X89200780Y-59123909D01*
X89244603Y-59092650D01*
X89379860Y-58996173D01*
X89538096Y-58838489D01*
X89597594Y-58755689D01*
X89665435Y-58661277D01*
X89668453Y-58657077D01*
X89690030Y-58613420D01*
X89765136Y-58461453D01*
X89765137Y-58461451D01*
X89767430Y-58456811D01*
X89832370Y-58243069D01*
X89861529Y-58021590D01*
X89863156Y-57955000D01*
X89844852Y-57732361D01*
X89790431Y-57515702D01*
X89701354Y-57310840D01*
X89644067Y-57222288D01*
X89582822Y-57127617D01*
X89582820Y-57127614D01*
X89580014Y-57123277D01*
X89429670Y-56958051D01*
X89425619Y-56954852D01*
X89425615Y-56954848D01*
X89258414Y-56822800D01*
X89258410Y-56822798D01*
X89254359Y-56819598D01*
X89213053Y-56796796D01*
X89163084Y-56746364D01*
X89148312Y-56676921D01*
X89173428Y-56610516D01*
X89200780Y-56583909D01*
X89257046Y-56543775D01*
X89379860Y-56456173D01*
X89538096Y-56298489D01*
X89597594Y-56215689D01*
X89665435Y-56121277D01*
X89668453Y-56117077D01*
X89678135Y-56097488D01*
X89765136Y-55921453D01*
X89765137Y-55921451D01*
X89767430Y-55916811D01*
X89832370Y-55703069D01*
X89861529Y-55481590D01*
X89861727Y-55473502D01*
X89863074Y-55418365D01*
X89863074Y-55418361D01*
X89863156Y-55415000D01*
X89844852Y-55192361D01*
X89790431Y-54975702D01*
X89701354Y-54770840D01*
X89580014Y-54583277D01*
X89429670Y-54418051D01*
X89425619Y-54414852D01*
X89425615Y-54414848D01*
X89258414Y-54282800D01*
X89258410Y-54282798D01*
X89254359Y-54279598D01*
X89213053Y-54256796D01*
X89163084Y-54206364D01*
X89148312Y-54136921D01*
X89173428Y-54070516D01*
X89200780Y-54043909D01*
X89244603Y-54012650D01*
X89379860Y-53916173D01*
X89402908Y-53893206D01*
X89488064Y-53808346D01*
X89538096Y-53758489D01*
X89597594Y-53675689D01*
X89665435Y-53581277D01*
X89668453Y-53577077D01*
X89683919Y-53545785D01*
X89765136Y-53381453D01*
X89765137Y-53381451D01*
X89767430Y-53376811D01*
X89811594Y-53231452D01*
X89830865Y-53168023D01*
X89830865Y-53168021D01*
X89832370Y-53163069D01*
X89861529Y-52941590D01*
X89863156Y-52875000D01*
X89844852Y-52652361D01*
X89790431Y-52435702D01*
X89701354Y-52230840D01*
X89580014Y-52043277D01*
X89429670Y-51878051D01*
X89425619Y-51874852D01*
X89425615Y-51874848D01*
X89258414Y-51742800D01*
X89258410Y-51742798D01*
X89254359Y-51739598D01*
X89213053Y-51716796D01*
X89163084Y-51666364D01*
X89148312Y-51596921D01*
X89173428Y-51530516D01*
X89200780Y-51503909D01*
X89249013Y-51469505D01*
X89379860Y-51376173D01*
X89538096Y-51218489D01*
X89588045Y-51148978D01*
X89665435Y-51041277D01*
X89668453Y-51037077D01*
X89704135Y-50964881D01*
X89765136Y-50841453D01*
X89765137Y-50841451D01*
X89767430Y-50836811D01*
X89832370Y-50623069D01*
X89861529Y-50401590D01*
X89862660Y-50355310D01*
X89863074Y-50338365D01*
X89863074Y-50338361D01*
X89863156Y-50335000D01*
X89844852Y-50112361D01*
X89790431Y-49895702D01*
X89701354Y-49690840D01*
X89634940Y-49588180D01*
X89582822Y-49507617D01*
X89582820Y-49507614D01*
X89580014Y-49503277D01*
X89429670Y-49338051D01*
X89425619Y-49334852D01*
X89425615Y-49334848D01*
X89258414Y-49202800D01*
X89258410Y-49202798D01*
X89254359Y-49199598D01*
X89213053Y-49176796D01*
X89163084Y-49126364D01*
X89148312Y-49056921D01*
X89173428Y-48990516D01*
X89200780Y-48963909D01*
X89244603Y-48932650D01*
X89379860Y-48836173D01*
X89538096Y-48678489D01*
X89597594Y-48595689D01*
X89665435Y-48501277D01*
X89668453Y-48497077D01*
X89767430Y-48296811D01*
X89832370Y-48083069D01*
X89861529Y-47861590D01*
X89863156Y-47795000D01*
X89844852Y-47572361D01*
X89790431Y-47355702D01*
X89701354Y-47150840D01*
X89580014Y-46963277D01*
X89429670Y-46798051D01*
X89425619Y-46794852D01*
X89425615Y-46794848D01*
X89258414Y-46662800D01*
X89258410Y-46662798D01*
X89254359Y-46659598D01*
X89213053Y-46636796D01*
X89163084Y-46586364D01*
X89148312Y-46516921D01*
X89173428Y-46450516D01*
X89200780Y-46423909D01*
X89244603Y-46392650D01*
X89379860Y-46296173D01*
X89538096Y-46138489D01*
X89597594Y-46055689D01*
X89665435Y-45961277D01*
X89668453Y-45957077D01*
X89676290Y-45941221D01*
X89765136Y-45761453D01*
X89765137Y-45761451D01*
X89767430Y-45756811D01*
X89815720Y-45597871D01*
X89830865Y-45548023D01*
X89830865Y-45548021D01*
X89832370Y-45543069D01*
X89861529Y-45321590D01*
X89863156Y-45255000D01*
X89844852Y-45032361D01*
X89790431Y-44815702D01*
X89701354Y-44610840D01*
X89639318Y-44514947D01*
X89582822Y-44427617D01*
X89582820Y-44427614D01*
X89580014Y-44423277D01*
X89429670Y-44258051D01*
X89425619Y-44254852D01*
X89425615Y-44254848D01*
X89258414Y-44122800D01*
X89258410Y-44122798D01*
X89254359Y-44119598D01*
X89213053Y-44096796D01*
X89163084Y-44046364D01*
X89148312Y-43976921D01*
X89173428Y-43910516D01*
X89200780Y-43883909D01*
X89266188Y-43837254D01*
X89379860Y-43756173D01*
X89538096Y-43598489D01*
X89549593Y-43582490D01*
X89665435Y-43421277D01*
X89668453Y-43417077D01*
X89675611Y-43402595D01*
X89765136Y-43221453D01*
X89765137Y-43221451D01*
X89767430Y-43216811D01*
X89832370Y-43003069D01*
X89861529Y-42781590D01*
X89863156Y-42715000D01*
X89844852Y-42492361D01*
X89790431Y-42275702D01*
X89701354Y-42070840D01*
X89580014Y-41883277D01*
X89429670Y-41718051D01*
X89425619Y-41714852D01*
X89425615Y-41714848D01*
X89258414Y-41582800D01*
X89258410Y-41582798D01*
X89254359Y-41579598D01*
X89212569Y-41556529D01*
X89162598Y-41506097D01*
X89147826Y-41436654D01*
X89172942Y-41370248D01*
X89200294Y-41343641D01*
X89375328Y-41218792D01*
X89383200Y-41212139D01*
X89534052Y-41061812D01*
X89540730Y-41053965D01*
X89665003Y-40881020D01*
X89670313Y-40872183D01*
X89764670Y-40681267D01*
X89768469Y-40671672D01*
X89830377Y-40467910D01*
X89832555Y-40457837D01*
X89833986Y-40446962D01*
X89831775Y-40432778D01*
X89818617Y-40429000D01*
X88372000Y-40429000D01*
X88303879Y-40408998D01*
X88257386Y-40355342D01*
X88246000Y-40303000D01*
X88246000Y-40047000D01*
X88266002Y-39978879D01*
X88319658Y-39932386D01*
X88372000Y-39921000D01*
X89818344Y-39921000D01*
X89831875Y-39917027D01*
X89833180Y-39907947D01*
X89791214Y-39740875D01*
X89787894Y-39731124D01*
X89702972Y-39535814D01*
X89698105Y-39526739D01*
X89582426Y-39347926D01*
X89576136Y-39339757D01*
X89432806Y-39182240D01*
X89425273Y-39175215D01*
X89258139Y-39043222D01*
X89249556Y-39037520D01*
X89212602Y-39017120D01*
X89162631Y-38966687D01*
X89147859Y-38897245D01*
X89172975Y-38830839D01*
X89200327Y-38804232D01*
X89223797Y-38787491D01*
X89379860Y-38676173D01*
X89538096Y-38518489D01*
X89597594Y-38435689D01*
X89665435Y-38341277D01*
X89668453Y-38337077D01*
X89767430Y-38136811D01*
X89832370Y-37923069D01*
X89861529Y-37701590D01*
X89863156Y-37635000D01*
X89844852Y-37412361D01*
X89790431Y-37195702D01*
X89701354Y-36990840D01*
X89627384Y-36876500D01*
X89582822Y-36807617D01*
X89582818Y-36807612D01*
X89580014Y-36803277D01*
X89429670Y-36638051D01*
X89425619Y-36634852D01*
X89425615Y-36634848D01*
X89258414Y-36502800D01*
X89258410Y-36502798D01*
X89254359Y-36499598D01*
X89213053Y-36476796D01*
X89163084Y-36426364D01*
X89148312Y-36356921D01*
X89173428Y-36290516D01*
X89200780Y-36263909D01*
X89244603Y-36232650D01*
X89379860Y-36136173D01*
X89538096Y-35978489D01*
X89541601Y-35973612D01*
X89665435Y-35801277D01*
X89668453Y-35797077D01*
X89705020Y-35723090D01*
X89765136Y-35601453D01*
X89765137Y-35601451D01*
X89767430Y-35596811D01*
X89832370Y-35383069D01*
X89861529Y-35161590D01*
X89863156Y-35095000D01*
X89844852Y-34872361D01*
X89790431Y-34655702D01*
X89701354Y-34450840D01*
X89639057Y-34354543D01*
X89582822Y-34267617D01*
X89582818Y-34267612D01*
X89580014Y-34263277D01*
X89429670Y-34098051D01*
X89425619Y-34094852D01*
X89425615Y-34094848D01*
X89258414Y-33962800D01*
X89258410Y-33962798D01*
X89254359Y-33959598D01*
X89058789Y-33851638D01*
X89053920Y-33849914D01*
X89053916Y-33849912D01*
X88853087Y-33778795D01*
X88853083Y-33778794D01*
X88848212Y-33777069D01*
X88843119Y-33776162D01*
X88843116Y-33776161D01*
X88744230Y-33758547D01*
X88680672Y-33726909D01*
X88644309Y-33665932D01*
X88646686Y-33594975D01*
X88687047Y-33536567D01*
X88752579Y-33509252D01*
X88766326Y-33508500D01*
X89990500Y-33508500D01*
X90058621Y-33528502D01*
X90105114Y-33582158D01*
X90116500Y-33634500D01*
X90116500Y-80365500D01*
X90096498Y-80433621D01*
X90042842Y-80480114D01*
X89990500Y-80491500D01*
X67259500Y-80491500D01*
X67191379Y-80471498D01*
X67144886Y-80417842D01*
X67133500Y-80365500D01*
X67133500Y-75701695D01*
X67412251Y-75701695D01*
X67412548Y-75706848D01*
X67412548Y-75706851D01*
X67418011Y-75801590D01*
X67425110Y-75924715D01*
X67426247Y-75929761D01*
X67426248Y-75929767D01*
X67442125Y-76000215D01*
X67474222Y-76142639D01*
X67558266Y-76349616D01*
X67674987Y-76540088D01*
X67821250Y-76708938D01*
X67825230Y-76712242D01*
X67829981Y-76716187D01*
X67869616Y-76775090D01*
X67871113Y-76846071D01*
X67833997Y-76906593D01*
X67793724Y-76931112D01*
X67678295Y-76974385D01*
X67561739Y-77061739D01*
X67474385Y-77178295D01*
X67423255Y-77314684D01*
X67416500Y-77376866D01*
X67416500Y-79173134D01*
X67423255Y-79235316D01*
X67474385Y-79371705D01*
X67561739Y-79488261D01*
X67678295Y-79575615D01*
X67814684Y-79626745D01*
X67876866Y-79633500D01*
X69673134Y-79633500D01*
X69735316Y-79626745D01*
X69871705Y-79575615D01*
X69988261Y-79488261D01*
X70075615Y-79371705D01*
X70126745Y-79235316D01*
X70133500Y-79173134D01*
X70133500Y-77376866D01*
X70126745Y-77314684D01*
X70075615Y-77178295D01*
X69988261Y-77061739D01*
X69871705Y-76974385D01*
X69837500Y-76961562D01*
X69753203Y-76929960D01*
X69696439Y-76887318D01*
X69671739Y-76820756D01*
X69686947Y-76751408D01*
X69708493Y-76722727D01*
X69809435Y-76622137D01*
X69813096Y-76618489D01*
X69872594Y-76535689D01*
X69940435Y-76441277D01*
X69943453Y-76437077D01*
X70042430Y-76236811D01*
X70084462Y-76098469D01*
X70105865Y-76028023D01*
X70105865Y-76028021D01*
X70107370Y-76023069D01*
X70136529Y-75801590D01*
X70136611Y-75798240D01*
X70138074Y-75738365D01*
X70138074Y-75738361D01*
X70138156Y-75735000D01*
X70119852Y-75512361D01*
X70065431Y-75295702D01*
X69976354Y-75090840D01*
X69936906Y-75029862D01*
X69857822Y-74907617D01*
X69857820Y-74907614D01*
X69855014Y-74903277D01*
X69704670Y-74738051D01*
X69700619Y-74734852D01*
X69700615Y-74734848D01*
X69533414Y-74602800D01*
X69533410Y-74602798D01*
X69529359Y-74599598D01*
X69488053Y-74576796D01*
X69438084Y-74526364D01*
X69423312Y-74456921D01*
X69448428Y-74390516D01*
X69475780Y-74363909D01*
X69519603Y-74332650D01*
X69654860Y-74236173D01*
X69813096Y-74078489D01*
X69872594Y-73995689D01*
X69940435Y-73901277D01*
X69943453Y-73897077D01*
X70042430Y-73696811D01*
X70083698Y-73560984D01*
X70105865Y-73488023D01*
X70105865Y-73488021D01*
X70107370Y-73483069D01*
X70136529Y-73261590D01*
X70138156Y-73195000D01*
X70119852Y-72972361D01*
X70065431Y-72755702D01*
X69976354Y-72550840D01*
X69936906Y-72489862D01*
X69857822Y-72367617D01*
X69857820Y-72367614D01*
X69855014Y-72363277D01*
X69704670Y-72198051D01*
X69700619Y-72194852D01*
X69700615Y-72194848D01*
X69533414Y-72062800D01*
X69533410Y-72062798D01*
X69529359Y-72059598D01*
X69488053Y-72036796D01*
X69438084Y-71986364D01*
X69423312Y-71916921D01*
X69448428Y-71850516D01*
X69475780Y-71823909D01*
X69519603Y-71792650D01*
X69654860Y-71696173D01*
X69813096Y-71538489D01*
X69872594Y-71455689D01*
X69940435Y-71361277D01*
X69943453Y-71357077D01*
X70042430Y-71156811D01*
X70107370Y-70943069D01*
X70136529Y-70721590D01*
X70138156Y-70655000D01*
X70119852Y-70432361D01*
X70065431Y-70215702D01*
X69976354Y-70010840D01*
X69855014Y-69823277D01*
X69704670Y-69658051D01*
X69700619Y-69654852D01*
X69700615Y-69654848D01*
X69533414Y-69522800D01*
X69533410Y-69522798D01*
X69529359Y-69519598D01*
X69488053Y-69496796D01*
X69438084Y-69446364D01*
X69423312Y-69376921D01*
X69448428Y-69310516D01*
X69475780Y-69283909D01*
X69519603Y-69252650D01*
X69654860Y-69156173D01*
X69813096Y-68998489D01*
X69841628Y-68958783D01*
X69940435Y-68821277D01*
X69943453Y-68817077D01*
X69965674Y-68772117D01*
X70040136Y-68621453D01*
X70040137Y-68621451D01*
X70042430Y-68616811D01*
X70107370Y-68403069D01*
X70136529Y-68181590D01*
X70136611Y-68178240D01*
X70138074Y-68118365D01*
X70138074Y-68118361D01*
X70138156Y-68115000D01*
X70119852Y-67892361D01*
X70065431Y-67675702D01*
X69976354Y-67470840D01*
X69855014Y-67283277D01*
X69704670Y-67118051D01*
X69700619Y-67114852D01*
X69700615Y-67114848D01*
X69533414Y-66982800D01*
X69533410Y-66982798D01*
X69529359Y-66979598D01*
X69488053Y-66956796D01*
X69438084Y-66906364D01*
X69423312Y-66836921D01*
X69448428Y-66770516D01*
X69475780Y-66743909D01*
X69519603Y-66712650D01*
X69654860Y-66616173D01*
X69813096Y-66458489D01*
X69872594Y-66375689D01*
X69940435Y-66281277D01*
X69943453Y-66277077D01*
X70042430Y-66076811D01*
X70107370Y-65863069D01*
X70136529Y-65641590D01*
X70138156Y-65575000D01*
X70119852Y-65352361D01*
X70065431Y-65135702D01*
X69976354Y-64930840D01*
X69855014Y-64743277D01*
X69704670Y-64578051D01*
X69700619Y-64574852D01*
X69700615Y-64574848D01*
X69533414Y-64442800D01*
X69533410Y-64442798D01*
X69529359Y-64439598D01*
X69488053Y-64416796D01*
X69438084Y-64366364D01*
X69423312Y-64296921D01*
X69448428Y-64230516D01*
X69475780Y-64203909D01*
X69519603Y-64172650D01*
X69654860Y-64076173D01*
X69813096Y-63918489D01*
X69872594Y-63835689D01*
X69940435Y-63741277D01*
X69943453Y-63737077D01*
X69989009Y-63644902D01*
X70040136Y-63541453D01*
X70040137Y-63541451D01*
X70042430Y-63536811D01*
X70107370Y-63323069D01*
X70136529Y-63101590D01*
X70138156Y-63035000D01*
X70119852Y-62812361D01*
X70065431Y-62595702D01*
X69976354Y-62390840D01*
X69855014Y-62203277D01*
X69704670Y-62038051D01*
X69700619Y-62034852D01*
X69700615Y-62034848D01*
X69533414Y-61902800D01*
X69533410Y-61902798D01*
X69529359Y-61899598D01*
X69488053Y-61876796D01*
X69438084Y-61826364D01*
X69423312Y-61756921D01*
X69448428Y-61690516D01*
X69475780Y-61663909D01*
X69519603Y-61632650D01*
X69654860Y-61536173D01*
X69813096Y-61378489D01*
X69872594Y-61295689D01*
X69940435Y-61201277D01*
X69943453Y-61197077D01*
X69950314Y-61183196D01*
X70040136Y-61001453D01*
X70040137Y-61001451D01*
X70042430Y-60996811D01*
X70107370Y-60783069D01*
X70136529Y-60561590D01*
X70138156Y-60495000D01*
X70119852Y-60272361D01*
X70065431Y-60055702D01*
X69976354Y-59850840D01*
X69903808Y-59738701D01*
X69857822Y-59667617D01*
X69857820Y-59667614D01*
X69855014Y-59663277D01*
X69704670Y-59498051D01*
X69700619Y-59494852D01*
X69700615Y-59494848D01*
X69533414Y-59362800D01*
X69533410Y-59362798D01*
X69529359Y-59359598D01*
X69488053Y-59336796D01*
X69438084Y-59286364D01*
X69423312Y-59216921D01*
X69448428Y-59150516D01*
X69475780Y-59123909D01*
X69519603Y-59092650D01*
X69654860Y-58996173D01*
X69813096Y-58838489D01*
X69872594Y-58755689D01*
X69940435Y-58661277D01*
X69943453Y-58657077D01*
X69965030Y-58613420D01*
X70040136Y-58461453D01*
X70040137Y-58461451D01*
X70042430Y-58456811D01*
X70107370Y-58243069D01*
X70136529Y-58021590D01*
X70138156Y-57955000D01*
X70119852Y-57732361D01*
X70065431Y-57515702D01*
X69976354Y-57310840D01*
X69919067Y-57222288D01*
X69857822Y-57127617D01*
X69857820Y-57127614D01*
X69855014Y-57123277D01*
X69704670Y-56958051D01*
X69700619Y-56954852D01*
X69700615Y-56954848D01*
X69533414Y-56822800D01*
X69533410Y-56822798D01*
X69529359Y-56819598D01*
X69488053Y-56796796D01*
X69438084Y-56746364D01*
X69423312Y-56676921D01*
X69448428Y-56610516D01*
X69475780Y-56583909D01*
X69532046Y-56543775D01*
X69654860Y-56456173D01*
X69813096Y-56298489D01*
X69872594Y-56215689D01*
X69940435Y-56121277D01*
X69943453Y-56117077D01*
X69953135Y-56097488D01*
X70040136Y-55921453D01*
X70040137Y-55921451D01*
X70042430Y-55916811D01*
X70107370Y-55703069D01*
X70136529Y-55481590D01*
X70136727Y-55473502D01*
X70138074Y-55418365D01*
X70138074Y-55418361D01*
X70138156Y-55415000D01*
X70119852Y-55192361D01*
X70065431Y-54975702D01*
X69976354Y-54770840D01*
X69855014Y-54583277D01*
X69704670Y-54418051D01*
X69700619Y-54414852D01*
X69700615Y-54414848D01*
X69533414Y-54282800D01*
X69533410Y-54282798D01*
X69529359Y-54279598D01*
X69488053Y-54256796D01*
X69438084Y-54206364D01*
X69423312Y-54136921D01*
X69448428Y-54070516D01*
X69475780Y-54043909D01*
X69519603Y-54012650D01*
X69654860Y-53916173D01*
X69677908Y-53893206D01*
X69763064Y-53808346D01*
X69813096Y-53758489D01*
X69872594Y-53675689D01*
X69940435Y-53581277D01*
X69943453Y-53577077D01*
X69958919Y-53545785D01*
X70040136Y-53381453D01*
X70040137Y-53381451D01*
X70042430Y-53376811D01*
X70086594Y-53231452D01*
X70105865Y-53168023D01*
X70105865Y-53168021D01*
X70107370Y-53163069D01*
X70136529Y-52941590D01*
X70138156Y-52875000D01*
X70119852Y-52652361D01*
X70065431Y-52435702D01*
X69976354Y-52230840D01*
X69855014Y-52043277D01*
X69704670Y-51878051D01*
X69700619Y-51874852D01*
X69700615Y-51874848D01*
X69533414Y-51742800D01*
X69533410Y-51742798D01*
X69529359Y-51739598D01*
X69488053Y-51716796D01*
X69438084Y-51666364D01*
X69423312Y-51596921D01*
X69448428Y-51530516D01*
X69475780Y-51503909D01*
X69524013Y-51469505D01*
X69654860Y-51376173D01*
X69813096Y-51218489D01*
X69863045Y-51148978D01*
X69940435Y-51041277D01*
X69943453Y-51037077D01*
X69979135Y-50964881D01*
X70040136Y-50841453D01*
X70040137Y-50841451D01*
X70042430Y-50836811D01*
X70107370Y-50623069D01*
X70136529Y-50401590D01*
X70137660Y-50355310D01*
X70138074Y-50338365D01*
X70138074Y-50338361D01*
X70138156Y-50335000D01*
X70119852Y-50112361D01*
X70065431Y-49895702D01*
X69976354Y-49690840D01*
X69909940Y-49588180D01*
X69857822Y-49507617D01*
X69857820Y-49507614D01*
X69855014Y-49503277D01*
X69704670Y-49338051D01*
X69700619Y-49334852D01*
X69700615Y-49334848D01*
X69533414Y-49202800D01*
X69533410Y-49202798D01*
X69529359Y-49199598D01*
X69488053Y-49176796D01*
X69438084Y-49126364D01*
X69423312Y-49056921D01*
X69448428Y-48990516D01*
X69475780Y-48963909D01*
X69519603Y-48932650D01*
X69654860Y-48836173D01*
X69813096Y-48678489D01*
X69872594Y-48595689D01*
X69940435Y-48501277D01*
X69943453Y-48497077D01*
X70042430Y-48296811D01*
X70107370Y-48083069D01*
X70136529Y-47861590D01*
X70138156Y-47795000D01*
X70119852Y-47572361D01*
X70065431Y-47355702D01*
X69976354Y-47150840D01*
X69855014Y-46963277D01*
X69704670Y-46798051D01*
X69700619Y-46794852D01*
X69700615Y-46794848D01*
X69533414Y-46662800D01*
X69533410Y-46662798D01*
X69529359Y-46659598D01*
X69488053Y-46636796D01*
X69438084Y-46586364D01*
X69423312Y-46516921D01*
X69448428Y-46450516D01*
X69475780Y-46423909D01*
X69519603Y-46392650D01*
X69654860Y-46296173D01*
X69813096Y-46138489D01*
X69872594Y-46055689D01*
X69940435Y-45961277D01*
X69943453Y-45957077D01*
X69951290Y-45941221D01*
X70040136Y-45761453D01*
X70040137Y-45761451D01*
X70042430Y-45756811D01*
X70090720Y-45597871D01*
X70105865Y-45548023D01*
X70105865Y-45548021D01*
X70107370Y-45543069D01*
X70136529Y-45321590D01*
X70138156Y-45255000D01*
X70119852Y-45032361D01*
X70065431Y-44815702D01*
X69976354Y-44610840D01*
X69914318Y-44514947D01*
X69857822Y-44427617D01*
X69857820Y-44427614D01*
X69855014Y-44423277D01*
X69704670Y-44258051D01*
X69700619Y-44254852D01*
X69700615Y-44254848D01*
X69533414Y-44122800D01*
X69533410Y-44122798D01*
X69529359Y-44119598D01*
X69488053Y-44096796D01*
X69438084Y-44046364D01*
X69423312Y-43976921D01*
X69448428Y-43910516D01*
X69475780Y-43883909D01*
X69541188Y-43837254D01*
X69654860Y-43756173D01*
X69813096Y-43598489D01*
X69824593Y-43582490D01*
X69940435Y-43421277D01*
X69943453Y-43417077D01*
X69950611Y-43402595D01*
X70040136Y-43221453D01*
X70040137Y-43221451D01*
X70042430Y-43216811D01*
X70107370Y-43003069D01*
X70136529Y-42781590D01*
X70138156Y-42715000D01*
X70119852Y-42492361D01*
X70065431Y-42275702D01*
X69976354Y-42070840D01*
X69855014Y-41883277D01*
X69704670Y-41718051D01*
X69700619Y-41714852D01*
X69700615Y-41714848D01*
X69533414Y-41582800D01*
X69533410Y-41582798D01*
X69529359Y-41579598D01*
X69487569Y-41556529D01*
X69437598Y-41506097D01*
X69422826Y-41436654D01*
X69447942Y-41370248D01*
X69475294Y-41343641D01*
X69650328Y-41218792D01*
X69658200Y-41212139D01*
X69809052Y-41061812D01*
X69815730Y-41053965D01*
X69940003Y-40881020D01*
X69945313Y-40872183D01*
X70039670Y-40681267D01*
X70043469Y-40671672D01*
X70105377Y-40467910D01*
X70107555Y-40457837D01*
X70108986Y-40446962D01*
X70106775Y-40432778D01*
X70093617Y-40429000D01*
X67458225Y-40429000D01*
X67444694Y-40432973D01*
X67443257Y-40442966D01*
X67473565Y-40577446D01*
X67476645Y-40587275D01*
X67556770Y-40784603D01*
X67561413Y-40793794D01*
X67672694Y-40975388D01*
X67678777Y-40983699D01*
X67818213Y-41144667D01*
X67825580Y-41151883D01*
X67989434Y-41287916D01*
X67997881Y-41293831D01*
X68066969Y-41334203D01*
X68115693Y-41385842D01*
X68128764Y-41455625D01*
X68102033Y-41521396D01*
X68061584Y-41554752D01*
X68048607Y-41561507D01*
X68044474Y-41564610D01*
X68044471Y-41564612D01*
X68020247Y-41582800D01*
X67869965Y-41695635D01*
X67715629Y-41857138D01*
X67589743Y-42041680D01*
X67574003Y-42075590D01*
X67498739Y-42237733D01*
X67495688Y-42244305D01*
X67435989Y-42459570D01*
X67412251Y-42681695D01*
X67412548Y-42686848D01*
X67412548Y-42686851D01*
X67418011Y-42781590D01*
X67425110Y-42904715D01*
X67426247Y-42909761D01*
X67426248Y-42909767D01*
X67446119Y-42997939D01*
X67474222Y-43122639D01*
X67558266Y-43329616D01*
X67600710Y-43398878D01*
X67668694Y-43509818D01*
X67674987Y-43520088D01*
X67821250Y-43688938D01*
X67993126Y-43831632D01*
X68002747Y-43837254D01*
X68066445Y-43874476D01*
X68115169Y-43926114D01*
X68128240Y-43995897D01*
X68101509Y-44061669D01*
X68061055Y-44095027D01*
X68048607Y-44101507D01*
X68044474Y-44104610D01*
X68044471Y-44104612D01*
X68020247Y-44122800D01*
X67869965Y-44235635D01*
X67866393Y-44239373D01*
X67772813Y-44337299D01*
X67715629Y-44397138D01*
X67589743Y-44581680D01*
X67495688Y-44784305D01*
X67435989Y-44999570D01*
X67412251Y-45221695D01*
X67412548Y-45226848D01*
X67412548Y-45226851D01*
X67424812Y-45439547D01*
X67425110Y-45444715D01*
X67426247Y-45449761D01*
X67426248Y-45449767D01*
X67433758Y-45483089D01*
X67474222Y-45662639D01*
X67558266Y-45869616D01*
X67579483Y-45904239D01*
X67662583Y-46039846D01*
X67674987Y-46060088D01*
X67821250Y-46228938D01*
X67993126Y-46371632D01*
X68063595Y-46412811D01*
X68066445Y-46414476D01*
X68115169Y-46466114D01*
X68128240Y-46535897D01*
X68101509Y-46601669D01*
X68061055Y-46635027D01*
X68048607Y-46641507D01*
X68044474Y-46644610D01*
X68044471Y-46644612D01*
X67952131Y-46713943D01*
X67869965Y-46775635D01*
X67715629Y-46937138D01*
X67712715Y-46941410D01*
X67712714Y-46941411D01*
X67688814Y-46976447D01*
X67589743Y-47121680D01*
X67574003Y-47155590D01*
X67500032Y-47314947D01*
X67495688Y-47324305D01*
X67435989Y-47539570D01*
X67412251Y-47761695D01*
X67412548Y-47766848D01*
X67412548Y-47766851D01*
X67418011Y-47861590D01*
X67425110Y-47984715D01*
X67426247Y-47989761D01*
X67426248Y-47989767D01*
X67446119Y-48077939D01*
X67474222Y-48202639D01*
X67558266Y-48409616D01*
X67674987Y-48600088D01*
X67821250Y-48768938D01*
X67993126Y-48911632D01*
X68063595Y-48952811D01*
X68066445Y-48954476D01*
X68115169Y-49006114D01*
X68128240Y-49075897D01*
X68101509Y-49141669D01*
X68061055Y-49175027D01*
X68048607Y-49181507D01*
X68044474Y-49184610D01*
X68044471Y-49184612D01*
X67874100Y-49312530D01*
X67869965Y-49315635D01*
X67866393Y-49319373D01*
X67739737Y-49451911D01*
X67715629Y-49477138D01*
X67589743Y-49661680D01*
X67495688Y-49864305D01*
X67435989Y-50079570D01*
X67412251Y-50301695D01*
X67412548Y-50306848D01*
X67412548Y-50306851D01*
X67419871Y-50433850D01*
X67425110Y-50524715D01*
X67426247Y-50529761D01*
X67426248Y-50529767D01*
X67446119Y-50617939D01*
X67474222Y-50742639D01*
X67558266Y-50949616D01*
X67592456Y-51005409D01*
X67668803Y-51129996D01*
X67674987Y-51140088D01*
X67821250Y-51308938D01*
X67993126Y-51451632D01*
X68023712Y-51469505D01*
X68066445Y-51494476D01*
X68115169Y-51546114D01*
X68128240Y-51615897D01*
X68101509Y-51681669D01*
X68061055Y-51715027D01*
X68048607Y-51721507D01*
X68044474Y-51724610D01*
X68044471Y-51724612D01*
X67881881Y-51846688D01*
X67869965Y-51855635D01*
X67866393Y-51859373D01*
X67719752Y-52012824D01*
X67715629Y-52017138D01*
X67712715Y-52021410D01*
X67712714Y-52021411D01*
X67627556Y-52146249D01*
X67589743Y-52201680D01*
X67495688Y-52404305D01*
X67435989Y-52619570D01*
X67412251Y-52841695D01*
X67412548Y-52846848D01*
X67412548Y-52846851D01*
X67421126Y-52995617D01*
X67425110Y-53064715D01*
X67426247Y-53069761D01*
X67426248Y-53069767D01*
X67439255Y-53127482D01*
X67474222Y-53282639D01*
X67558266Y-53489616D01*
X67560965Y-53494020D01*
X67661743Y-53658475D01*
X67674987Y-53680088D01*
X67821250Y-53848938D01*
X67993126Y-53991632D01*
X68063065Y-54032501D01*
X68066445Y-54034476D01*
X68115169Y-54086114D01*
X68128240Y-54155897D01*
X68101509Y-54221669D01*
X68061055Y-54255027D01*
X68048607Y-54261507D01*
X68044474Y-54264610D01*
X68044471Y-54264612D01*
X67874100Y-54392530D01*
X67869965Y-54395635D01*
X67715629Y-54557138D01*
X67589743Y-54741680D01*
X67495688Y-54944305D01*
X67435989Y-55159570D01*
X67412251Y-55381695D01*
X67412548Y-55386848D01*
X67412548Y-55386851D01*
X67424288Y-55590461D01*
X67425110Y-55604715D01*
X67426247Y-55609761D01*
X67426248Y-55609767D01*
X67439675Y-55669344D01*
X67474222Y-55822639D01*
X67512461Y-55916811D01*
X67552310Y-56014947D01*
X67558266Y-56029616D01*
X67560965Y-56034020D01*
X67653314Y-56184720D01*
X67674987Y-56220088D01*
X67821250Y-56388938D01*
X67993126Y-56531632D01*
X68029303Y-56552772D01*
X68066445Y-56574476D01*
X68115169Y-56626114D01*
X68128240Y-56695897D01*
X68101509Y-56761669D01*
X68061055Y-56795027D01*
X68048607Y-56801507D01*
X68044474Y-56804610D01*
X68044471Y-56804612D01*
X67874100Y-56932530D01*
X67869965Y-56935635D01*
X67866393Y-56939373D01*
X67735083Y-57076781D01*
X67715629Y-57097138D01*
X67712715Y-57101410D01*
X67712714Y-57101411D01*
X67700404Y-57119457D01*
X67589743Y-57281680D01*
X67574003Y-57315590D01*
X67502019Y-57470667D01*
X67495688Y-57484305D01*
X67435989Y-57699570D01*
X67412251Y-57921695D01*
X67412548Y-57926848D01*
X67412548Y-57926851D01*
X67418011Y-58021590D01*
X67425110Y-58144715D01*
X67426247Y-58149761D01*
X67426248Y-58149767D01*
X67446025Y-58237523D01*
X67474222Y-58362639D01*
X67512461Y-58456811D01*
X67554266Y-58559764D01*
X67558266Y-58569616D01*
X67674987Y-58760088D01*
X67821250Y-58928938D01*
X67993126Y-59071632D01*
X68063595Y-59112811D01*
X68066445Y-59114476D01*
X68115169Y-59166114D01*
X68128240Y-59235897D01*
X68101509Y-59301669D01*
X68061055Y-59335027D01*
X68048607Y-59341507D01*
X68044474Y-59344610D01*
X68044471Y-59344612D01*
X68020247Y-59362800D01*
X67869965Y-59475635D01*
X67715629Y-59637138D01*
X67589743Y-59821680D01*
X67574003Y-59855590D01*
X67509224Y-59995145D01*
X67495688Y-60024305D01*
X67435989Y-60239570D01*
X67412251Y-60461695D01*
X67412548Y-60466848D01*
X67412548Y-60466851D01*
X67423706Y-60660363D01*
X67425110Y-60684715D01*
X67426247Y-60689761D01*
X67426248Y-60689767D01*
X67440747Y-60754103D01*
X67474222Y-60902639D01*
X67558266Y-61109616D01*
X67674987Y-61300088D01*
X67821250Y-61468938D01*
X67993126Y-61611632D01*
X68029842Y-61633087D01*
X68066445Y-61654476D01*
X68115169Y-61706114D01*
X68128240Y-61775897D01*
X68101509Y-61841669D01*
X68061055Y-61875027D01*
X68048607Y-61881507D01*
X68044474Y-61884610D01*
X68044471Y-61884612D01*
X67874100Y-62012530D01*
X67869965Y-62015635D01*
X67715629Y-62177138D01*
X67589743Y-62361680D01*
X67495688Y-62564305D01*
X67435989Y-62779570D01*
X67412251Y-63001695D01*
X67412548Y-63006848D01*
X67412548Y-63006851D01*
X67418011Y-63101590D01*
X67425110Y-63224715D01*
X67426247Y-63229761D01*
X67426248Y-63229767D01*
X67439750Y-63289678D01*
X67474222Y-63442639D01*
X67558266Y-63649616D01*
X67674987Y-63840088D01*
X67821250Y-64008938D01*
X67897846Y-64072529D01*
X67985626Y-64145405D01*
X67993126Y-64151632D01*
X68063595Y-64192811D01*
X68066445Y-64194476D01*
X68115169Y-64246114D01*
X68128240Y-64315897D01*
X68101509Y-64381669D01*
X68061055Y-64415027D01*
X68048607Y-64421507D01*
X68044474Y-64424610D01*
X68044471Y-64424612D01*
X68020247Y-64442800D01*
X67869965Y-64555635D01*
X67715629Y-64717138D01*
X67589743Y-64901680D01*
X67495688Y-65104305D01*
X67435989Y-65319570D01*
X67412251Y-65541695D01*
X67412548Y-65546848D01*
X67412548Y-65546851D01*
X67418011Y-65641590D01*
X67425110Y-65764715D01*
X67426247Y-65769761D01*
X67426248Y-65769767D01*
X67446119Y-65857939D01*
X67474222Y-65982639D01*
X67558266Y-66189616D01*
X67674987Y-66380088D01*
X67821250Y-66548938D01*
X67993126Y-66691632D01*
X68063595Y-66732811D01*
X68066445Y-66734476D01*
X68115169Y-66786114D01*
X68128240Y-66855897D01*
X68101509Y-66921669D01*
X68061055Y-66955027D01*
X68048607Y-66961507D01*
X68044474Y-66964610D01*
X68044471Y-66964612D01*
X67874100Y-67092530D01*
X67869965Y-67095635D01*
X67715629Y-67257138D01*
X67589743Y-67441680D01*
X67574003Y-67475590D01*
X67502328Y-67630001D01*
X67495688Y-67644305D01*
X67435989Y-67859570D01*
X67412251Y-68081695D01*
X67412548Y-68086848D01*
X67412548Y-68086851D01*
X67424561Y-68295198D01*
X67425110Y-68304715D01*
X67426247Y-68309761D01*
X67426248Y-68309767D01*
X67427254Y-68314229D01*
X67474222Y-68522639D01*
X67558266Y-68729616D01*
X67560965Y-68734020D01*
X67645426Y-68871848D01*
X67674987Y-68920088D01*
X67821250Y-69088938D01*
X67993126Y-69231632D01*
X68063595Y-69272811D01*
X68066445Y-69274476D01*
X68115169Y-69326114D01*
X68128240Y-69395897D01*
X68101509Y-69461669D01*
X68061055Y-69495027D01*
X68048607Y-69501507D01*
X68044474Y-69504610D01*
X68044471Y-69504612D01*
X68020247Y-69522800D01*
X67869965Y-69635635D01*
X67715629Y-69797138D01*
X67589743Y-69981680D01*
X67495688Y-70184305D01*
X67435989Y-70399570D01*
X67412251Y-70621695D01*
X67412548Y-70626848D01*
X67412548Y-70626851D01*
X67418011Y-70721590D01*
X67425110Y-70844715D01*
X67426247Y-70849761D01*
X67426248Y-70849767D01*
X67446119Y-70937939D01*
X67474222Y-71062639D01*
X67558266Y-71269616D01*
X67674987Y-71460088D01*
X67821250Y-71628938D01*
X67993126Y-71771632D01*
X68063595Y-71812811D01*
X68066445Y-71814476D01*
X68115169Y-71866114D01*
X68128240Y-71935897D01*
X68101509Y-72001669D01*
X68061055Y-72035027D01*
X68048607Y-72041507D01*
X68044474Y-72044610D01*
X68044471Y-72044612D01*
X68020247Y-72062800D01*
X67869965Y-72175635D01*
X67715629Y-72337138D01*
X67589743Y-72521680D01*
X67495688Y-72724305D01*
X67435989Y-72939570D01*
X67412251Y-73161695D01*
X67412548Y-73166848D01*
X67412548Y-73166851D01*
X67418011Y-73261590D01*
X67425110Y-73384715D01*
X67426247Y-73389761D01*
X67426248Y-73389767D01*
X67445120Y-73473505D01*
X67474222Y-73602639D01*
X67558266Y-73809616D01*
X67674987Y-74000088D01*
X67821250Y-74168938D01*
X67993126Y-74311632D01*
X68063595Y-74352811D01*
X68066445Y-74354476D01*
X68115169Y-74406114D01*
X68128240Y-74475897D01*
X68101509Y-74541669D01*
X68061055Y-74575027D01*
X68048607Y-74581507D01*
X68044474Y-74584610D01*
X68044471Y-74584612D01*
X67914552Y-74682158D01*
X67869965Y-74715635D01*
X67866393Y-74719373D01*
X67719645Y-74872936D01*
X67715629Y-74877138D01*
X67589743Y-75061680D01*
X67495688Y-75264305D01*
X67435989Y-75479570D01*
X67412251Y-75701695D01*
X67133500Y-75701695D01*
X67133500Y-33634500D01*
X67153502Y-33566379D01*
X67207158Y-33519886D01*
X67259500Y-33508500D01*
X68504762Y-33508500D01*
X68572883Y-33528502D01*
G37*
%TD.AperFunction*%
%TA.AperFunction,Conductor*%
G36*
X78033621Y-58559764D02*
G01*
X78080114Y-58613420D01*
X78091500Y-58665762D01*
X78091500Y-61594310D01*
X78076543Y-61653853D01*
X78075377Y-61656027D01*
X78071010Y-61662241D01*
X78046799Y-61724338D01*
X78031280Y-61764144D01*
X78008718Y-61822011D01*
X78007726Y-61829544D01*
X78007726Y-61829545D01*
X77987691Y-61981731D01*
X77986335Y-61992028D01*
X77991416Y-62038051D01*
X78002674Y-62140020D01*
X78005153Y-62162477D01*
X78007762Y-62169608D01*
X78007763Y-62169610D01*
X78045126Y-62271710D01*
X78049752Y-62342556D01*
X78015342Y-62404656D01*
X77952820Y-62438295D01*
X77926800Y-62441011D01*
X77525759Y-62441011D01*
X77457638Y-62421009D01*
X77436664Y-62404106D01*
X76769928Y-61737370D01*
X76741157Y-61692813D01*
X76691116Y-61560383D01*
X76688432Y-61553280D01*
X76632735Y-61472240D01*
X76595604Y-61418214D01*
X76595603Y-61418212D01*
X76591302Y-61411955D01*
X76476737Y-61309881D01*
X76439181Y-61249631D01*
X76438863Y-61186018D01*
X76439385Y-61184720D01*
X76463547Y-61014947D01*
X76463704Y-61000000D01*
X76451922Y-60902639D01*
X76444015Y-60837299D01*
X76444014Y-60837296D01*
X76443102Y-60829758D01*
X76382487Y-60669344D01*
X76378187Y-60663087D01*
X76374665Y-60656350D01*
X76377063Y-60655096D01*
X76358500Y-60595318D01*
X76358500Y-58665762D01*
X76378502Y-58597641D01*
X76432158Y-58551148D01*
X76484500Y-58539762D01*
X77965500Y-58539762D01*
X78033621Y-58559764D01*
G37*
%TD.AperFunction*%
%TA.AperFunction,Conductor*%
G36*
X87068257Y-40243590D02*
G01*
X87125093Y-40286137D01*
X87150016Y-40354394D01*
X87150309Y-40359477D01*
X87151745Y-40369697D01*
X87198565Y-40577446D01*
X87201645Y-40587275D01*
X87281770Y-40784603D01*
X87286413Y-40793794D01*
X87397694Y-40975388D01*
X87403777Y-40983699D01*
X87543213Y-41144667D01*
X87550580Y-41151883D01*
X87714434Y-41287916D01*
X87722881Y-41293831D01*
X87791969Y-41334203D01*
X87840693Y-41385842D01*
X87853764Y-41455625D01*
X87827033Y-41521396D01*
X87786584Y-41554752D01*
X87773607Y-41561507D01*
X87769474Y-41564610D01*
X87769471Y-41564612D01*
X87745247Y-41582800D01*
X87594965Y-41695635D01*
X87440629Y-41857138D01*
X87314743Y-42041680D01*
X87299003Y-42075590D01*
X87223739Y-42237733D01*
X87220688Y-42244305D01*
X87160989Y-42459570D01*
X87137251Y-42681695D01*
X87137548Y-42686848D01*
X87137548Y-42686851D01*
X87143011Y-42781590D01*
X87150110Y-42904715D01*
X87151247Y-42909761D01*
X87151248Y-42909767D01*
X87171119Y-42997939D01*
X87199222Y-43122639D01*
X87283266Y-43329616D01*
X87325710Y-43398878D01*
X87393694Y-43509818D01*
X87399987Y-43520088D01*
X87546250Y-43688938D01*
X87718126Y-43831632D01*
X87727747Y-43837254D01*
X87791445Y-43874476D01*
X87840169Y-43926114D01*
X87853240Y-43995897D01*
X87826509Y-44061669D01*
X87786055Y-44095027D01*
X87773607Y-44101507D01*
X87769474Y-44104610D01*
X87769471Y-44104612D01*
X87745247Y-44122800D01*
X87594965Y-44235635D01*
X87591393Y-44239373D01*
X87497813Y-44337299D01*
X87440629Y-44397138D01*
X87314743Y-44581680D01*
X87220688Y-44784305D01*
X87160989Y-44999570D01*
X87137251Y-45221695D01*
X87137548Y-45226848D01*
X87137548Y-45226851D01*
X87149812Y-45439547D01*
X87150110Y-45444715D01*
X87151247Y-45449761D01*
X87151248Y-45449767D01*
X87158758Y-45483089D01*
X87199222Y-45662639D01*
X87283266Y-45869616D01*
X87304483Y-45904239D01*
X87387583Y-46039846D01*
X87399987Y-46060088D01*
X87546250Y-46228938D01*
X87718126Y-46371632D01*
X87788595Y-46412811D01*
X87791445Y-46414476D01*
X87840169Y-46466114D01*
X87853240Y-46535897D01*
X87826509Y-46601669D01*
X87786055Y-46635027D01*
X87773607Y-46641507D01*
X87769474Y-46644610D01*
X87769471Y-46644612D01*
X87677131Y-46713943D01*
X87594965Y-46775635D01*
X87440629Y-46937138D01*
X87437715Y-46941410D01*
X87437714Y-46941411D01*
X87413814Y-46976447D01*
X87314743Y-47121680D01*
X87299003Y-47155590D01*
X87225032Y-47314947D01*
X87220688Y-47324305D01*
X87160989Y-47539570D01*
X87137251Y-47761695D01*
X87137548Y-47766848D01*
X87137548Y-47766851D01*
X87143011Y-47861590D01*
X87150110Y-47984715D01*
X87151247Y-47989761D01*
X87151248Y-47989767D01*
X87171119Y-48077939D01*
X87199222Y-48202639D01*
X87283266Y-48409616D01*
X87399987Y-48600088D01*
X87546250Y-48768938D01*
X87718126Y-48911632D01*
X87788595Y-48952811D01*
X87791445Y-48954476D01*
X87840169Y-49006114D01*
X87853240Y-49075897D01*
X87826509Y-49141669D01*
X87786055Y-49175027D01*
X87773607Y-49181507D01*
X87769474Y-49184610D01*
X87769471Y-49184612D01*
X87599100Y-49312530D01*
X87594965Y-49315635D01*
X87591393Y-49319373D01*
X87464737Y-49451911D01*
X87440629Y-49477138D01*
X87314743Y-49661680D01*
X87220688Y-49864305D01*
X87160989Y-50079570D01*
X87137251Y-50301695D01*
X87137548Y-50306848D01*
X87137548Y-50306851D01*
X87144871Y-50433850D01*
X87150110Y-50524715D01*
X87151247Y-50529761D01*
X87151248Y-50529767D01*
X87171119Y-50617939D01*
X87199222Y-50742639D01*
X87283266Y-50949616D01*
X87317456Y-51005409D01*
X87393803Y-51129996D01*
X87399987Y-51140088D01*
X87546250Y-51308938D01*
X87718126Y-51451632D01*
X87748712Y-51469505D01*
X87791445Y-51494476D01*
X87840169Y-51546114D01*
X87853240Y-51615897D01*
X87826509Y-51681669D01*
X87786055Y-51715027D01*
X87773607Y-51721507D01*
X87769474Y-51724610D01*
X87769471Y-51724612D01*
X87606881Y-51846688D01*
X87594965Y-51855635D01*
X87591393Y-51859373D01*
X87444752Y-52012824D01*
X87440629Y-52017138D01*
X87437715Y-52021410D01*
X87437714Y-52021411D01*
X87352556Y-52146249D01*
X87314743Y-52201680D01*
X87220688Y-52404305D01*
X87160989Y-52619570D01*
X87137251Y-52841695D01*
X87137548Y-52846848D01*
X87137548Y-52846851D01*
X87146126Y-52995617D01*
X87150110Y-53064715D01*
X87151247Y-53069761D01*
X87151248Y-53069767D01*
X87164255Y-53127482D01*
X87199222Y-53282639D01*
X87283266Y-53489616D01*
X87285965Y-53494020D01*
X87386743Y-53658475D01*
X87399987Y-53680088D01*
X87546250Y-53848938D01*
X87718126Y-53991632D01*
X87788065Y-54032501D01*
X87791445Y-54034476D01*
X87840169Y-54086114D01*
X87853240Y-54155897D01*
X87826509Y-54221669D01*
X87786055Y-54255027D01*
X87773607Y-54261507D01*
X87769474Y-54264610D01*
X87769471Y-54264612D01*
X87599100Y-54392530D01*
X87594965Y-54395635D01*
X87440629Y-54557138D01*
X87314743Y-54741680D01*
X87220688Y-54944305D01*
X87160989Y-55159570D01*
X87137251Y-55381695D01*
X87137548Y-55386848D01*
X87137548Y-55386851D01*
X87149288Y-55590461D01*
X87150110Y-55604715D01*
X87151247Y-55609761D01*
X87151248Y-55609767D01*
X87164675Y-55669344D01*
X87199222Y-55822639D01*
X87237461Y-55916811D01*
X87277310Y-56014947D01*
X87283266Y-56029616D01*
X87285965Y-56034020D01*
X87378314Y-56184720D01*
X87399987Y-56220088D01*
X87485055Y-56318292D01*
X87514537Y-56382876D01*
X87504423Y-56453149D01*
X87478912Y-56489884D01*
X86954255Y-57014541D01*
X86941864Y-57025408D01*
X86916502Y-57044869D01*
X86892015Y-57076781D01*
X86892012Y-57076784D01*
X86818965Y-57171980D01*
X86759512Y-57315513D01*
X86757651Y-57320006D01*
X86741989Y-57438971D01*
X86741989Y-57438976D01*
X86736739Y-57478856D01*
X86737817Y-57487044D01*
X86740911Y-57510546D01*
X86741989Y-57526992D01*
X86741989Y-60580266D01*
X86721987Y-60648387D01*
X86705084Y-60669361D01*
X85719370Y-61655075D01*
X85657058Y-61689101D01*
X85630275Y-61691980D01*
X84369725Y-61691980D01*
X84301604Y-61671978D01*
X84280630Y-61655075D01*
X82557700Y-59932145D01*
X82546833Y-59919754D01*
X82532398Y-59900942D01*
X82527372Y-59894392D01*
X82495460Y-59869905D01*
X82495457Y-59869902D01*
X82470615Y-59850840D01*
X82406814Y-59801883D01*
X82406812Y-59801882D01*
X82400261Y-59796855D01*
X82252236Y-59735541D01*
X82244049Y-59734463D01*
X82244048Y-59734463D01*
X82232843Y-59732988D01*
X82201647Y-59728881D01*
X82133270Y-59719879D01*
X82133267Y-59719879D01*
X82133259Y-59719878D01*
X82101574Y-59715707D01*
X82093385Y-59714629D01*
X82061692Y-59718801D01*
X82045249Y-59719879D01*
X80988492Y-59719879D01*
X80929536Y-59705235D01*
X80848029Y-59662079D01*
X80840664Y-59660229D01*
X80689082Y-59622154D01*
X80689078Y-59622154D01*
X80681711Y-59620303D01*
X80674112Y-59620263D01*
X80674110Y-59620263D01*
X80602654Y-59619889D01*
X80510229Y-59619405D01*
X80502849Y-59621177D01*
X80502847Y-59621177D01*
X80350862Y-59657665D01*
X80350858Y-59657666D01*
X80343483Y-59659437D01*
X80191099Y-59738088D01*
X80185380Y-59743077D01*
X80170531Y-59756031D01*
X80106049Y-59785740D01*
X80035742Y-59775871D01*
X79981931Y-59729558D01*
X79961700Y-59661083D01*
X79961700Y-58487213D01*
X79981702Y-58419092D01*
X80031085Y-58374649D01*
X80064991Y-58357596D01*
X80085322Y-58347371D01*
X80085325Y-58347369D01*
X80092105Y-58343959D01*
X80097876Y-58339030D01*
X80097879Y-58339028D01*
X80216725Y-58237523D01*
X80222502Y-58232589D01*
X80322571Y-58093330D01*
X80386532Y-57934220D01*
X80410694Y-57764447D01*
X80410786Y-57755681D01*
X80431502Y-57687774D01*
X80436817Y-57680299D01*
X80453449Y-57658624D01*
X80464308Y-57646241D01*
X81419719Y-56690829D01*
X81482030Y-56656805D01*
X81552936Y-56662590D01*
X81554768Y-56663585D01*
X81562113Y-56665512D01*
X81637193Y-56685209D01*
X81720639Y-56707101D01*
X81808086Y-56708474D01*
X81884503Y-56709675D01*
X81884506Y-56709675D01*
X81892102Y-56709794D01*
X81899506Y-56708098D01*
X81899508Y-56708098D01*
X81974903Y-56690830D01*
X82059259Y-56671510D01*
X82212458Y-56594459D01*
X82218229Y-56589530D01*
X82218232Y-56589528D01*
X82337078Y-56488023D01*
X82342855Y-56483089D01*
X82434781Y-56355162D01*
X82438492Y-56349998D01*
X82438493Y-56349997D01*
X82442924Y-56343830D01*
X82506885Y-56184720D01*
X82528333Y-56034020D01*
X82530466Y-56019031D01*
X82530466Y-56019027D01*
X82531047Y-56014947D01*
X82531204Y-56000000D01*
X82510602Y-55829758D01*
X82506007Y-55817596D01*
X82452671Y-55676447D01*
X82449987Y-55669344D01*
X82390890Y-55583357D01*
X82357159Y-55534278D01*
X82357158Y-55534276D01*
X82352857Y-55528019D01*
X82338119Y-55514888D01*
X82230493Y-55418996D01*
X82230490Y-55418994D01*
X82224821Y-55413943D01*
X82073269Y-55333700D01*
X82055696Y-55329286D01*
X81914322Y-55293775D01*
X81914318Y-55293775D01*
X81906951Y-55291924D01*
X81899352Y-55291884D01*
X81899350Y-55291884D01*
X81827894Y-55291510D01*
X81735469Y-55291026D01*
X81728089Y-55292798D01*
X81728087Y-55292798D01*
X81576102Y-55329286D01*
X81576098Y-55329287D01*
X81568723Y-55331058D01*
X81556719Y-55337254D01*
X81478809Y-55377466D01*
X81421019Y-55391500D01*
X81298136Y-55391500D01*
X81281693Y-55390422D01*
X81250000Y-55386250D01*
X81241811Y-55387328D01*
X81210126Y-55391499D01*
X81210117Y-55391500D01*
X81210115Y-55391500D01*
X81210109Y-55391501D01*
X81210107Y-55391501D01*
X81110543Y-55404609D01*
X81099336Y-55406084D01*
X81099334Y-55406085D01*
X81091149Y-55407162D01*
X81035900Y-55430047D01*
X80950752Y-55465316D01*
X80950750Y-55465317D01*
X80943124Y-55468476D01*
X80936575Y-55473502D01*
X80936574Y-55473502D01*
X80882640Y-55514888D01*
X80857371Y-55534278D01*
X80816013Y-55566013D01*
X80810987Y-55572563D01*
X80810984Y-55572566D01*
X80796548Y-55591380D01*
X80785681Y-55603771D01*
X79784856Y-56604595D01*
X79722544Y-56638621D01*
X79695761Y-56641500D01*
X79396232Y-56641500D01*
X79337276Y-56626856D01*
X79255769Y-56583700D01*
X79219047Y-56574476D01*
X79096822Y-56543775D01*
X79096818Y-56543775D01*
X79089451Y-56541924D01*
X79081852Y-56541884D01*
X79081850Y-56541884D01*
X79010394Y-56541510D01*
X78917969Y-56541026D01*
X78910589Y-56542798D01*
X78910587Y-56542798D01*
X78758602Y-56579286D01*
X78758598Y-56579287D01*
X78751223Y-56581058D01*
X78598839Y-56659709D01*
X78469615Y-56772439D01*
X78465248Y-56778653D01*
X78430700Y-56827809D01*
X78375165Y-56872041D01*
X78304533Y-56879226D01*
X78252489Y-56853698D01*
X78251519Y-56855094D01*
X78245281Y-56850758D01*
X78239609Y-56845705D01*
X78230816Y-56841049D01*
X78173315Y-56810604D01*
X78088057Y-56765462D01*
X78039677Y-56753310D01*
X77981276Y-56720201D01*
X77907977Y-56646902D01*
X77873951Y-56584590D01*
X77879016Y-56513775D01*
X77921563Y-56456939D01*
X77968945Y-56434987D01*
X77973651Y-56433909D01*
X77981056Y-56432213D01*
X78134255Y-56355162D01*
X78140026Y-56350233D01*
X78140029Y-56350231D01*
X78258875Y-56248726D01*
X78264652Y-56243792D01*
X78364721Y-56104533D01*
X78428682Y-55945423D01*
X78444070Y-55837299D01*
X78452263Y-55779734D01*
X78452263Y-55779730D01*
X78452844Y-55775650D01*
X78453001Y-55760703D01*
X78441188Y-55663086D01*
X78433312Y-55598002D01*
X78433311Y-55597999D01*
X78432399Y-55590461D01*
X78421262Y-55560986D01*
X78406895Y-55522966D01*
X78371784Y-55430047D01*
X78367484Y-55423790D01*
X78363962Y-55417053D01*
X78366360Y-55415799D01*
X78347797Y-55356021D01*
X78347797Y-54252372D01*
X78367799Y-54184251D01*
X78421455Y-54137758D01*
X78491729Y-54127654D01*
X78556309Y-54157148D01*
X78568295Y-54169157D01*
X78572111Y-54174835D01*
X78606761Y-54206364D01*
X78670775Y-54264612D01*
X78698946Y-54290246D01*
X78849649Y-54372071D01*
X79015520Y-54415587D01*
X79102967Y-54416960D01*
X79179384Y-54418161D01*
X79179387Y-54418161D01*
X79186983Y-54418280D01*
X79194387Y-54416584D01*
X79194389Y-54416584D01*
X79285856Y-54395635D01*
X79354140Y-54379996D01*
X79507339Y-54302945D01*
X79513110Y-54298016D01*
X79513113Y-54298014D01*
X79631959Y-54196509D01*
X79637736Y-54191575D01*
X79724727Y-54070516D01*
X79733373Y-54058484D01*
X79733374Y-54058483D01*
X79737805Y-54052316D01*
X79801766Y-53893206D01*
X79825928Y-53723433D01*
X79826085Y-53708486D01*
X79817678Y-53639017D01*
X79806396Y-53545785D01*
X79806395Y-53545782D01*
X79805483Y-53538244D01*
X79798269Y-53519151D01*
X79747552Y-53384933D01*
X79744868Y-53377830D01*
X79695785Y-53306414D01*
X79652040Y-53242764D01*
X79652039Y-53242762D01*
X79647738Y-53236505D01*
X79570876Y-53168023D01*
X79525374Y-53127482D01*
X79525371Y-53127480D01*
X79519702Y-53122429D01*
X79368150Y-53042186D01*
X79339393Y-53034963D01*
X79314565Y-53028726D01*
X79256166Y-52995617D01*
X79127389Y-52866840D01*
X79093363Y-52804528D01*
X79090484Y-52777745D01*
X79090484Y-52758309D01*
X79110486Y-52690188D01*
X79164142Y-52643695D01*
X79234416Y-52633591D01*
X79276605Y-52647578D01*
X79337268Y-52680515D01*
X79503139Y-52724031D01*
X79590586Y-52725404D01*
X79667003Y-52726605D01*
X79667006Y-52726605D01*
X79674602Y-52726724D01*
X79682006Y-52725028D01*
X79682008Y-52725028D01*
X79744846Y-52710636D01*
X79841759Y-52688440D01*
X79994958Y-52611389D01*
X80000731Y-52606458D01*
X80000736Y-52606455D01*
X80068108Y-52548914D01*
X80132897Y-52519883D01*
X80203097Y-52530488D01*
X80234738Y-52551532D01*
X80280944Y-52593576D01*
X80280948Y-52593579D01*
X80286565Y-52598690D01*
X80437268Y-52680515D01*
X80603139Y-52724031D01*
X80690586Y-52725404D01*
X80767003Y-52726605D01*
X80767006Y-52726605D01*
X80774602Y-52726724D01*
X80782006Y-52725028D01*
X80782008Y-52725028D01*
X80844846Y-52710636D01*
X80941759Y-52688440D01*
X81094958Y-52611389D01*
X81100729Y-52606460D01*
X81100732Y-52606458D01*
X81219578Y-52504953D01*
X81225355Y-52500019D01*
X81325424Y-52360760D01*
X81389385Y-52201650D01*
X81413547Y-52031877D01*
X81413704Y-52016930D01*
X81397360Y-51881870D01*
X81394015Y-51854229D01*
X81394014Y-51854226D01*
X81393102Y-51846688D01*
X81366995Y-51777596D01*
X81335171Y-51693377D01*
X81332487Y-51686274D01*
X81283972Y-51615684D01*
X81239659Y-51551208D01*
X81239658Y-51551206D01*
X81235357Y-51544949D01*
X81229095Y-51539369D01*
X81150681Y-51469505D01*
X81113125Y-51409255D01*
X81108500Y-51375429D01*
X81108500Y-46099476D01*
X81108611Y-46094200D01*
X81110889Y-46039846D01*
X81111249Y-46031260D01*
X81101148Y-45988192D01*
X81098986Y-45976527D01*
X81094150Y-45941221D01*
X81094150Y-45941220D01*
X81092984Y-45932710D01*
X81086861Y-45918560D01*
X81079826Y-45897288D01*
X81078268Y-45890647D01*
X81076307Y-45882284D01*
X81054997Y-45843522D01*
X81049775Y-45832862D01*
X81035624Y-45800160D01*
X81035623Y-45800158D01*
X81032212Y-45792276D01*
X81022512Y-45780297D01*
X81010019Y-45761705D01*
X81005773Y-45753982D01*
X81005769Y-45753977D01*
X81002589Y-45748192D01*
X80995478Y-45739954D01*
X80970529Y-45715005D01*
X80961703Y-45705204D01*
X80941320Y-45680033D01*
X80935914Y-45673357D01*
X80920230Y-45662211D01*
X80904124Y-45648600D01*
X79029119Y-43773595D01*
X78995093Y-43711283D01*
X79000158Y-43640468D01*
X79042705Y-43583632D01*
X79109225Y-43558821D01*
X79118214Y-43558500D01*
X80812059Y-43558500D01*
X80823260Y-43558999D01*
X80824950Y-43559150D01*
X80832115Y-43560640D01*
X80909520Y-43558546D01*
X80912928Y-43558500D01*
X83267930Y-43558500D01*
X83286880Y-43559933D01*
X83301115Y-43562099D01*
X83301119Y-43562099D01*
X83308349Y-43563199D01*
X83315641Y-43562606D01*
X83315644Y-43562606D01*
X83361018Y-43558915D01*
X83371233Y-43558500D01*
X83379293Y-43558500D01*
X83392583Y-43556951D01*
X83407507Y-43555211D01*
X83411882Y-43554778D01*
X83477339Y-43549454D01*
X83477342Y-43549453D01*
X83484637Y-43548860D01*
X83491601Y-43546604D01*
X83497560Y-43545413D01*
X83503415Y-43544029D01*
X83510681Y-43543182D01*
X83579327Y-43518265D01*
X83583455Y-43516848D01*
X83645936Y-43496607D01*
X83645938Y-43496606D01*
X83652899Y-43494351D01*
X83659154Y-43490555D01*
X83664628Y-43488049D01*
X83670058Y-43485330D01*
X83676937Y-43482833D01*
X83683058Y-43478820D01*
X83737976Y-43442814D01*
X83741680Y-43440477D01*
X83804107Y-43402595D01*
X83812484Y-43395197D01*
X83812508Y-43395224D01*
X83815500Y-43392571D01*
X83818733Y-43389868D01*
X83824852Y-43385856D01*
X83878129Y-43329616D01*
X83880506Y-43327175D01*
X86935130Y-40272551D01*
X86997442Y-40238525D01*
X87068257Y-40243590D01*
G37*
%TD.AperFunction*%
%TA.AperFunction,Conductor*%
G36*
X75457683Y-43470002D02*
G01*
X75531015Y-43509818D01*
X75696886Y-43553334D01*
X75784333Y-43554707D01*
X75860750Y-43555908D01*
X75860753Y-43555908D01*
X75868349Y-43556027D01*
X75989302Y-43528325D01*
X76060168Y-43532614D01*
X76106526Y-43562050D01*
X79154595Y-46610119D01*
X79188621Y-46672431D01*
X79191500Y-46699214D01*
X79191500Y-51375752D01*
X79171498Y-51443873D01*
X79148330Y-51470701D01*
X79069615Y-51539369D01*
X79017280Y-51613834D01*
X79004398Y-51632163D01*
X78948863Y-51676394D01*
X78878231Y-51683580D01*
X78842354Y-51671068D01*
X78737753Y-51615684D01*
X78727235Y-51613042D01*
X78578806Y-51575759D01*
X78578802Y-51575759D01*
X78571435Y-51573908D01*
X78563836Y-51573868D01*
X78563834Y-51573868D01*
X78488706Y-51573475D01*
X78399953Y-51573010D01*
X78399955Y-51572569D01*
X78334712Y-51561339D01*
X78282362Y-51513380D01*
X78264251Y-51444732D01*
X78269626Y-51411648D01*
X78279290Y-51379783D01*
X78279291Y-51379779D01*
X78281085Y-51373863D01*
X78281691Y-51367709D01*
X78298013Y-51201940D01*
X78298013Y-51201938D01*
X78298619Y-51195783D01*
X78283400Y-51041277D01*
X78281685Y-51023862D01*
X78281684Y-51023859D01*
X78281078Y-51017703D01*
X78261761Y-50954020D01*
X78230934Y-50852389D01*
X78230933Y-50852386D01*
X78229137Y-50846466D01*
X78144792Y-50688650D01*
X78086769Y-50617939D01*
X78049256Y-50572224D01*
X78046693Y-50568995D01*
X78036921Y-50556258D01*
X78036920Y-50556257D01*
X78031894Y-50549706D01*
X78025340Y-50544676D01*
X78012894Y-50535124D01*
X78009665Y-50532561D01*
X77897748Y-50440698D01*
X77897742Y-50440694D01*
X77892959Y-50436768D01*
X77735137Y-50352393D01*
X77563886Y-50300428D01*
X77548606Y-50298922D01*
X77547181Y-50298781D01*
X77481352Y-50272190D01*
X77440349Y-50214231D01*
X77434154Y-50185750D01*
X77433123Y-50175290D01*
X77433123Y-50175288D01*
X77432515Y-50169125D01*
X77380553Y-49997885D01*
X77296183Y-49840073D01*
X77201518Y-49724741D01*
X77198969Y-49721528D01*
X77188327Y-49707662D01*
X77188321Y-49707656D01*
X77183294Y-49701106D01*
X77169914Y-49690840D01*
X77164262Y-49686504D01*
X77161033Y-49683941D01*
X77049143Y-49592127D01*
X77049142Y-49592127D01*
X77044356Y-49588199D01*
X76886538Y-49503852D01*
X76880613Y-49502055D01*
X76880611Y-49502054D01*
X76721224Y-49453708D01*
X76721222Y-49453708D01*
X76715299Y-49451911D01*
X76709139Y-49451304D01*
X76709138Y-49451304D01*
X76643360Y-49444825D01*
X76537217Y-49434370D01*
X76531062Y-49434976D01*
X76531060Y-49434976D01*
X76365289Y-49451298D01*
X76365288Y-49451298D01*
X76359135Y-49451904D01*
X76187893Y-49503839D01*
X76182437Y-49506755D01*
X76182434Y-49506756D01*
X76122000Y-49539053D01*
X76030073Y-49588180D01*
X76025287Y-49592107D01*
X76020142Y-49595544D01*
X76019444Y-49594499D01*
X75960161Y-49619670D01*
X75890184Y-49607682D01*
X75837797Y-49559764D01*
X75827721Y-49539053D01*
X75785172Y-49426449D01*
X75785171Y-49426447D01*
X75782487Y-49419344D01*
X75726616Y-49338051D01*
X75689659Y-49284278D01*
X75689658Y-49284276D01*
X75685357Y-49278019D01*
X75679686Y-49272966D01*
X75562993Y-49168996D01*
X75562990Y-49168994D01*
X75557321Y-49163943D01*
X75549325Y-49159709D01*
X75412481Y-49087254D01*
X75412482Y-49087254D01*
X75405769Y-49083700D01*
X75374704Y-49075897D01*
X75246822Y-49043775D01*
X75246818Y-49043775D01*
X75239451Y-49041924D01*
X75231852Y-49041884D01*
X75231850Y-49041884D01*
X75160394Y-49041510D01*
X75067969Y-49041026D01*
X75060589Y-49042798D01*
X75060587Y-49042798D01*
X74908602Y-49079286D01*
X74908598Y-49079287D01*
X74901223Y-49081058D01*
X74748839Y-49159709D01*
X74743122Y-49164696D01*
X74743115Y-49164701D01*
X74717329Y-49187196D01*
X74652847Y-49216904D01*
X74582540Y-49207034D01*
X74528730Y-49160720D01*
X74508500Y-49092247D01*
X74508500Y-47705072D01*
X74523558Y-47646427D01*
X74525424Y-47643830D01*
X74589385Y-47484720D01*
X74612215Y-47324305D01*
X74612966Y-47319031D01*
X74612966Y-47319027D01*
X74613547Y-47314947D01*
X74613704Y-47300000D01*
X74596228Y-47155590D01*
X74594015Y-47137299D01*
X74594014Y-47137296D01*
X74593102Y-47129758D01*
X74532487Y-46969344D01*
X74435357Y-46828019D01*
X74373078Y-46772530D01*
X74312993Y-46718996D01*
X74312990Y-46718994D01*
X74307321Y-46713943D01*
X74155769Y-46633700D01*
X74028248Y-46601669D01*
X74003804Y-46595529D01*
X73942609Y-46559534D01*
X73910588Y-46496169D01*
X73908500Y-46473325D01*
X73908500Y-45904239D01*
X73928502Y-45836118D01*
X73945405Y-45815144D01*
X74047745Y-45712804D01*
X74108710Y-45679079D01*
X74134359Y-45673205D01*
X74134361Y-45673204D01*
X74141759Y-45671510D01*
X74294958Y-45594459D01*
X74300729Y-45589530D01*
X74300732Y-45589528D01*
X74419578Y-45488023D01*
X74425355Y-45483089D01*
X74525424Y-45343830D01*
X74548759Y-45285782D01*
X74592725Y-45230037D01*
X74639679Y-45212316D01*
X74639102Y-45209794D01*
X74806259Y-45171510D01*
X74959458Y-45094459D01*
X74965229Y-45089530D01*
X74965232Y-45089528D01*
X75084078Y-44988023D01*
X75089855Y-44983089D01*
X75189924Y-44843830D01*
X75253885Y-44684720D01*
X75265018Y-44606492D01*
X75277466Y-44519031D01*
X75277466Y-44519027D01*
X75278047Y-44514947D01*
X75278204Y-44500000D01*
X75257602Y-44329758D01*
X75231950Y-44261870D01*
X75199671Y-44176447D01*
X75196987Y-44169344D01*
X75162798Y-44119598D01*
X75104159Y-44034278D01*
X75104158Y-44034276D01*
X75099857Y-44028019D01*
X75094186Y-44022966D01*
X74977493Y-43918996D01*
X74977490Y-43918994D01*
X74971821Y-43913943D01*
X74820269Y-43833700D01*
X74798878Y-43828327D01*
X74661322Y-43793775D01*
X74661318Y-43793775D01*
X74653951Y-43791924D01*
X74646352Y-43791884D01*
X74646350Y-43791884D01*
X74600731Y-43791645D01*
X74572579Y-43791498D01*
X74504564Y-43771140D01*
X74458353Y-43717242D01*
X74448617Y-43646916D01*
X74478448Y-43582490D01*
X74484144Y-43576405D01*
X74568911Y-43491638D01*
X74631223Y-43457612D01*
X74658006Y-43454733D01*
X75397561Y-43454733D01*
X75457683Y-43470002D01*
G37*
%TD.AperFunction*%
%TA.AperFunction,Conductor*%
G36*
X74660271Y-33528502D02*
G01*
X74706764Y-33582158D01*
X74716926Y-33645083D01*
X74717553Y-33645117D01*
X74717397Y-33647998D01*
X74717414Y-33648103D01*
X74717369Y-33648520D01*
X74717000Y-33655328D01*
X74717000Y-34277885D01*
X74721475Y-34293124D01*
X74722865Y-34294329D01*
X74730548Y-34296000D01*
X76614884Y-34296000D01*
X76630123Y-34291525D01*
X76631328Y-34290135D01*
X76632999Y-34282452D01*
X76632999Y-33655331D01*
X76632629Y-33648506D01*
X76632584Y-33648089D01*
X76632601Y-33647992D01*
X76632446Y-33645123D01*
X76633123Y-33645086D01*
X76645122Y-33578209D01*
X76693451Y-33526200D01*
X76757849Y-33508500D01*
X80242150Y-33508500D01*
X80310271Y-33528502D01*
X80356764Y-33582158D01*
X80366926Y-33645083D01*
X80367553Y-33645117D01*
X80367397Y-33647998D01*
X80367414Y-33648103D01*
X80367369Y-33648520D01*
X80367000Y-33655328D01*
X80367000Y-34277885D01*
X80371475Y-34293124D01*
X80372865Y-34294329D01*
X80380548Y-34296000D01*
X82264884Y-34296000D01*
X82280123Y-34291525D01*
X82281328Y-34290135D01*
X82282999Y-34282452D01*
X82282999Y-33655331D01*
X82282629Y-33648506D01*
X82282584Y-33648089D01*
X82282601Y-33647992D01*
X82282446Y-33645123D01*
X82283123Y-33645086D01*
X82295122Y-33578209D01*
X82343451Y-33526200D01*
X82407849Y-33508500D01*
X88229762Y-33508500D01*
X88297883Y-33528502D01*
X88344376Y-33582158D01*
X88354480Y-33652432D01*
X88324986Y-33717012D01*
X88265260Y-33755396D01*
X88248821Y-33759050D01*
X88184091Y-33768955D01*
X87971756Y-33838357D01*
X87773607Y-33941507D01*
X87769474Y-33944610D01*
X87769471Y-33944612D01*
X87745247Y-33962800D01*
X87594965Y-34075635D01*
X87440629Y-34237138D01*
X87314743Y-34421680D01*
X87300218Y-34452972D01*
X87229144Y-34606089D01*
X87220688Y-34624305D01*
X87160989Y-34839570D01*
X87137251Y-35061695D01*
X87137548Y-35066848D01*
X87137548Y-35066851D01*
X87143011Y-35161590D01*
X87150110Y-35284715D01*
X87151247Y-35289761D01*
X87151248Y-35289767D01*
X87171119Y-35377939D01*
X87199222Y-35502639D01*
X87283266Y-35709616D01*
X87399987Y-35900088D01*
X87546250Y-36068938D01*
X87718126Y-36211632D01*
X87788595Y-36252811D01*
X87791445Y-36254476D01*
X87840169Y-36306114D01*
X87853240Y-36375897D01*
X87826509Y-36441669D01*
X87786055Y-36475027D01*
X87773607Y-36481507D01*
X87769474Y-36484610D01*
X87769471Y-36484612D01*
X87599100Y-36612530D01*
X87594965Y-36615635D01*
X87440629Y-36777138D01*
X87437715Y-36781410D01*
X87437714Y-36781411D01*
X87425404Y-36799457D01*
X87314743Y-36961680D01*
X87220688Y-37164305D01*
X87160989Y-37379570D01*
X87137251Y-37601695D01*
X87150110Y-37824715D01*
X87151247Y-37829760D01*
X87151966Y-37834877D01*
X87150518Y-37835081D01*
X87146398Y-37899274D01*
X87117119Y-37945200D01*
X83057724Y-42004595D01*
X82995412Y-42038621D01*
X82968629Y-42041500D01*
X81266371Y-42041500D01*
X81198250Y-42021498D01*
X81177276Y-42004595D01*
X79430770Y-40258089D01*
X79418384Y-40243677D01*
X79409851Y-40232082D01*
X79409846Y-40232077D01*
X79405508Y-40226182D01*
X79399930Y-40221443D01*
X79399927Y-40221440D01*
X79365232Y-40191965D01*
X79357716Y-40185035D01*
X79352021Y-40179340D01*
X79345880Y-40174482D01*
X79329749Y-40161719D01*
X79326345Y-40158928D01*
X79276297Y-40116409D01*
X79276295Y-40116408D01*
X79270715Y-40111667D01*
X79264199Y-40108339D01*
X79259150Y-40104972D01*
X79254021Y-40101805D01*
X79248284Y-40097266D01*
X79182125Y-40066345D01*
X79178225Y-40064439D01*
X79113192Y-40031231D01*
X79106084Y-40029492D01*
X79100441Y-40027393D01*
X79094678Y-40025476D01*
X79088050Y-40022378D01*
X79016583Y-40007513D01*
X79012299Y-40006543D01*
X78997697Y-40002970D01*
X78941390Y-39989192D01*
X78935788Y-39988844D01*
X78935785Y-39988844D01*
X78930236Y-39988500D01*
X78930238Y-39988464D01*
X78926245Y-39988225D01*
X78922053Y-39987851D01*
X78914885Y-39986360D01*
X78848675Y-39988151D01*
X78837479Y-39988454D01*
X78834072Y-39988500D01*
X78655707Y-39988500D01*
X78585964Y-39996631D01*
X78531589Y-40002970D01*
X78531585Y-40002971D01*
X78524319Y-40003818D01*
X78517444Y-40006313D01*
X78517442Y-40006314D01*
X78364939Y-40061671D01*
X78358063Y-40064167D01*
X78351946Y-40068178D01*
X78351939Y-40068181D01*
X78249757Y-40135174D01*
X78181822Y-40155797D01*
X78113522Y-40136417D01*
X78091578Y-40118897D01*
X77406157Y-39433476D01*
X77376261Y-39385818D01*
X77365565Y-39355102D01*
X77365562Y-39355096D01*
X77363247Y-39348448D01*
X77267128Y-39194624D01*
X77247854Y-39175215D01*
X77227198Y-39154414D01*
X77219944Y-39146455D01*
X77219368Y-39145766D01*
X77215358Y-39139650D01*
X77169118Y-39095846D01*
X77166412Y-39093203D01*
X77142723Y-39069348D01*
X77139317Y-39065918D01*
X77137894Y-39065015D01*
X77135965Y-39063284D01*
X75478592Y-37405911D01*
X76158919Y-37405911D01*
X76161702Y-37409629D01*
X76302775Y-37462093D01*
X76316360Y-37465480D01*
X76476517Y-37486850D01*
X76490513Y-37487143D01*
X76651419Y-37472499D01*
X76665144Y-37469682D01*
X76818807Y-37419754D01*
X76830766Y-37414329D01*
X76838571Y-37405911D01*
X80158919Y-37405911D01*
X80161702Y-37409629D01*
X80302775Y-37462093D01*
X80316360Y-37465480D01*
X80476517Y-37486850D01*
X80490513Y-37487143D01*
X80651419Y-37472499D01*
X80665144Y-37469682D01*
X80818807Y-37419754D01*
X80830766Y-37414329D01*
X80840121Y-37404239D01*
X80836616Y-37395826D01*
X80512812Y-37072022D01*
X80498868Y-37064408D01*
X80497035Y-37064539D01*
X80490420Y-37068790D01*
X80165679Y-37393531D01*
X80158919Y-37405911D01*
X76838571Y-37405911D01*
X76840121Y-37404239D01*
X76836616Y-37395826D01*
X76512812Y-37072022D01*
X76498868Y-37064408D01*
X76497035Y-37064539D01*
X76490420Y-37068790D01*
X76165679Y-37393531D01*
X76158919Y-37405911D01*
X75478592Y-37405911D01*
X74768689Y-36696008D01*
X75712810Y-36696008D01*
X75728578Y-36856816D01*
X75731489Y-36870510D01*
X75782489Y-37023823D01*
X75786364Y-37032211D01*
X75795380Y-37040454D01*
X75803997Y-37036793D01*
X76127978Y-36712812D01*
X76134356Y-36701132D01*
X76864408Y-36701132D01*
X76864539Y-36702965D01*
X76868790Y-36709580D01*
X77193117Y-37033907D01*
X77205497Y-37040667D01*
X77209313Y-37037810D01*
X77260699Y-36902538D01*
X77264179Y-36888984D01*
X77287096Y-36725923D01*
X77287702Y-36718041D01*
X77287899Y-36703962D01*
X77287512Y-36696062D01*
X77287506Y-36696008D01*
X79712810Y-36696008D01*
X79728578Y-36856816D01*
X79731489Y-36870510D01*
X79782489Y-37023823D01*
X79786364Y-37032211D01*
X79795380Y-37040454D01*
X79803997Y-37036793D01*
X80127978Y-36712812D01*
X80134356Y-36701132D01*
X80864408Y-36701132D01*
X80864539Y-36702965D01*
X80868790Y-36709580D01*
X81193117Y-37033907D01*
X81205497Y-37040667D01*
X81209313Y-37037810D01*
X81260699Y-36902538D01*
X81264179Y-36888984D01*
X81287096Y-36725923D01*
X81287702Y-36718041D01*
X81287899Y-36703962D01*
X81287512Y-36696062D01*
X81269158Y-36532427D01*
X81266058Y-36518782D01*
X81212918Y-36366184D01*
X81212292Y-36364877D01*
X81205460Y-36358804D01*
X81196411Y-36362799D01*
X80872022Y-36687188D01*
X80864408Y-36701132D01*
X80134356Y-36701132D01*
X80135592Y-36698868D01*
X80135461Y-36697035D01*
X80131210Y-36690420D01*
X79806023Y-36365233D01*
X79793643Y-36358473D01*
X79790021Y-36361184D01*
X79736547Y-36508102D01*
X79733257Y-36521702D01*
X79713006Y-36682011D01*
X79712810Y-36696008D01*
X77287506Y-36696008D01*
X77269158Y-36532427D01*
X77266058Y-36518782D01*
X77212918Y-36366184D01*
X77212292Y-36364877D01*
X77205460Y-36358804D01*
X77196411Y-36362799D01*
X76872022Y-36687188D01*
X76864408Y-36701132D01*
X76134356Y-36701132D01*
X76135592Y-36698868D01*
X76135461Y-36697035D01*
X76131210Y-36690420D01*
X75806023Y-36365233D01*
X75793643Y-36358473D01*
X75790021Y-36361184D01*
X75736547Y-36508102D01*
X75733257Y-36521702D01*
X75713006Y-36682011D01*
X75712810Y-36696008D01*
X74768689Y-36696008D01*
X73517350Y-35444669D01*
X74717001Y-35444669D01*
X74717371Y-35451490D01*
X74722895Y-35502352D01*
X74726521Y-35517604D01*
X74771676Y-35638054D01*
X74780214Y-35653649D01*
X74856715Y-35755724D01*
X74869276Y-35768285D01*
X74971351Y-35844786D01*
X74986946Y-35853324D01*
X75107394Y-35898478D01*
X75122649Y-35902105D01*
X75173514Y-35907631D01*
X75180328Y-35908000D01*
X75402885Y-35908000D01*
X75418124Y-35903525D01*
X75419329Y-35902135D01*
X75421000Y-35894452D01*
X75421000Y-35889884D01*
X75929000Y-35889884D01*
X75933475Y-35905123D01*
X75934865Y-35906328D01*
X75942548Y-35907999D01*
X76038782Y-35907999D01*
X76106903Y-35928001D01*
X76154405Y-35983925D01*
X76163014Y-36003804D01*
X76487188Y-36327978D01*
X76501132Y-36335592D01*
X76502965Y-36335461D01*
X76509580Y-36331210D01*
X76834795Y-36005995D01*
X76840813Y-35994973D01*
X80159190Y-35994973D01*
X80163014Y-36003804D01*
X80487188Y-36327978D01*
X80501132Y-36335592D01*
X80502965Y-36335461D01*
X80509580Y-36331210D01*
X80834797Y-36005993D01*
X80852479Y-35973612D01*
X80902682Y-35923411D01*
X80963065Y-35908000D01*
X81052885Y-35908000D01*
X81068124Y-35903525D01*
X81069329Y-35902135D01*
X81071000Y-35894452D01*
X81071000Y-35889884D01*
X81579000Y-35889884D01*
X81583475Y-35905123D01*
X81584865Y-35906328D01*
X81592548Y-35907999D01*
X81819669Y-35907999D01*
X81826490Y-35907629D01*
X81877352Y-35902105D01*
X81892604Y-35898479D01*
X82013054Y-35853324D01*
X82028649Y-35844786D01*
X82130724Y-35768285D01*
X82143285Y-35755724D01*
X82219786Y-35653649D01*
X82228324Y-35638054D01*
X82273478Y-35517606D01*
X82277105Y-35502351D01*
X82282631Y-35451486D01*
X82283000Y-35444672D01*
X82283000Y-34822115D01*
X82278525Y-34806876D01*
X82277135Y-34805671D01*
X82269452Y-34804000D01*
X81597115Y-34804000D01*
X81581876Y-34808475D01*
X81580671Y-34809865D01*
X81579000Y-34817548D01*
X81579000Y-35889884D01*
X81071000Y-35889884D01*
X81071000Y-34822115D01*
X81066525Y-34806876D01*
X81065135Y-34805671D01*
X81057452Y-34804000D01*
X80385116Y-34804000D01*
X80369877Y-34808475D01*
X80368672Y-34809865D01*
X80367001Y-34817548D01*
X80367001Y-35444669D01*
X80367371Y-35451490D01*
X80372895Y-35502352D01*
X80376521Y-35517604D01*
X80421676Y-35638054D01*
X80430214Y-35653649D01*
X80482088Y-35722864D01*
X80506936Y-35789371D01*
X80491883Y-35858753D01*
X80441709Y-35908983D01*
X80394432Y-35923739D01*
X80337805Y-35929690D01*
X80324129Y-35932697D01*
X80171169Y-35984770D01*
X80166340Y-35987042D01*
X80159190Y-35994973D01*
X76840813Y-35994973D01*
X76841555Y-35993615D01*
X76838291Y-35989255D01*
X76686564Y-35935227D01*
X76672939Y-35932031D01*
X76603650Y-35923769D01*
X76538377Y-35895841D01*
X76498564Y-35837058D01*
X76496852Y-35766082D01*
X76517742Y-35723090D01*
X76569789Y-35653644D01*
X76578324Y-35638054D01*
X76623478Y-35517606D01*
X76627105Y-35502351D01*
X76632631Y-35451486D01*
X76633000Y-35444672D01*
X76633000Y-34822115D01*
X76628525Y-34806876D01*
X76627135Y-34805671D01*
X76619452Y-34804000D01*
X75947115Y-34804000D01*
X75931876Y-34808475D01*
X75930671Y-34809865D01*
X75929000Y-34817548D01*
X75929000Y-35889884D01*
X75421000Y-35889884D01*
X75421000Y-34822115D01*
X75416525Y-34806876D01*
X75415135Y-34805671D01*
X75407452Y-34804000D01*
X74735116Y-34804000D01*
X74719877Y-34808475D01*
X74718672Y-34809865D01*
X74717001Y-34817548D01*
X74717001Y-35444669D01*
X73517350Y-35444669D01*
X72678770Y-34606089D01*
X72666384Y-34591677D01*
X72657851Y-34580082D01*
X72657846Y-34580077D01*
X72653508Y-34574182D01*
X72647930Y-34569443D01*
X72647927Y-34569440D01*
X72613232Y-34539965D01*
X72605716Y-34533035D01*
X72600021Y-34527340D01*
X72593880Y-34522482D01*
X72577749Y-34509719D01*
X72574345Y-34506928D01*
X72524297Y-34464409D01*
X72524295Y-34464408D01*
X72518715Y-34459667D01*
X72512199Y-34456339D01*
X72507150Y-34452972D01*
X72502021Y-34449805D01*
X72496284Y-34445266D01*
X72430125Y-34414345D01*
X72426225Y-34412439D01*
X72361192Y-34379231D01*
X72354084Y-34377492D01*
X72348441Y-34375393D01*
X72342678Y-34373476D01*
X72336050Y-34370378D01*
X72264583Y-34355513D01*
X72260299Y-34354543D01*
X72189390Y-34337192D01*
X72183788Y-34336844D01*
X72183785Y-34336844D01*
X72178236Y-34336500D01*
X72178238Y-34336464D01*
X72174245Y-34336225D01*
X72170053Y-34335851D01*
X72162885Y-34334360D01*
X72096675Y-34336151D01*
X72085479Y-34336454D01*
X72082072Y-34336500D01*
X69970939Y-34336500D01*
X69902818Y-34316498D01*
X69865147Y-34278941D01*
X69857822Y-34267617D01*
X69855014Y-34263277D01*
X69704670Y-34098051D01*
X69700619Y-34094852D01*
X69700615Y-34094848D01*
X69533414Y-33962800D01*
X69533410Y-33962798D01*
X69529359Y-33959598D01*
X69333789Y-33851638D01*
X69328920Y-33849914D01*
X69328916Y-33849912D01*
X69128087Y-33778795D01*
X69128083Y-33778794D01*
X69123212Y-33777069D01*
X69118119Y-33776162D01*
X69118116Y-33776161D01*
X69019230Y-33758547D01*
X68955672Y-33726909D01*
X68919309Y-33665932D01*
X68921686Y-33594975D01*
X68962047Y-33536567D01*
X69027579Y-33509252D01*
X69041326Y-33508500D01*
X74592150Y-33508500D01*
X74660271Y-33528502D01*
G37*
%TD.AperFunction*%
%TD*%
M02*
